<svg xmlns="http://www.w3.org/2000/svg" xmlns:xlink="http://www.w3.org/1999/xlink" xmlns:lucid="lucid" width="2405" height="1205"><g transform="translate(-2477.5 802.5)" lucid:page-tab-id="mXwzAnnOLpm1"><path d="M-1500-1000h6500v2500h-6500z" fill="#fff"/><path d="M2560-318.68a2 2 0 0 1 2-2h636a2 2 0 0 1 2 2V317.8a2 2 0 0 1-2 2h-636a2 2 0 0 1-2-2zM3360-318a2 2 0 0 1 2-2h636a2 2 0 0 1 2 2v635.8a2 2 0 0 1-2 2h-636a2 2 0 0 1-2-2zM4160-317.32a2 2 0 0 1 2-2h636a2 2 0 0 1 2 2v635.8a2 2 0 0 1-2 2h-636a2 2 0 0 1-2-2z" stroke="#d8d8d8" stroke-width="4" fill="#f2f2f2"/><path d="M2687.67 70.97h25.37v8.17h-25.37zm7.9 25.44h9.33l7.92-8.38h-25.15z" stroke="#000" stroke-opacity="0" stroke-width="3" fill="#7a7a7a"/><path d="M2738.88 11.7V11c0-18.5-15.82-33.84-35.15-34.1-.47-.68-11.54.26-11.54.26-17.47 2.14-31.1 16.8-31.1 33.85 0 .44-1.88 13.9 11.76 25.2 6.16 5.5 12.63 20.4 13.64 24.68l.7 1.46h25.34l.78-1.46c.93-4.28 7.63-19.2 13.63-24.42 13.65-11.57 11.93-24.25 11.93-24.77z" stroke="#000" stroke-opacity="0" stroke-width="3" fill="#68217a"/><path d="M2713.03 19.86l-4.06 25.44h-4.8V20.12l.26-.5c9.1 0 7.88-8.38 7.88-8.38h-24.64v.72c0 1.9.72 7.9 8.4 7.9V45.3h-4.8l-1.2-6-3.12-19.44c-5.5 0-7.16-3.6-7.88-6.24v-3.36c0-6.7 7.66-7.43 7.66-7.43h26.3s8.4.98 8.4 8.4c-.25 0 0 8.63-8.4 8.63z" stroke="#000" stroke-opacity="0" stroke-width="3" fill="#fff"/><path d="M2738.92 15.8c.24-2.42 0-4.1 0-4.34v-.7c0-18.48-15.83-33.84-35.18-34.07-.54-.72-11.54.22-11.54.22-17.47 2.17-31.12 16.78-31.12 33.83 0 .23-.24 2.16 0 5.04h77.84z" stroke="#000" stroke-opacity="0" stroke-width="3" fill="#fff" fill-opacity=".15"/><path d="M2695.58 96.4l-7.9-8.42-.5-25.64-6.4-26.55-15.4-15.96 1.44-16.87 21-19.03 19.2-1.48 21.27 8.77 8.97 19.03-6.25 15.4-16.32 19.93-2.16 16.74.3 25.64-7.92 8.43z" stroke="#000" stroke-opacity="0" stroke-width="0" fill-opacity="0"/><use xlink:href="#a" transform="matrix(1,0,0,1,2631,105.40886789864176) translate(-11.274999999999991 14.4)"/><use xlink:href="#b" transform="matrix(1,0,0,1,2631,105.40886789864176) translate(22.099999999999994 36)"/><use xlink:href="#c" transform="matrix(1,0,0,1,2631,105.40886789864176) translate(35.05 57.6)"/><path d="M3017.4-237.8c-16.42 0-30.07 13.63-30.07 30.02 0 13.62 8.72 24.58 20.2 28.34l-6.55 7.1 8.23 7.08-8.22 7.64 8.23 7.08-8.22 8.2 16.4 15.28 13.66-14.18v-39.86c9.86-5.42 16.4-15.28 16.4-27.24 0-16.38-13.64-29.45-30.05-29.45zm5.46 21.82s-1.08 0-1.62 1.1c0 0-1.14 1.12-1.68 1.12h-4.88l-1.14-1.1-1.08-1.67v-4.87l1.08-1.1 1.7-1.12h4.86l1.14 1.1 1.08 1.67v4.87z" stroke="#000" stroke-opacity="0" stroke-width="6.25" fill="#fcd116"/><path d="M3020.12-177.8v39.28l5.47-5.45v-34.9c-1.9.55-3.53.88-5.48 1.08z" stroke="#000" stroke-opacity="0" stroke-width="6.25" fill="#ff8c00" fill-opacity=".4"/><path d="M3017.4-188.7c9.67.1 17.74-6.8 19.12-16.36h-38.26c1.38 9.56 9.45 16.46 19.13 16.36z" stroke="#000" stroke-opacity="0" stroke-width="6.25" fill="#fff" fill-opacity=".4"/><path d="M3049.64-222.52c1.6 3.25 2.18 5.45 2.76 9.32 10.9 10.27 16.53 23.15 16.4 38.12 0 28.4-23.52 51.84-51.98 51.84-28.35 0-51.3-23.45-51.3-51.84-.13-14.97 5.38-27.85 16.3-38.12l3.32-9.32c-16.3 11-25.14 27.86-25.14 47.44 0 31.63 25.7 57.3 57.4 57.3 31.67 0 57.38-25.67 57.38-57.3 0-19.58-9.87-37.07-25.14-47.44z" stroke="#000" stroke-opacity="0" stroke-width="6.25" fill="#7fba00"/><path d="M3017.62-232.36c31.67 0 57.38 25.6 57.38 57.17S3049.3-118 3017.62-118c-31.68 0-57.4-25.6-57.4-57.17 0-31.55 25.72-57.16 57.4-57.16z" stroke="#000" stroke-opacity="0" stroke-width=".01" fill-opacity="0"/><use xlink:href="#d" transform="matrix(1,0,0,1,2930,-108.78968544802149) translate(5.200000000000003 14.4)"/><use xlink:href="#e" transform="matrix(1,0,0,1,2930,-108.78968544802149) translate(43.75 36)"/><use xlink:href="#f" transform="matrix(1,0,0,1,2930,-108.78968544802149) translate(85.7 36)"/><path d="M2874.6-417.16c-.22 0-.37-.04-.6-.17l-35.3-20.4c-.3-.2-.5-.55-.5-.93 0-.4.2-.73.5-.9l35.1-20.3c.36-.18.72-.18 1.08 0l35.32 20.43c.3.17.5.55.5.9 0 .42-.2.76-.5.94l-35.1 20.27c-.14.13-.36.17-.5.17" stroke="#000" stroke-opacity="0" fill="#3999c6"/><path d="M2869.5-367.54c-.2 0-.38-.06-.57-.12l-35.16-20.4c-.38-.2-.57-.5-.57-.88v-40.86c0-.38.2-.75.57-.94.3-.2.7-.2 1.04 0l35.2 20.4c.35.18.53.5.53.88v40.85c0 .37-.18.75-.52.94-.18.06-.32.12-.5.12M2879.45-367.54c-.18 0-.37-.06-.56-.12-.34-.2-.53-.57-.53-.95v-40.56c0-.38.2-.76.52-.95l35.18-20.38c.34-.2.75-.2 1.08 0 .3.2.53.57.53.95v40.55c0 .44-.2.76-.54.95l-35.18 20.37c-.15.06-.34.12-.53.12" stroke="#000" stroke-opacity="0" fill="#59b4d9"/><path d="M2879.45-367.54c-.18 0-.37-.06-.56-.12-.34-.2-.53-.57-.53-.95v-40.56c0-.38.2-.76.52-.95l35.18-20.38c.34-.2.75-.2 1.08 0 .3.2.53.57.53.95v40.55c0 .44-.2.76-.54.95l-35.18 20.37c-.15.06-.34.12-.53.12" stroke="#000" stroke-opacity="0" fill="#fff" fill-opacity=".5"/><path d="M2837.4-363c-.62 0-1.2-.2-1.75-.5l-16.45-9.5c-2.74-1.54-4.75-5.04-4.75-8.24v-60.52c0-3.2 2-6.7 4.76-8.25l16.45-9.5c1.66-.98 3.8-.4 4.76 1.25.98 1.65.4 3.78-1.26 4.75l-16.45 9.5c-.6.4-1.27 1.56-1.27 2.24v60.52c0 .68.68 1.85 1.26 2.24l16.44 9.5c1.66.97 2.24 3.1 1.27 4.75-.63 1.17-1.82 1.75-3 1.75zM2911.5-460c.6 0 1.2.2 1.75.5l16.44 9.5c2.74 1.54 4.75 5.04 4.75 8.24v60.52c0 3.2-2 6.7-4.76 8.25l-16.45 9.5c-1.67.98-3.8.4-4.76-1.25-1-1.65-.4-3.78 1.26-4.75l16.44-9.5c.58-.4 1.27-1.56 1.27-2.24v-60.52c0-.68-.7-1.85-1.27-2.24l-16.44-9.5c-1.67-.97-2.25-3.1-1.27-4.75.62-1.17 1.8-1.75 3-1.75z" stroke="#000" stroke-opacity="0" fill="#7a7a7a"/><path d="M2837.12-457.86l74.42.1 18.58 13 1.02 66.1-20.97 13.77-73.05-.36-19.83-13.1s-.35-67.22.22-67.04c.46.28 19.6-12.46 19.6-12.46z" stroke="#000" stroke-opacity="0" stroke-width="0" fill-opacity="0"/><use xlink:href="#g" transform="matrix(1,0,0,1,2784.4465862541983,-354) translate(-12.22499999999998 14.4)"/><path d="M3680.15-417.16c-.22 0-.37-.04-.58-.17l-35.32-20.4c-.3-.2-.5-.55-.5-.93 0-.4.2-.73.5-.9l35.1-20.3c.36-.18.72-.18 1.1 0l35.3 20.43c.3.17.5.55.5.9 0 .42-.2.76-.5.94l-35.1 20.27c-.14.13-.36.17-.5.17" stroke="#000" stroke-opacity="0" fill="#3999c6"/><path d="M3675.04-367.54c-.18 0-.37-.06-.56-.12l-35.16-20.4c-.38-.2-.56-.5-.56-.88v-40.86c0-.38.18-.75.56-.94.3-.2.7-.2 1.04 0l35.2 20.4c.34.18.53.5.53.88v40.85c0 .37-.2.75-.53.94-.2.06-.34.12-.53.12M3685-367.54c-.18 0-.37-.06-.55-.12-.34-.2-.53-.57-.53-.95v-40.56c0-.38.2-.76.53-.95l35.2-20.38c.32-.2.73-.2 1.07 0 .3.2.52.57.52.95v40.55c0 .44-.2.76-.52.95l-35.2 20.37c-.14.06-.33.12-.5.12" stroke="#000" stroke-opacity="0" fill="#59b4d9"/><path d="M3685-367.54c-.18 0-.37-.06-.55-.12-.34-.2-.53-.57-.53-.95v-40.56c0-.38.2-.76.53-.95l35.2-20.38c.32-.2.73-.2 1.07 0 .3.2.52.57.52.95v40.55c0 .44-.2.76-.52.95l-35.2 20.37c-.14.06-.33.12-.5.12" stroke="#000" stroke-opacity="0" fill="#fff" fill-opacity=".5"/><path d="M3642.95-363c-.6 0-1.2-.2-1.75-.5l-16.44-9.5c-2.75-1.54-4.76-5.04-4.76-8.24v-60.52c0-3.2 2-6.7 4.76-8.25l16.44-9.5c1.67-.98 3.8-.4 4.76 1.25.98 1.65.4 3.78-1.27 4.75l-16.45 9.5c-.58.4-1.27 1.56-1.27 2.24v60.52c0 .68.7 1.85 1.27 2.24l16.44 9.5c1.66.97 2.24 3.1 1.26 4.75-.64 1.17-1.82 1.75-3 1.75zM3717.05-460c.6 0 1.2.2 1.75.5l16.44 9.5c2.75 1.54 4.76 5.04 4.76 8.24v60.52c0 3.2-2 6.7-4.76 8.25l-16.44 9.5c-1.67.98-3.8.4-4.76-1.25-.98-1.65-.4-3.78 1.27-4.75l16.45-9.5c.58-.4 1.27-1.56 1.27-2.24v-60.52c0-.68-.7-1.85-1.27-2.24l-16.44-9.5c-1.66-.97-2.24-3.1-1.26-4.75.64-1.17 1.82-1.75 3-1.75z" stroke="#000" stroke-opacity="0" fill="#7a7a7a"/><path d="M3642.68-457.86l74.4.1 18.6 13 1.02 66.1-20.97 13.77-73.05-.36-19.83-13.1s-.34-67.22.22-67.04c.46.28 19.6-12.46 19.6-12.46z" stroke="#000" stroke-opacity="0" stroke-width="0" fill-opacity="0"/><use xlink:href="#h" transform="matrix(1,0,0,1,3590,-354) translate(0 16.69921875)"/><path d="M4480.15-417.16c-.22 0-.36-.04-.58-.17l-35.32-20.4c-.3-.2-.5-.55-.5-.93 0-.4.2-.73.5-.9l35.1-20.3c.36-.18.72-.18 1.1 0l35.3 20.43c.3.17.5.55.5.9 0 .42-.2.76-.5.94l-35.1 20.27c-.14.13-.36.17-.5.17" stroke="#000" stroke-opacity="0" fill="#3999c6"/><path d="M4475.04-367.54c-.18 0-.37-.06-.56-.12l-35.16-20.4c-.38-.2-.56-.5-.56-.88v-40.86c0-.38.18-.75.56-.94.3-.2.7-.2 1.04 0l35.2 20.4c.34.18.53.5.53.88v40.85c0 .37-.2.75-.54.94-.18.06-.33.12-.52.12M4485-367.54c-.18 0-.37-.06-.55-.12-.34-.2-.53-.57-.53-.95v-40.56c0-.38.2-.76.53-.95l35.2-20.38c.32-.2.73-.2 1.07 0 .3.2.52.57.52.95v40.55c0 .44-.2.76-.52.95l-35.2 20.37c-.14.06-.33.12-.5.12" stroke="#000" stroke-opacity="0" fill="#59b4d9"/><path d="M4485-367.54c-.18 0-.37-.06-.55-.12-.34-.2-.53-.57-.53-.95v-40.56c0-.38.2-.76.53-.95l35.2-20.38c.32-.2.73-.2 1.07 0 .3.2.52.57.52.95v40.55c0 .44-.2.76-.52.95l-35.2 20.37c-.14.06-.33.12-.5.12" stroke="#000" stroke-opacity="0" fill="#fff" fill-opacity=".5"/><path d="M4442.94-363c-.6 0-1.18-.2-1.74-.5l-16.44-9.5c-2.75-1.54-4.76-5.04-4.76-8.24v-60.52c0-3.2 2-6.7 4.76-8.25l16.44-9.5c1.67-.98 3.8-.4 4.76 1.25.98 1.65.4 3.78-1.27 4.75l-16.45 9.5c-.58.4-1.27 1.56-1.27 2.24v60.52c0 .68.7 1.85 1.27 2.24l16.44 9.5c1.65.97 2.24 3.1 1.26 4.75-.64 1.17-1.82 1.75-3.02 1.75zM4517.06-460c.6 0 1.18.2 1.74.5l16.44 9.5c2.75 1.54 4.76 5.04 4.76 8.24v60.52c0 3.2-2 6.7-4.76 8.25l-16.44 9.5c-1.67.98-3.8.4-4.76-1.25-.98-1.65-.4-3.78 1.27-4.75l16.45-9.5c.58-.4 1.27-1.56 1.27-2.24v-60.52c0-.68-.7-1.85-1.27-2.24l-16.44-9.5c-1.65-.97-2.24-3.1-1.26-4.75.64-1.17 1.82-1.75 3.02-1.75z" stroke="#000" stroke-opacity="0" fill="#7a7a7a"/><path d="M4442.68-457.86l74.4.1 18.6 13 1 66.1-20.95 13.77-73.05-.36-19.83-13.1s-.35-67.22.22-67.04c.46.28 19.6-12.46 19.6-12.46z" stroke="#000" stroke-opacity="0" stroke-width="0" fill-opacity="0"/><use xlink:href="#i" transform="matrix(1,0,0,1,4390,-354) translate(0 16.69921875)"/><path d="M3713-713.2c5.33-5.28 5.33-13.92 0-19.2l-23.38-23.64c-5.33-5.28-13.9-5.28-19.24 0L3647-732.4c-5.33 5.28-5.33 13.92 0 19.2l20.57 20.76v39.96L3680-640l10.8-10.8v-.12l6.3-6.36-6.3-6.36 6.3-6.24-6.3-6.36 6.3-6.24-6.3-6.36v-1.92l22.2-22.44zm-33-37.08c4.3-.12 7.77 3.36 7.84 7.56.08 4.32-3.33 7.8-7.54 7.92h-.3c-4.3-.12-7.62-3.6-7.55-7.92.08-4.2 3.4-7.56 7.55-7.56z" stroke="#000" stroke-opacity="0" stroke-width="3" fill="#fcd116"/><path d="M3673.38-654.5l4.84 4.8v-38.28l-4.84-2.4z" stroke="#000" stroke-opacity="0" stroke-width="3" fill="#ff8c00" fill-opacity=".4"/><path d="M3657-727.32h44.5v6.43H3657zm0 10.45h44.5v6.44H3657z" stroke="#000" stroke-opacity="0" stroke-width="3" fill="#fff" fill-opacity=".5"/><use xlink:href="#j" transform="matrix(1,0,0,1,3613,-631) translate(21.25 14.4)"/><path d="M3620 145.02c-.12 1.28.96 2.57 3.24 3.56l48.84 19.93c4.32 1.8 11.52 1.8 15.84 0l48.84-19.92c2.28-1 3.36-2.28 3.24-3.56V133.6c.12 1.23-.96 2.52-3.24 3.47L3687.92 157c-4.32 1.8-11.52 1.8-15.84 0l-48.84-19.93c-2.52-1.06-3.6-2.5-3.12-3.85l-.12 11.8z" stroke="#000" stroke-opacity="0" fill="#ba141a"/><path d="M3736.76 130.57c4.32 1.77 4.32 4.72 0 6.5l-48.84 19.97c-4.32 1.77-11.52 1.77-15.84 0l-48.84-19.98c-4.32-1.77-4.32-4.72 0-6.5l48.84-19.97c4.32-1.78 11.52-1.78 15.84 0l48.84 19.97z" stroke="#000" stroke-opacity="0" fill="#ba141a"/><path d="M3620 124.83c-.12 1.28.96 2.56 3.24 3.55l48.84 19.94c4.32 1.8 11.52 1.8 15.84 0l48.84-19.94c2.28-1 3.36-2.27 3.24-3.55V113.4c.12 1.24-.96 2.52-3.24 3.47l-48.84 19.94c-4.32 1.8-11.52 1.8-15.84 0l-48.84-19.93c-2.52-1.06-3.6-2.5-3.12-3.84l-.12 11.8z" stroke="#000" stroke-opacity="0" fill="#ba141a"/><path d="M3736.76 110.38c4.32 1.77 4.32 4.7 0 6.48l-48.84 19.98c-4.32 1.77-11.52 1.77-15.84 0l-48.84-19.98c-4.32-1.77-4.32-4.72 0-6.48l48.84-20c4.32-1.76 11.52-1.76 15.84 0l48.84 20z" stroke="#000" stroke-opacity="0" fill="#ba141a"/><path d="M3620 104.63c-.12 1.28.96 2.57 3.24 3.56l48.84 19.92c4.32 1.8 11.52 1.8 15.84 0l48.84-19.93c2.28-1 3.36-2.3 3.24-3.57V93.2c.12 1.24-.96 2.53-3.24 3.48l-48.84 19.94c-4.32 1.8-11.52 1.8-15.84 0l-48.84-19.94c-2.52-1.06-3.6-2.5-3.12-3.85l-.12 11.8z" stroke="#000" stroke-opacity="0" fill="#ba141a"/><path d="M3620 145.02c-.12 1.28.96 2.57 3.24 3.56l48.84 19.93c4.32 1.8 11.52 1.8 15.84 0l48.84-19.92c2.28-1 3.36-2.28 3.24-3.56V133.6c.12 1.23-.96 2.52-3.24 3.47L3687.92 157c-4.32 1.8-11.52 1.8-15.84 0l-48.84-19.93c-2.52-1.06-3.6-2.5-3.12-3.85l-.12 11.8z" stroke="#000" stroke-opacity="0" fill="#93171b"/><path d="M3620 124.83c-.12 1.28.96 2.56 3.24 3.55l48.84 19.94c4.32 1.8 11.52 1.8 15.84 0l48.84-19.94c2.28-1 3.36-2.27 3.24-3.55V113.4c.12 1.24-.96 2.52-3.24 3.47l-48.84 19.94c-4.32 1.8-11.52 1.8-15.84 0l-48.84-19.93c-2.52-1.06-3.6-2.5-3.12-3.84l-.12 11.8z" stroke="#000" stroke-opacity="0" fill="#93171b"/><path d="M3620 104.63c-.12 1.28.96 2.57 3.24 3.56l48.84 19.92c4.32 1.8 11.52 1.8 15.84 0l48.84-19.93c2.28-1 3.36-2.3 3.24-3.57V93.2c.12 1.24-.96 2.53-3.24 3.48l-48.84 19.94c-4.32 1.8-11.52 1.8-15.84 0l-48.84-19.94c-2.52-1.06-3.6-2.5-3.12-3.85l-.12 11.8z" stroke="#000" stroke-opacity="0" fill="#93171b"/><path d="M3736.76 90.18c4.32 1.77 4.32 4.72 0 6.48l-48.84 20c-4.32 1.76-11.52 1.76-15.84 0l-48.84-20c-4.32-1.76-4.32-4.7 0-6.48l48.84-19.98c4.32-1.77 11.52-1.77 15.84 0l48.84 19.98z" stroke="#000" stroke-opacity="0" fill="#ba141a"/><path d="M3665 97.2c-5.6 2.46-14.6 2.46-20.2 0-5.55-2.5-5.55-6.5 0-8.98 5.6-2.46 14.6-2.46 20.2 0 5.54 2.5 5.54 6.5 0 8.97zM3661.2 103.55l28.55-3.4-7.65 12.68-20.9-9.28z" stroke="#000" stroke-opacity="0" fill="#fff"/><path d="M3705.94 100.36l-17.07-7.58 17.07-7.6v15.18z" stroke="#000" stroke-opacity="0" fill="#76191c"/><path d="M3674.53 83.5l-11.16-1 9.92-2.5-1.32-5 8.4 3.4 10.34-2.1-4.73 4.6 7.7 3.73-11.32-.58-5.6 4.4-2.25-4.95z" stroke="#000" stroke-opacity="0" fill="#fff"/><path d="M3723.02 92.78l-17.08-7.6v15.18l17.08-7.58z" fill="#93171b"/><use xlink:href="#k" transform="matrix(1,0,0,1,3590,178.87058518455314) translate(28.099999999999994 14.4)"/><use xlink:href="#l" transform="matrix(1,0,0,1,3590,178.87058518455314) translate(6.6499999999999915 36)"/><use xlink:href="#m" transform="matrix(1,0,0,1,3590,178.87058518455314) translate(64.55 36)"/><use xlink:href="#n" transform="matrix(1,0,0,1,3590,178.87058518455314) translate(121.5 36)"/><path d="M3620-82.52c0 2.35 1.92 4.52 4.32 4.52h111.12c2.4 0 4.56-1.92 4.56-4.52v-79.1h-120v79.1z" stroke="#000" stroke-opacity="0" fill="#a0a1a2"/><path d="M3735.44-180h-111.12c-2.4 0-4.32 2.14-4.32 4.54v13.62h120v-13.62c0-2.4-1.92-4.54-4.56-4.54" stroke="#000" stroke-opacity="0" fill="#7a7a7a"/><path d="M3628.88-153.5h48.96v31.07h-48.96v-31.06zM3628.88-118.13h48.96v31.05h-48.96v-31.05z" stroke="#000" stroke-opacity="0" fill="#0072c6"/><path d="M3682.16-153.5h48.72v31.07h-48.72v-31.06z" stroke="#000" stroke-opacity="0" fill="#fff"/><path d="M3682.16-118.13h48.72v31.05h-48.72v-31.05z" stroke="#000" stroke-opacity="0" fill="#0072c6"/><path d="M3624.8-180c-2.6 0-4.8 2.14-4.8 4.78v92.2c0 2.64 2.2 4.78 4.8 4.78h5.24l94.6-101.76h-99.83z" stroke="#000" stroke-opacity="0" fill="#fff" fill-opacity=".2"/><use xlink:href="#o" transform="matrix(1,0,0,1,3590,-69) translate(29.14999999999999 14.4)"/><use xlink:href="#p" transform="matrix(1,0,0,1,3590,-69) translate(32.099999999999994 36)"/><use xlink:href="#q" transform="matrix(1,0,0,1,3590,-69) translate(79 36)"/><path d="M2736.48-122.76c-10.92 8.4-22.68 12.36-36.36 12.36-18.12 0-36-8.16-47.76-23.52-20.16-26.28-15.12-63.96 11.16-84.12 10.92-8.4 23.76-12.36 36.48-12.36 18 0 35.88 8.16 47.64 23.52 20.16 26.28 15.12 63.96-11.16 84.12" stroke="#000" stroke-opacity="0" stroke-width="3" fill="#59b4d9"/><path d="M2725.46-159.9c4.35 5.7 12.4 6.75 18.06 2.4.33-.2.55-.42.76-.73 5.88 4.14 9.8 6.84 12.1 8.3.64-1.67 1.18-3.33 1.62-5.1-3.7-2.78-6.75-5.17-10.34-8.07 1.52-4.04 1.1-8.7-1.74-12.43-3.92-5.18-11-6.52-16.65-3.3-7.08-6.43-13.06-12.03-19.92-18.76 22.1-11.9 37.66-10.14 37.66-10.14-2.6-3.3-5.54-6.22-8.6-8.8-9.35-1.46-23.72-1.35-40.15 7.45-6.1-6.4-11.1-11.9-16.76-18.53-2.95.93-5.34 1.87-7.95 3.2 4.13 6.95 9.8 13.8 16.2 20.63-6.3 4.45-11.3 8.8-16.64 14.5-.75.72-1.4 1.45-2.06 2.17-3.37-.72-6.53-.52-9.9.73-5.33-11.8-4.9-21.24-4.14-26-2.28 2.38-4.46 5.07-6.42 7.77-1.4 5.8-1.85 14.2 2.4 24.23-5.12 6.63-5.12 15.44 0 21.96.43.63.87 1.14 1.3 1.56-2.07 7.25-3.15 13.57-3.48 21.02.54.83.54 1.45 1.1 2.18 2.93 3.73 6.52 6.84 10 9.63-.43-6.63 0-16.36 4.14-27.34 2.93.32 5.55-.1 8.38-1.34 1.52 1.35 3.04 2.8 4.78 4.14 5.77 4.56 11 7.88 17.53 11.2-.33 3.1.43 5.9 2.28 8.38 4.04 5.28 11.55 6.22 16.77 2.18 1.1-.83 1.96-1.66 2.72-2.9 9.24 2.07 17.4 2.48 23.5 2.48.87 0 5.22-5.9 7.73-9.53-3.7.84-14.7 2.3-29.6-1.96-.33-1.86-1-3.3-2.18-4.76-3.7-4.97-10.67-6-15.78-2.7-6.1-3.3-10.9-6.52-16.33-10.77-1.1-.92-2.07-1.75-3.15-2.68 3.47-5.7 3.8-12.22.75-18.13.65-.73 1.3-1.35 2.07-2.08 5.55-5.18 10.77-9.32 15.67-12.63l-.66-.64.65.63c7.4 6.93 15.33 13.45 22.84 19.35-1.96 4.15-1.63 9.33 1.42 13.26z" stroke="#000" stroke-opacity="0" stroke-width="3" fill="#fff"/><use xlink:href="#r" transform="matrix(1,0,0,1,2610,-101.39600231262506) translate(19.674999999999997 14.4)"/><use xlink:href="#s" transform="matrix(1,0,0,1,2610,-101.39600231262506) translate(35.599999999999994 36)"/><use xlink:href="#t" transform="matrix(1,0,0,1,2610,-101.39600231262506) translate(78.55 36)"/><path d="M2760.5-170.4h183.32" stroke="#666" fill="none"/><path d="M2760.5-169.92h-.5v-.95h.5z" stroke="#666" stroke-width=".05" fill="#666"/><path d="M2958.6-170.4l-14.28 4.64v-9.27z" stroke="#666" fill="#666"/><path d="M4440 176.1h120v67.3c0 2.2-1.8 4-3.96 4h-112.08c-2.16 0-3.96-1.8-3.96-4v-67.3z" stroke="#000" stroke-opacity="0" fill="url(#u)"/><path d="M4452.76 183.18h95.48c2.7 0 4.04 1.3 4.04 4v49.04c0 2.68-1.34 4-4.03 4h-95.5c-2.68 0-4.03-1.32-4.03-4v-49.05c0-2.68 1.35-4 4.04-4z" stroke="#000" stroke-opacity="0" fill="#5ea0ef" fill-opacity=".6"/><path d="M4443.96 150.4h112.08c2.16 0 3.96 1.8 3.96 4v21.7h-120v-21.67c0-2.24 1.8-4.04 3.96-4.04z" stroke="#000" stroke-opacity="0" fill="#005ba1"/><path d="M4487.4 227.2l-2.1 2.15c-.38.38-1.02.4-1.4.02v-.02l-15.5-15.66c-.75-.76-.75-2 0-2.77l2.17-2.14 16.82 17.02c.37.38.37 1 0 1.38zm24.37 0l2.1 2.15c.06 0 .06 0 .06.02.38.38.95.35 1.33-.02l15.5-15.66c.75-.76.75-2 0-2.77l-2.17-2.14-16.83 17.02c-.38.38-.38 1 0 1.38z" stroke="#000" stroke-opacity="0" fill="#fff" fill-opacity=".8"/><path d="M4485.55 195.1l2.16 2.16c.4.38.4 1 0 1.37l-17.13 17.24-2.16-2.17c-.75-.76-.75-1.98 0-2.74l15.82-15.87c.38-.4.95-.37 1.33 0zm28.06 0l-2.15 2.16c-.38.38-.38 1 0 1.37l17.2 17.24 2.1-2.15c.76-.78.76-2 0-2.76l-15.8-15.85c-.4-.37-.96-.37-1.34 0zM4494.4 234.83l-3.4-1.1c-.37-.1-.56-.52-.44-.9l13.9-43.7c.12-.38.47-.6.83-.47h.05l3.4 1.1c.36.1.56.47.47.8l-.02.04-13.93 43.82c-.1.37-.48.55-.82.4h-.04zM4461.1 164.35c0 2.8-2.28 5.1-5.05 5.1-2.8 0-5.08-2.3-5.08-5.1s2.27-5.1 5.08-5.1c2.77 0 5.04 2.3 5.04 5.1zm10.87-5.1c-2.77 0-5.04 2.3-5.04 5.1s2.27 5.1 5.04 5.1c2.8 0 5.08-2.3 5.08-5.1s-2.27-5.1-5.08-5.1zm15.92 0c-2.8 0-5.05 2.3-5.05 5.1s2.26 5.1 5.04 5.1c2.8 0 5.07-2.3 5.07-5.1 0-2.82-2.27-5.1-5.08-5.1z" stroke="#000" stroke-opacity="0" fill="#fff"/><use xlink:href="#v" transform="matrix(1,0,0,1,4410,256.39208424040135) translate(-5.274999999999977 14.4)"/><use xlink:href="#w" transform="matrix(1,0,0,1,4410,256.39208424040135) translate(38.574999999999996 36)"/><use xlink:href="#x" transform="matrix(1,0,0,1,4410,256.39208424040135) translate(94.475 36)"/><path d="M2700-109.9v70.14" stroke="#666" fill="none"/><path d="M2700.12-110.4h.36v.5h-.95v-.53z" stroke="#666" stroke-width=".05" fill="#666"/><path d="M2700-25l-4.64-14.27h9.28z" stroke="#666" fill="#666"/><path d="M2760.5-170.4h87.5a12 12 0 0 1 12 12V25.1a12 12 0 0 0 12 12h71.62" stroke="#666" fill="none"/><path d="M2760.5-169.92h-.5v-.95h.5z" stroke="#666" stroke-width=".05" fill="#666"/><path d="M2958.38 37.1l-14.26 4.62v-9.27z" stroke="#666" fill="#666"/><path d="M2700-230.9v-26.82a12 12 0 0 1 12-12h556a12 12 0 0 1 12 12V-141a12 12 0 0 0 12 12h311.62" stroke="#666" fill="none"/><path d="M2700.47-230.37l-.47-.03-.47.03v-.54h.94z" stroke="#666" stroke-width=".05" fill="#666"/><path d="M3618.38-129l-14.26 4.64v-9.27z" stroke="#666" fill="#666"/><path d="M2700-230.9v-27.5a12 12 0 0 1 12-12h556a12 12 0 0 1 12 12v365.77a12 12 0 0 0 12 12h311.67" stroke="#666" fill="none"/><path d="M2700.47-230.37l-.47-.03-.47.03v-.54h.94z" stroke="#666" stroke-width=".05" fill="#666"/><path d="M3618.44 119.37l-14.27 4.64v-9.27z" stroke="#666" fill="#666"/><path d="M2960-6.52v87.24c0 9 20.38 16.37 45.5 16.37V-6.53H2960z" stroke="#000" stroke-opacity="0" stroke-width="3" fill="#0072c6"/><path d="M3004.88 97.08h.64c25.1 0 45.48-7.35 45.48-16.36V-6.52h-46.12v103.6z" stroke="#000" stroke-opacity="0" stroke-width="3" fill="#0072c6"/><path d="M3004.88 97.08h.64c25.1 0 45.48-7.35 45.48-16.36V-6.52h-46.12v103.6z" stroke="#000" stroke-opacity="0" stroke-width="3" fill="#fff" fill-opacity=".15"/><path d="M3051-6.52c0 9.05-20.38 16.4-45.5 16.4S2960 2.52 2960-6.53c0-9.05 20.38-16.4 45.5-16.4s45.5 7.35 45.5 16.4" stroke="#000" stroke-opacity="0" stroke-width="3" fill="#fff"/><path d="M3041.7-7.46c0 5.97-16.22 10.8-36.2 10.8-19.98 0-36.2-4.83-36.2-10.8 0-5.97 16.22-10.82 36.2-10.82 19.98 0 36.2 4.85 36.2 10.82" stroke="#000" stroke-opacity="0" stroke-width="3" fill="#7fba00"/><path d="M3034.1-.85c4.78-1.83 7.6-4.12 7.6-6.6 0-5.98-16.22-10.83-36.2-10.83-19.98 0-36.2 4.85-36.2 10.82 0 2.5 2.83 4.78 7.6 6.6 6.6-2.56 16.94-4.2 28.6-4.2s22 1.64 28.6 4.2" stroke="#000" stroke-opacity="0" stroke-width="3" fill="#b8d432"/><path d="M2991.07 54.02c0 2.7-1 4.8-3 6.3-1.93 1.48-4.72 2.24-8.15 2.24-3 0-5.43-.54-7.43-1.6v-6.4c2.28 1.96 4.78 2.93 7.56 2.93 1.36 0 2.36-.3 3.08-.8.7-.55 1.07-1.23 1.07-2.14 0-.87-.28-1.6-1-2.24-.7-.65-2.14-1.45-4.28-2.46-4.36-2.06-6.57-4.85-6.57-8.36 0-2.57.93-4.63 2.85-6.18 1.93-1.56 4.43-2.32 7.65-2.32 2.8 0 5.07.36 6.93 1.1v5.96c-1.93-1.34-4.14-2-6.57-2-1.28 0-2.2.26-3 .8-.7.47-1.07 1.23-1.07 2.1 0 .9.3 1.63.93 2.2.57.6 1.72 1.3 3.58 2.14 2.64 1.27 4.57 2.57 5.7 3.87 1.15 1.3 1.72 2.9 1.72 4.85zm30.86-6.44c0 3.33-.8 6.26-2.3 8.72-1.56 2.5-3.7 4.2-6.5 5.2l8.37 7.68h-8.43l-5.93-6.62c-2.57-.1-4.86-.76-6.93-2.03-2-1.23-3.63-2.96-4.7-5.13-1.15-2.18-1.72-4.6-1.72-7.28 0-2.93.64-5.57 1.86-7.88 1.2-2.32 2.86-4.13 5.07-5.36 2.22-1.26 4.73-1.88 7.5-1.88 2.66 0 5.08.62 7.16 1.8 2.07 1.24 3.7 2.94 4.85 5.18 1.16 2.2 1.73 4.74 1.73 7.6zm-6.8.33c0-2.9-.63-5.17-1.92-6.83-1.2-1.7-3-2.53-5.2-2.53-2.22 0-4 .83-5.36 2.53-1.36 1.7-2 3.94-2 6.73 0 2.78.64 5.03 1.93 6.7 1.36 1.66 3.07 2.5 5.28 2.5 2.22 0 4-.8 5.3-2.44 1.35-1.63 2-3.83 2-6.65zm28.66 14.15h-17.1l.02-28.58h6.43v23.37h10.64z" stroke="#000" stroke-opacity="0" stroke-width="3" fill="#fff"/><use xlink:href="#y" transform="matrix(1,0,0,1,2930,106.08738339069521) translate(-9.799999999999983 14.4)"/><use xlink:href="#z" transform="matrix(1,0,0,1,2930,106.08738339069521) translate(10.900000000000006 36)"/><use xlink:href="#A" transform="matrix(1,0,0,1,2930,106.08738339069521) translate(57.2 36)"/><path d="M3680-639.5v163.14" stroke="#666" fill="none"/><path d="M3680-640l.47-.48v1h-.94v-1z" stroke="#666" stroke-width=".05" fill="#666"/><path d="M3680-461.6l-4.64-14.26h9.28z" stroke="#666" fill="#666"/><path d="M3659.58-700h-773.13a12 12 0 0 0-12 12v211.64" stroke="#666" fill="none"/><path d="M3660.55-699.52h-1v-.96h.06z" stroke="#666" stroke-width=".05" fill="#666"/><path d="M2874.45-461.6l-4.64-14.26h9.28z" stroke="#666" fill="#666"/><path d="M3700.45-700H4468a12 12 0 0 1 12 12v211.64" stroke="#666" fill="none"/><path d="M3700.46-699.52h-1l.95-.96h.06z" stroke="#666" stroke-width=".05" fill="#666"/><path d="M4480-461.6l-4.64-14.26h9.28z" stroke="#666" fill="#666"/><path d="M4356.48-130.46c-10.92 8.4-22.68 12.36-36.36 12.36-18.12 0-36-8.16-47.76-23.52-20.16-26.28-15.12-63.96 11.16-84.12 10.92-8.4 23.76-12.36 36.48-12.36 18 0 35.88 8.16 47.64 23.52 20.16 26.28 15.12 63.96-11.16 84.12" stroke="#000" stroke-opacity="0" stroke-width="3" fill="#59b4d9"/><path d="M4345.46-167.6c4.35 5.7 12.4 6.74 18.06 2.4.33-.22.55-.43.76-.74 5.88 4.15 9.8 6.84 12.1 8.3.64-1.67 1.18-3.33 1.62-5.1-3.7-2.78-6.75-5.16-10.34-8.06 1.52-4.04 1.1-8.7-1.74-12.44-3.92-5.17-11-6.52-16.65-3.3-7.08-6.43-13.06-12.03-19.92-18.76 22.1-11.9 37.66-10.15 37.66-10.15-2.6-3.3-5.54-6.2-8.6-8.8-9.35-1.45-23.72-1.35-40.15 7.46-6.1-6.42-11.1-11.9-16.76-18.54-2.95.94-5.34 1.87-7.95 3.22 4.13 6.94 9.8 13.77 16.2 20.6-6.3 4.46-11.3 8.8-16.64 14.5-.75.73-1.4 1.46-2.06 2.18-3.37-.72-6.53-.5-9.9.73-5.33-11.82-4.9-21.25-4.14-26-2.28 2.37-4.46 5.07-6.42 7.76-1.4 5.8-1.85 14.2 2.4 24.24-5.12 6.63-5.12 15.43 0 21.96.43.62.87 1.13 1.3 1.55-2.07 7.26-3.15 13.58-3.48 21.04.54.82.54 1.45 1.1 2.17 2.93 3.74 6.52 6.85 10 9.65-.43-6.63 0-16.37 4.14-27.35 2.93.3 5.55-.1 8.38-1.35 1.52 1.35 3.04 2.8 4.78 4.15 5.77 4.55 11 7.87 17.53 11.18-.33 3.1.43 5.9 2.28 8.4 4.04 5.28 11.55 6.2 16.77 2.17 1.1-.83 1.96-1.66 2.72-2.9 9.24 2.07 17.4 2.48 23.5 2.48.87 0 5.22-5.9 7.73-9.53-3.7.83-14.7 2.28-29.6-1.96-.33-1.87-.98-3.32-2.18-4.77-3.7-4.97-10.67-6-15.78-2.7-6.1-3.3-10.9-6.52-16.33-10.76-1.1-.93-2.07-1.76-3.15-2.7 3.47-5.68 3.8-12.2.75-18.1.65-.74 1.3-1.36 2.07-2.1 5.55-5.16 10.77-9.3 15.67-12.62-.23-.2-.45-.42-.66-.62l.65.62c7.4 6.94 15.33 13.46 22.84 19.37-1.96 4.14-1.63 9.32 1.42 13.26z" stroke="#000" stroke-opacity="0" stroke-width="3" fill="#fff"/><use xlink:href="#B" transform="matrix(1,0,0,1,4230,-109.10356889997013) translate(14.175000000000011 14.4)"/><use xlink:href="#s" transform="matrix(1,0,0,1,4230,-109.10356889997013) translate(35.599999999999994 36)"/><use xlink:href="#t" transform="matrix(1,0,0,1,4230,-109.10356889997013) translate(78.55 36)"/><path d="M4658.4-237.8c-16.42 0-30.07 13.63-30.07 30.02 0 13.62 8.72 24.58 20.2 28.34l-6.55 7.1 8.23 7.08-8.22 7.64 8.23 7.08-8.22 8.2 16.4 15.28 13.66-14.18v-39.86c9.86-5.42 16.4-15.28 16.4-27.24 0-16.38-13.64-29.45-30.05-29.45zm5.46 21.82s-1.08 0-1.62 1.1c0 0-1.14 1.12-1.68 1.12h-4.88l-1.14-1.1-1.08-1.67v-4.87l1.08-1.1 1.7-1.12h4.86l1.14 1.1 1.08 1.67v4.87z" stroke="#000" stroke-opacity="0" stroke-width="6.25" fill="#fcd116"/><path d="M4661.12-177.8v39.28l5.47-5.45v-34.9c-1.9.55-3.53.88-5.48 1.08z" stroke="#000" stroke-opacity="0" stroke-width="6.25" fill="#ff8c00" fill-opacity=".4"/><path d="M4658.4-188.7c9.67.1 17.74-6.8 19.12-16.36h-38.26c1.38 9.56 9.45 16.46 19.13 16.36z" stroke="#000" stroke-opacity="0" stroke-width="6.25" fill="#fff" fill-opacity=".4"/><path d="M4690.64-222.52c1.6 3.25 2.18 5.45 2.76 9.32 10.9 10.27 16.53 23.15 16.4 38.12 0 28.4-23.52 51.84-51.98 51.84-28.35 0-51.3-23.45-51.3-51.84-.13-14.97 5.38-27.85 16.3-38.12l3.32-9.32c-16.3 11-25.14 27.86-25.14 47.44 0 31.63 25.7 57.3 57.4 57.3 31.67 0 57.38-25.67 57.38-57.3 0-19.58-9.87-37.07-25.14-47.44z" stroke="#000" stroke-opacity="0" stroke-width="6.25" fill="#7fba00"/><path d="M4658.62-232.36c31.67 0 57.38 25.6 57.38 57.17S4690.3-118 4658.62-118c-31.68 0-57.4-25.6-57.4-57.17 0-31.55 25.72-57.16 57.4-57.16z" stroke="#000" stroke-opacity="0" stroke-width=".01" fill-opacity="0"/><use xlink:href="#C" transform="matrix(1,0,0,1,4571,-108.78968544802149) translate(-0.29999999999998295 14.4)"/><use xlink:href="#e" transform="matrix(1,0,0,1,4571,-108.78968544802149) translate(43.75 36)"/><use xlink:href="#f" transform="matrix(1,0,0,1,4571,-108.78968544802149) translate(85.7 36)"/><path d="M4306.67 71.65h25.37v8.17h-25.37zm7.9 25.44h9.33l7.92-8.4h-25.15z" stroke="#000" stroke-opacity="0" stroke-width="3" fill="#7a7a7a"/><path d="M4357.88 12.37v-.68c0-18.52-15.82-33.86-35.15-34.12-.47-.68-11.54.26-11.54.26-17.47 2.14-31.1 16.8-31.1 33.85 0 .42-1.88 13.87 11.76 25.18 6.16 5.48 12.63 20.4 13.64 24.68l.7 1.45 25.34.02.77-1.46c.95-4.3 7.65-19.2 13.65-24.42 13.65-11.57 11.93-24.25 11.93-24.77z" stroke="#000" stroke-opacity="0" stroke-width="3" fill="#68217a"/><path d="M4332.03 20.54l-4.06 25.44h-4.8v-25.2l.26-.5c9.1 0 7.88-8.36 7.88-8.36h-24.64v.72c0 1.9.72 7.9 8.4 7.9l-.02 25.44h-4.78l-1.2-6-3.12-19.44c-5.5 0-7.16-3.6-7.88-6.24v-3.36c0-6.7 7.66-7.43 7.66-7.43h26.3s8.4 1 8.4 8.42c-.25 0 0 8.62-8.4 8.62z" stroke="#000" stroke-opacity="0" stroke-width="3" fill="#fff"/><path d="M4357.92 16.47c.24-2.4 0-4.1 0-4.34v-.7c0-18.47-15.83-33.83-35.18-34.07-.54-.7-11.54.24-11.54.24-17.47 2.16-31.12 16.77-31.12 33.83 0 .23-.24 2.16 0 5.04h77.84z" stroke="#000" stroke-opacity="0" stroke-width="3" fill="#fff" fill-opacity=".15"/><path d="M4314.58 97.1l-7.9-8.44-.5-25.64-6.4-26.55-15.4-15.96 1.44-16.85 21-19.03 19.2-1.48 21.27 8.77 8.97 19.04-6.25 15.38-16.32 19.95-2.16 16.75.3 25.63-7.92 8.44z" stroke="#000" stroke-opacity="0" stroke-width="0" fill-opacity="0"/><use xlink:href="#D" transform="matrix(1,0,0,1,4250,106.08738339069521) translate(-16.774999999999977 14.4)"/><use xlink:href="#b" transform="matrix(1,0,0,1,4250,106.08738339069521) translate(22.099999999999994 36)"/><use xlink:href="#c" transform="matrix(1,0,0,1,4250,106.08738339069521) translate(35.05 57.6)"/><path d="M4620-15.34V71.9c0 9.02 20.38 16.37 45.5 16.37v-103.6H4620z" stroke="#000" stroke-opacity="0" stroke-width="3" fill="#0072c6"/><path d="M4664.88 88.27h.64c25.1 0 45.48-7.36 45.48-16.37v-87.24h-46.12v103.6z" stroke="#000" stroke-opacity="0" stroke-width="3" fill="#0072c6"/><path d="M4664.88 88.27h.64c25.1 0 45.48-7.36 45.48-16.37v-87.24h-46.12v103.6z" stroke="#000" stroke-opacity="0" stroke-width="3" fill="#fff" fill-opacity=".15"/><path d="M4711-15.34c0 9.05-20.38 16.4-45.5 16.4S4620-6.3 4620-15.34c0-9.05 20.38-16.4 45.5-16.4s45.5 7.35 45.5 16.4" stroke="#000" stroke-opacity="0" stroke-width="3" fill="#fff"/><path d="M4701.7-16.28c0 5.97-16.22 10.82-36.2 10.82-19.98 0-36.2-4.85-36.2-10.82 0-5.97 16.22-10.82 36.2-10.82 19.98 0 36.2 4.85 36.2 10.82" stroke="#000" stroke-opacity="0" stroke-width="3" fill="#7fba00"/><path d="M4694.1-9.67c4.78-1.83 7.6-4.1 7.6-6.6 0-5.98-16.22-10.82-36.2-10.82-19.98 0-36.2 4.85-36.2 10.83 0 2.5 2.83 4.77 7.6 6.6 6.6-2.56 16.95-4.2 28.6-4.2 11.66 0 22 1.64 28.6 4.2" stroke="#000" stroke-opacity="0" stroke-width="3" fill="#b8d432"/><path d="M4651.06 45.2c0 2.72-1 4.82-3 6.3-1.93 1.48-4.7 2.24-8.14 2.24-3 0-5.43-.54-7.43-1.6v-6.4c2.28 1.96 4.78 2.94 7.56 2.94 1.36 0 2.36-.3 3.07-.8.72-.54 1.08-1.23 1.08-2.13 0-.87-.28-1.6-1-2.25-.7-.65-2.14-1.44-4.28-2.46-4.36-2.06-6.57-4.84-6.57-8.35 0-2.58.92-4.64 2.85-6.2 1.93-1.56 4.43-2.32 7.65-2.32 2.78 0 5.07.37 6.93 1.1v5.96c-1.93-1.34-4.14-2-6.57-2-1.28 0-2.2.26-3 .8-.7.48-1.07 1.24-1.07 2.1 0 .9.3 1.63.93 2.2.57.6 1.72 1.3 3.57 2.14 2.65 1.27 4.58 2.57 5.72 3.88 1.14 1.3 1.7 2.9 1.7 4.84zm30.87-6.44c0 3.33-.8 6.26-2.3 8.72-1.56 2.5-3.7 4.2-6.5 5.2l8.37 7.68h-8.43l-5.93-6.62c-2.57-.1-4.86-.76-6.93-2.02-2-1.23-3.63-2.97-4.7-5.14-1.15-2.17-1.72-4.6-1.72-7.27 0-2.92.64-5.56 1.86-7.88 1.2-2.32 2.85-4.12 5.07-5.35 2.22-1.27 4.73-1.9 7.5-1.9 2.65 0 5.08.63 7.16 1.82 2.07 1.22 3.7 2.92 4.85 5.17 1.16 2.2 1.73 4.74 1.73 7.6zm-6.8.33c0-2.9-.63-5.18-1.92-6.85-1.2-1.7-3-2.53-5.2-2.53-2.22 0-4 .83-5.36 2.53-1.36 1.7-2 3.95-2 6.73 0 2.8.64 5.03 1.93 6.7 1.36 1.66 3.07 2.5 5.28 2.5 2.22 0 4-.8 5.3-2.43 1.35-1.63 2-3.84 2-6.66zm28.66 14.13h-17.1l.02-28.57h6.43v23.37h10.64z" stroke="#000" stroke-opacity="0" stroke-width="3" fill="#fff"/><use xlink:href="#E" transform="matrix(1,0,0,1,4590,97.27098278759604) translate(-16.274999999999977 14.4)"/><use xlink:href="#z" transform="matrix(1,0,0,1,4590,97.27098278759604) translate(10.900000000000006 36)"/><use xlink:href="#A" transform="matrix(1,0,0,1,4590,97.27098278759604) translate(57.2 36)"/><path d="M4320-117.6v46.7a.5.5 0 0 1-.5.5.5.5 0 0 0-.5.5v30.8" stroke="#666" fill="none"/><path d="M4320.12-118.1l.36-.02v.52h-.95v-.54z" stroke="#666" stroke-width=".05" fill="#666"/><path d="M4319-24.32l-4.64-14.27h9.28z" stroke="#666" fill="#666"/><path d="M4380.5-178.1h204.24" stroke="#666" fill="none"/><path d="M4380.5-177.63h-.52l.02-.6v-.35h.5z" stroke="#666" stroke-width=".05" fill="#666"/><path d="M4599.5-178.1l-14.26 4.63v-9.27z" stroke="#666" fill="#666"/><path d="M4380.5-178.1H4488a12 12 0 0 1 12 12V16.27a12 12 0 0 0 12 12h91.62" stroke="#666" fill="none"/><path d="M4380.5-177.63h-.52l.02-.6v-.35h.5z" stroke="#666" stroke-width=".05" fill="#666"/><path d="M4618.38 28.27l-14.26 4.64v-9.26z" stroke="#666" fill="#666"/><path d="M4320-238.6v-19.12a12 12 0 0 0-12-12h-216a12 12 0 0 0-12 12V-141a12 12 0 0 1-12 12h-311.62" stroke="#666" fill="none"/><path d="M4320.48-238.08l-.48-.02-.48.02v-.54h.95z" stroke="#666" stroke-width=".05" fill="#666"/><path d="M3741.62-129l14.26-4.63v9.27z" stroke="#666" fill="#666"/><path d="M4320-238.6v-19.12a12 12 0 0 0-12-12h-216a12 12 0 0 0-12 12v365.1a12 12 0 0 1-12 12h-311.62" stroke="#666" fill="none"/><path d="M4320.48-238.08l-.48-.02-.48.02v-.54h.95z" stroke="#666" stroke-width=".05" fill="#666"/><path d="M3741.62 119.37l14.26-4.64v9.28z" stroke="#666" fill="#666"/><path d="M4380.5-178.1H4488a12 12 0 0 1 12 12V134" stroke="#666" fill="none"/><path d="M4380.5-177.63h-.52l.02-.6v-.35h.5z" stroke="#666" stroke-width=".05" fill="#666"/><path d="M4500 148.77l-4.64-14.26h9.28z" stroke="#666" fill="#666"/><path d="M2480-800h2400V400H2480z" fill="#fff"/><path d="M2482.5-800c0 1.38-1.12 2.5-2.5 2.5s-2.5-1.12-2.5-2.5 1.12-2.5 2.5-2.5 2.5 1.12 2.5 2.5zm20 0c0 1.38-1.12 2.5-2.5 2.5s-2.5-1.12-2.5-2.5 1.12-2.5 2.5-2.5 2.5 1.12 2.5 2.5zm20 0c0 1.38-1.12 2.5-2.5 2.5s-2.5-1.12-2.5-2.5 1.12-2.5 2.5-2.5 2.5 1.12 2.5 2.5zm20 0c0 1.38-1.12 2.5-2.5 2.5s-2.5-1.12-2.5-2.5 1.12-2.5 2.5-2.5 2.5 1.12 2.5 2.5zm20 0c0 1.38-1.12 2.5-2.5 2.5s-2.5-1.12-2.5-2.5 1.12-2.5 2.5-2.5 2.5 1.12 2.5 2.5zm20 0c0 1.38-1.12 2.5-2.5 2.5s-2.5-1.12-2.5-2.5 1.12-2.5 2.5-2.5 2.5 1.12 2.5 2.5zm20 0c0 1.38-1.12 2.5-2.5 2.5s-2.5-1.12-2.5-2.5 1.12-2.5 2.5-2.5 2.5 1.12 2.5 2.5zm20 0c0 1.38-1.12 2.5-2.5 2.5s-2.5-1.12-2.5-2.5 1.12-2.5 2.5-2.5 2.5 1.12 2.5 2.5zm20 0c0 1.38-1.12 2.5-2.5 2.5s-2.5-1.12-2.5-2.5 1.12-2.5 2.5-2.5 2.5 1.12 2.5 2.5zm20 0c0 1.38-1.12 2.5-2.5 2.5s-2.5-1.12-2.5-2.5 1.12-2.5 2.5-2.5 2.5 1.12 2.5 2.5zm20 0c0 1.38-1.12 2.5-2.5 2.5s-2.5-1.12-2.5-2.5 1.12-2.5 2.5-2.5 2.5 1.12 2.5 2.5zm20 0c0 1.38-1.12 2.5-2.5 2.5s-2.5-1.12-2.5-2.5 1.12-2.5 2.5-2.5 2.5 1.12 2.5 2.5zm20 0c0 1.38-1.12 2.5-2.5 2.5s-2.5-1.12-2.5-2.5 1.12-2.5 2.5-2.5 2.5 1.12 2.5 2.5zm20 0c0 1.38-1.12 2.5-2.5 2.5s-2.5-1.12-2.5-2.5 1.12-2.5 2.5-2.5 2.5 1.12 2.5 2.5zm20 0c0 1.38-1.12 2.5-2.5 2.5s-2.5-1.12-2.5-2.5 1.12-2.5 2.5-2.5 2.5 1.12 2.5 2.5zm20 0c0 1.38-1.12 2.5-2.5 2.5s-2.5-1.12-2.5-2.5 1.12-2.5 2.5-2.5 2.5 1.12 2.5 2.5zm20 0c0 1.38-1.12 2.5-2.5 2.5s-2.5-1.12-2.5-2.5 1.12-2.5 2.5-2.5 2.5 1.12 2.5 2.5zm20 0c0 1.38-1.12 2.5-2.5 2.5s-2.5-1.12-2.5-2.5 1.12-2.5 2.5-2.5 2.5 1.12 2.5 2.5zm20 0c0 1.38-1.12 2.5-2.5 2.5s-2.5-1.12-2.5-2.5 1.12-2.5 2.5-2.5 2.5 1.12 2.5 2.5zm20 0c0 1.38-1.12 2.5-2.5 2.5s-2.5-1.12-2.5-2.5 1.12-2.5 2.5-2.5 2.5 1.12 2.5 2.5zm20 0c0 1.38-1.12 2.5-2.5 2.5s-2.5-1.12-2.5-2.5 1.12-2.5 2.5-2.5 2.5 1.12 2.5 2.5zm20 0c0 1.38-1.12 2.5-2.5 2.5s-2.5-1.12-2.5-2.5 1.12-2.5 2.5-2.5 2.5 1.12 2.5 2.5zm20 0c0 1.38-1.12 2.5-2.5 2.5s-2.5-1.12-2.5-2.5 1.12-2.5 2.5-2.5 2.5 1.12 2.5 2.5zm20 0c0 1.38-1.12 2.5-2.5 2.5s-2.5-1.12-2.5-2.5 1.12-2.5 2.5-2.5 2.5 1.12 2.5 2.5zm20 0c0 1.38-1.12 2.5-2.5 2.5s-2.5-1.12-2.5-2.5 1.12-2.5 2.5-2.5 2.5 1.12 2.5 2.5zm20 0c0 1.38-1.12 2.5-2.5 2.5s-2.5-1.12-2.5-2.5 1.12-2.5 2.5-2.5 2.5 1.12 2.5 2.5zm20 0c0 1.38-1.12 2.5-2.5 2.5s-2.5-1.12-2.5-2.5 1.12-2.5 2.5-2.5 2.5 1.12 2.5 2.5zm20 0c0 1.38-1.12 2.5-2.5 2.5s-2.5-1.12-2.5-2.5 1.12-2.5 2.5-2.5 2.5 1.12 2.5 2.5zm20 0c0 1.38-1.12 2.5-2.5 2.5s-2.5-1.12-2.5-2.5 1.12-2.5 2.5-2.5 2.5 1.12 2.5 2.5zm20 0c0 1.38-1.12 2.5-2.5 2.5s-2.5-1.12-2.5-2.5 1.12-2.5 2.5-2.5 2.5 1.12 2.5 2.5zm20 0c0 1.38-1.12 2.5-2.5 2.5s-2.5-1.12-2.5-2.5 1.12-2.5 2.5-2.5 2.5 1.12 2.5 2.5zm20 0c0 1.38-1.12 2.5-2.5 2.5s-2.5-1.12-2.5-2.5 1.12-2.5 2.5-2.5 2.5 1.12 2.5 2.5zm20 0c0 1.38-1.12 2.5-2.5 2.5s-2.5-1.12-2.5-2.5 1.12-2.5 2.5-2.5 2.5 1.12 2.5 2.5zm20 0c0 1.38-1.12 2.5-2.5 2.5s-2.5-1.12-2.5-2.5 1.12-2.5 2.5-2.5 2.5 1.12 2.5 2.5zm20 0c0 1.38-1.12 2.5-2.5 2.5s-2.5-1.12-2.5-2.5 1.12-2.5 2.5-2.5 2.5 1.12 2.5 2.5zm20 0c0 1.38-1.12 2.5-2.5 2.5s-2.5-1.12-2.5-2.5 1.12-2.5 2.5-2.5 2.5 1.12 2.5 2.5zm20 0c0 1.38-1.12 2.5-2.5 2.5s-2.5-1.12-2.5-2.5 1.12-2.5 2.5-2.5 2.5 1.12 2.5 2.5zm20 0c0 1.38-1.12 2.5-2.5 2.5s-2.5-1.12-2.5-2.5 1.12-2.5 2.5-2.5 2.5 1.12 2.5 2.5zm20 0c0 1.38-1.12 2.5-2.5 2.5s-2.5-1.12-2.5-2.5 1.12-2.5 2.5-2.5 2.5 1.12 2.5 2.5zm20 0c0 1.38-1.12 2.5-2.5 2.5s-2.5-1.12-2.5-2.5 1.12-2.5 2.5-2.5 2.5 1.12 2.5 2.5zm20 0c0 1.38-1.12 2.5-2.5 2.5s-2.5-1.12-2.5-2.5 1.12-2.5 2.5-2.5 2.5 1.12 2.5 2.5zm20 0c0 1.38-1.12 2.5-2.5 2.5s-2.5-1.12-2.5-2.5 1.12-2.5 2.5-2.5 2.5 1.12 2.5 2.5zm20 0c0 1.38-1.12 2.5-2.5 2.5s-2.5-1.12-2.5-2.5 1.12-2.5 2.5-2.5 2.5 1.12 2.5 2.5zm20 0c0 1.38-1.12 2.5-2.5 2.5s-2.5-1.12-2.5-2.5 1.12-2.5 2.5-2.5 2.5 1.12 2.5 2.5zm20 0c0 1.38-1.12 2.5-2.5 2.5s-2.5-1.12-2.5-2.5 1.12-2.5 2.5-2.5 2.5 1.12 2.5 2.5zm20 0c0 1.38-1.12 2.5-2.5 2.5s-2.5-1.12-2.5-2.5 1.12-2.5 2.5-2.5 2.5 1.12 2.5 2.5zm20 0c0 1.38-1.12 2.5-2.5 2.5s-2.5-1.12-2.5-2.5 1.12-2.5 2.5-2.5 2.5 1.12 2.5 2.5zm20 0c0 1.38-1.12 2.5-2.5 2.5s-2.5-1.12-2.5-2.5 1.12-2.5 2.5-2.5 2.5 1.12 2.5 2.5zm20 0c0 1.38-1.12 2.5-2.5 2.5s-2.5-1.12-2.5-2.5 1.12-2.5 2.5-2.5 2.5 1.12 2.5 2.5zm20 0c0 1.38-1.12 2.5-2.5 2.5s-2.5-1.12-2.5-2.5 1.12-2.5 2.5-2.5 2.5 1.12 2.5 2.5zm20 0c0 1.38-1.12 2.5-2.5 2.5s-2.5-1.12-2.5-2.5 1.12-2.5 2.5-2.5 2.5 1.12 2.5 2.5zm20 0c0 1.38-1.12 2.5-2.5 2.5s-2.5-1.12-2.5-2.5 1.12-2.5 2.5-2.5 2.5 1.12 2.5 2.5zm20 0c0 1.38-1.12 2.5-2.5 2.5s-2.5-1.12-2.5-2.5 1.12-2.5 2.5-2.5 2.5 1.12 2.5 2.5zm20 0c0 1.38-1.12 2.5-2.5 2.5s-2.5-1.12-2.5-2.5 1.12-2.5 2.5-2.5 2.5 1.12 2.5 2.5zm20 0c0 1.38-1.12 2.5-2.5 2.5s-2.5-1.12-2.5-2.5 1.12-2.5 2.5-2.5 2.5 1.12 2.5 2.5zm20 0c0 1.38-1.12 2.5-2.5 2.5s-2.5-1.12-2.5-2.5 1.12-2.5 2.5-2.5 2.5 1.12 2.5 2.5zm20 0c0 1.38-1.12 2.5-2.5 2.5s-2.5-1.12-2.5-2.5 1.12-2.5 2.5-2.5 2.5 1.12 2.5 2.5zm20 0c0 1.38-1.12 2.5-2.5 2.5s-2.5-1.12-2.5-2.5 1.12-2.5 2.5-2.5 2.5 1.12 2.5 2.5zm20 0c0 1.38-1.12 2.5-2.5 2.5s-2.5-1.12-2.5-2.5 1.12-2.5 2.5-2.5 2.5 1.12 2.5 2.5zm20 0c0 1.38-1.12 2.5-2.5 2.5s-2.5-1.12-2.5-2.5 1.12-2.5 2.5-2.5 2.5 1.12 2.5 2.5zm20 0c0 1.38-1.12 2.5-2.5 2.5s-2.5-1.12-2.5-2.5 1.12-2.5 2.5-2.5 2.5 1.12 2.5 2.5zm20 0c0 1.38-1.12 2.5-2.5 2.5s-2.5-1.12-2.5-2.5 1.12-2.5 2.5-2.5 2.5 1.12 2.5 2.5zm20 0c0 1.38-1.12 2.5-2.5 2.5s-2.5-1.12-2.5-2.5 1.12-2.5 2.5-2.5 2.5 1.12 2.5 2.5zm20 0c0 1.38-1.12 2.5-2.5 2.5s-2.5-1.12-2.5-2.5 1.12-2.5 2.5-2.5 2.5 1.12 2.5 2.5zm20 0c0 1.38-1.12 2.5-2.5 2.5s-2.5-1.12-2.5-2.5 1.12-2.5 2.5-2.5 2.5 1.12 2.5 2.5zm20 0c0 1.38-1.12 2.5-2.5 2.5s-2.5-1.12-2.5-2.5 1.12-2.5 2.5-2.5 2.5 1.12 2.5 2.5zm20 0c0 1.38-1.12 2.5-2.5 2.5s-2.5-1.12-2.5-2.5 1.12-2.5 2.5-2.5 2.5 1.12 2.5 2.5zm20 0c0 1.38-1.12 2.5-2.5 2.5s-2.5-1.12-2.5-2.5 1.12-2.5 2.5-2.5 2.5 1.12 2.5 2.5zm20 0c0 1.38-1.12 2.5-2.5 2.5s-2.5-1.12-2.5-2.5 1.12-2.5 2.5-2.5 2.5 1.12 2.5 2.5zm20 0c0 1.38-1.12 2.5-2.5 2.5s-2.5-1.12-2.5-2.5 1.12-2.5 2.5-2.5 2.5 1.12 2.5 2.5zm20 0c0 1.38-1.12 2.5-2.5 2.5s-2.5-1.12-2.5-2.5 1.12-2.5 2.5-2.5 2.5 1.12 2.5 2.5zm20 0c0 1.38-1.12 2.5-2.5 2.5s-2.5-1.12-2.5-2.5 1.12-2.5 2.5-2.5 2.5 1.12 2.5 2.5zm20 0c0 1.38-1.12 2.5-2.5 2.5s-2.5-1.12-2.5-2.5 1.12-2.5 2.5-2.5 2.5 1.12 2.5 2.5zm20 0c0 1.38-1.12 2.5-2.5 2.5s-2.5-1.12-2.5-2.5 1.12-2.5 2.5-2.5 2.5 1.12 2.5 2.5zm20 0c0 1.38-1.12 2.5-2.5 2.5s-2.5-1.12-2.5-2.5 1.12-2.5 2.5-2.5 2.5 1.12 2.5 2.5zm20 0c0 1.38-1.12 2.5-2.5 2.5s-2.5-1.12-2.5-2.5 1.12-2.5 2.5-2.5 2.5 1.12 2.5 2.5zm20 0c0 1.38-1.12 2.5-2.5 2.5s-2.5-1.12-2.5-2.5 1.12-2.5 2.5-2.5 2.5 1.12 2.5 2.5zm20 0c0 1.38-1.12 2.5-2.5 2.5s-2.5-1.12-2.5-2.5 1.12-2.5 2.5-2.5 2.5 1.12 2.5 2.5zm20 0c0 1.38-1.12 2.5-2.5 2.5s-2.5-1.12-2.5-2.5 1.12-2.5 2.5-2.5 2.5 1.12 2.5 2.5zm20 0c0 1.38-1.12 2.5-2.5 2.5s-2.5-1.12-2.5-2.5 1.12-2.5 2.5-2.5 2.5 1.12 2.5 2.5zm20 0c0 1.38-1.12 2.5-2.5 2.5s-2.5-1.12-2.5-2.5 1.12-2.5 2.5-2.5 2.5 1.12 2.5 2.5zm20 0c0 1.38-1.12 2.5-2.5 2.5s-2.5-1.12-2.5-2.5 1.12-2.5 2.5-2.5 2.5 1.12 2.5 2.5zm20 0c0 1.38-1.12 2.5-2.5 2.5s-2.5-1.12-2.5-2.5 1.12-2.5 2.5-2.5 2.5 1.12 2.5 2.5zm20 0c0 1.38-1.12 2.5-2.5 2.5s-2.5-1.12-2.5-2.5 1.12-2.5 2.5-2.5 2.5 1.12 2.5 2.5zm20 0c0 1.38-1.12 2.5-2.5 2.5s-2.5-1.12-2.5-2.5 1.12-2.5 2.5-2.5 2.5 1.12 2.5 2.5zm20 0c0 1.38-1.12 2.5-2.5 2.5s-2.5-1.12-2.5-2.5 1.12-2.5 2.5-2.5 2.5 1.12 2.5 2.5zm20 0c0 1.38-1.12 2.5-2.5 2.5s-2.5-1.12-2.5-2.5 1.12-2.5 2.5-2.5 2.5 1.12 2.5 2.5zm20 0c0 1.38-1.12 2.5-2.5 2.5s-2.5-1.12-2.5-2.5 1.12-2.5 2.5-2.5 2.5 1.12 2.5 2.5zm20 0c0 1.38-1.12 2.5-2.5 2.5s-2.5-1.12-2.5-2.5 1.12-2.5 2.5-2.5 2.5 1.12 2.5 2.5zm20 0c0 1.38-1.12 2.5-2.5 2.5s-2.5-1.12-2.5-2.5 1.12-2.5 2.5-2.5 2.5 1.12 2.5 2.5zm20 0c0 1.38-1.12 2.5-2.5 2.5s-2.5-1.12-2.5-2.5 1.12-2.5 2.5-2.5 2.5 1.12 2.5 2.5zm20 0c0 1.38-1.12 2.5-2.5 2.5s-2.5-1.12-2.5-2.5 1.12-2.5 2.5-2.5 2.5 1.12 2.5 2.5zm20 0c0 1.38-1.12 2.5-2.5 2.5s-2.5-1.12-2.5-2.5 1.12-2.5 2.5-2.5 2.5 1.12 2.5 2.5zm20 0c0 1.38-1.12 2.5-2.5 2.5s-2.5-1.12-2.5-2.5 1.12-2.5 2.5-2.5 2.5 1.12 2.5 2.5zm20 0c0 1.38-1.12 2.5-2.5 2.5s-2.5-1.12-2.5-2.5 1.12-2.5 2.5-2.5 2.5 1.12 2.5 2.5zm20 0c0 1.38-1.12 2.5-2.5 2.5s-2.5-1.12-2.5-2.5 1.12-2.5 2.5-2.5 2.5 1.12 2.5 2.5zm20 0c0 1.38-1.12 2.5-2.5 2.5s-2.5-1.12-2.5-2.5 1.12-2.5 2.5-2.5 2.5 1.12 2.5 2.5zm20 0c0 1.38-1.12 2.5-2.5 2.5s-2.5-1.12-2.5-2.5 1.12-2.5 2.5-2.5 2.5 1.12 2.5 2.5zm20 0c0 1.38-1.12 2.5-2.5 2.5s-2.5-1.12-2.5-2.5 1.12-2.5 2.5-2.5 2.5 1.12 2.5 2.5zm20 0c0 1.38-1.12 2.5-2.5 2.5s-2.5-1.12-2.5-2.5 1.12-2.5 2.5-2.5 2.5 1.12 2.5 2.5zm20 0c0 1.38-1.12 2.5-2.5 2.5s-2.5-1.12-2.5-2.5 1.12-2.5 2.5-2.5 2.5 1.12 2.5 2.5zm20 0c0 1.38-1.12 2.5-2.5 2.5s-2.5-1.12-2.5-2.5 1.12-2.5 2.5-2.5 2.5 1.12 2.5 2.5zm20 0c0 1.38-1.12 2.5-2.5 2.5s-2.5-1.12-2.5-2.5 1.12-2.5 2.5-2.5 2.5 1.12 2.5 2.5zm20 0c0 1.38-1.12 2.5-2.5 2.5s-2.5-1.12-2.5-2.5 1.12-2.5 2.5-2.5 2.5 1.12 2.5 2.5zm20 0c0 1.38-1.12 2.5-2.5 2.5s-2.5-1.12-2.5-2.5 1.12-2.5 2.5-2.5 2.5 1.12 2.5 2.5zm20 0c0 1.38-1.12 2.5-2.5 2.5s-2.5-1.12-2.5-2.5 1.12-2.5 2.5-2.5 2.5 1.12 2.5 2.5zm20 0c0 1.38-1.12 2.5-2.5 2.5s-2.5-1.12-2.5-2.5 1.12-2.5 2.5-2.5 2.5 1.12 2.5 2.5zm20 0c0 1.38-1.12 2.5-2.5 2.5s-2.5-1.12-2.5-2.5 1.12-2.5 2.5-2.5 2.5 1.12 2.5 2.5zm20 0c0 1.38-1.12 2.5-2.5 2.5s-2.5-1.12-2.5-2.5 1.12-2.5 2.5-2.5 2.5 1.12 2.5 2.5zm20 0c0 1.38-1.12 2.5-2.5 2.5s-2.5-1.12-2.5-2.5 1.12-2.5 2.5-2.5 2.5 1.12 2.5 2.5zm20 0c0 1.38-1.12 2.5-2.5 2.5s-2.5-1.12-2.5-2.5 1.12-2.5 2.5-2.5 2.5 1.12 2.5 2.5zm20 0c0 1.38-1.12 2.5-2.5 2.5s-2.5-1.12-2.5-2.5 1.12-2.5 2.5-2.5 2.5 1.12 2.5 2.5zm20 0c0 1.38-1.12 2.5-2.5 2.5s-2.5-1.12-2.5-2.5 1.12-2.5 2.5-2.5 2.5 1.12 2.5 2.5zm20 0c0 1.38-1.12 2.5-2.5 2.5s-2.5-1.12-2.5-2.5 1.12-2.5 2.5-2.5 2.5 1.12 2.5 2.5zm20 0c0 1.38-1.12 2.5-2.5 2.5s-2.5-1.12-2.5-2.5 1.12-2.5 2.5-2.5 2.5 1.12 2.5 2.5zm20 0c0 1.38-1.12 2.5-2.5 2.5s-2.5-1.12-2.5-2.5 1.12-2.5 2.5-2.5 2.5 1.12 2.5 2.5zm20 0c0 1.38-1.12 2.5-2.5 2.5s-2.5-1.12-2.5-2.5 1.12-2.5 2.5-2.5 2.5 1.12 2.5 2.5zm20 0c0 1.38-1.12 2.5-2.5 2.5s-2.5-1.12-2.5-2.5 1.12-2.5 2.5-2.5 2.5 1.12 2.5 2.5zm20 0c0 1.38-1.12 2.5-2.5 2.5s-2.5-1.12-2.5-2.5 1.12-2.5 2.5-2.5 2.5 1.12 2.5 2.5zm20 0c0 1.38-1.12 2.5-2.5 2.5s-2.5-1.12-2.5-2.5 1.12-2.5 2.5-2.5 2.5 1.12 2.5 2.5zm20 0c0 1.38-1.12 2.5-2.5 2.5s-2.5-1.12-2.5-2.5 1.12-2.5 2.5-2.5 2.5 1.12 2.5 2.5zm0 20c0 1.38-1.12 2.5-2.5 2.5s-2.5-1.12-2.5-2.5 1.12-2.5 2.5-2.5 2.5 1.12 2.5 2.5zm0 20c0 1.38-1.12 2.5-2.5 2.5s-2.5-1.12-2.5-2.5 1.12-2.5 2.5-2.5 2.5 1.12 2.5 2.5zm0 20c0 1.38-1.12 2.5-2.5 2.5s-2.5-1.12-2.5-2.5 1.12-2.5 2.5-2.5 2.5 1.12 2.5 2.5zm0 20c0 1.38-1.12 2.5-2.5 2.5s-2.5-1.12-2.5-2.5 1.12-2.5 2.5-2.5 2.5 1.12 2.5 2.5zm0 20c0 1.38-1.12 2.5-2.5 2.5s-2.5-1.12-2.5-2.5 1.12-2.5 2.5-2.5 2.5 1.12 2.5 2.5zm0 20c0 1.38-1.12 2.5-2.5 2.5s-2.5-1.12-2.5-2.5 1.12-2.5 2.5-2.5 2.5 1.12 2.5 2.5zm0 20c0 1.38-1.12 2.5-2.5 2.5s-2.5-1.12-2.5-2.5 1.12-2.5 2.5-2.5 2.5 1.12 2.5 2.5zm0 20c0 1.38-1.12 2.5-2.5 2.5s-2.5-1.12-2.5-2.5 1.12-2.5 2.5-2.5 2.5 1.12 2.5 2.5zm0 20c0 1.38-1.12 2.5-2.5 2.5s-2.5-1.12-2.5-2.5 1.12-2.5 2.5-2.5 2.5 1.12 2.5 2.5zm0 20c0 1.38-1.12 2.5-2.5 2.5s-2.5-1.12-2.5-2.5 1.12-2.5 2.5-2.5 2.5 1.12 2.5 2.5zm0 20c0 1.38-1.12 2.5-2.5 2.5s-2.5-1.12-2.5-2.5 1.12-2.5 2.5-2.5 2.5 1.12 2.5 2.5zm0 20c0 1.38-1.12 2.5-2.5 2.5s-2.5-1.12-2.5-2.5 1.12-2.5 2.5-2.5 2.5 1.12 2.5 2.5zm0 20c0 1.38-1.12 2.5-2.5 2.5s-2.5-1.12-2.5-2.5 1.12-2.5 2.5-2.5 2.5 1.12 2.5 2.5zm0 20c0 1.38-1.12 2.5-2.5 2.5s-2.5-1.12-2.5-2.5 1.12-2.5 2.5-2.5 2.5 1.12 2.5 2.5zm0 20c0 1.38-1.12 2.5-2.5 2.5s-2.5-1.12-2.5-2.5 1.12-2.5 2.5-2.5 2.5 1.12 2.5 2.5zm0 20c0 1.38-1.12 2.5-2.5 2.5s-2.5-1.12-2.5-2.5 1.12-2.5 2.5-2.5 2.5 1.12 2.5 2.5zm0 20c0 1.38-1.12 2.5-2.5 2.5s-2.5-1.12-2.5-2.5 1.12-2.5 2.5-2.5 2.5 1.12 2.5 2.5zm0 20c0 1.38-1.12 2.5-2.5 2.5s-2.5-1.12-2.5-2.5 1.12-2.5 2.5-2.5 2.5 1.12 2.5 2.5zm0 20c0 1.38-1.12 2.5-2.5 2.5s-2.5-1.12-2.5-2.5 1.12-2.5 2.5-2.5 2.5 1.12 2.5 2.5zm0 20c0 1.38-1.12 2.5-2.5 2.5s-2.5-1.12-2.5-2.5 1.12-2.5 2.5-2.5 2.5 1.12 2.5 2.5zm0 20c0 1.38-1.12 2.5-2.5 2.5s-2.5-1.12-2.5-2.5 1.12-2.5 2.5-2.5 2.5 1.12 2.5 2.5zm0 20c0 1.38-1.12 2.5-2.5 2.5s-2.5-1.12-2.5-2.5 1.12-2.5 2.5-2.5 2.5 1.12 2.5 2.5zm0 20c0 1.38-1.12 2.5-2.5 2.5s-2.5-1.12-2.5-2.5 1.12-2.5 2.5-2.5 2.5 1.12 2.5 2.5zm0 20c0 1.38-1.12 2.5-2.5 2.5s-2.5-1.12-2.5-2.5 1.12-2.5 2.5-2.5 2.5 1.12 2.5 2.5zm0 20c0 1.38-1.12 2.5-2.5 2.5s-2.5-1.12-2.5-2.5 1.12-2.5 2.5-2.5 2.5 1.12 2.5 2.5zm0 20c0 1.38-1.12 2.5-2.5 2.5s-2.5-1.12-2.5-2.5 1.12-2.5 2.5-2.5 2.5 1.12 2.5 2.5zm0 20c0 1.38-1.12 2.5-2.5 2.5s-2.5-1.12-2.5-2.5 1.12-2.5 2.5-2.5 2.5 1.12 2.5 2.5zm0 20c0 1.38-1.12 2.5-2.5 2.5s-2.5-1.12-2.5-2.5 1.12-2.5 2.5-2.5 2.5 1.12 2.5 2.5zm0 20c0 1.38-1.12 2.5-2.5 2.5s-2.5-1.12-2.5-2.5 1.12-2.5 2.5-2.5 2.5 1.12 2.5 2.5zm0 20c0 1.38-1.12 2.5-2.5 2.5s-2.5-1.12-2.5-2.5 1.12-2.5 2.5-2.5 2.5 1.12 2.5 2.5zm0 20c0 1.38-1.12 2.5-2.5 2.5s-2.5-1.12-2.5-2.5 1.12-2.5 2.5-2.5 2.5 1.12 2.5 2.5zm0 20c0 1.38-1.12 2.5-2.5 2.5s-2.5-1.12-2.5-2.5 1.12-2.5 2.5-2.5 2.5 1.12 2.5 2.5zm0 20c0 1.38-1.12 2.5-2.5 2.5s-2.5-1.12-2.5-2.5 1.12-2.5 2.5-2.5 2.5 1.12 2.5 2.5zm0 20c0 1.38-1.12 2.5-2.5 2.5s-2.5-1.12-2.5-2.5 1.12-2.5 2.5-2.5 2.5 1.12 2.5 2.5zm0 20c0 1.38-1.12 2.5-2.5 2.5s-2.5-1.12-2.5-2.5 1.12-2.5 2.5-2.5 2.5 1.12 2.5 2.5zm0 20c0 1.38-1.12 2.5-2.5 2.5s-2.5-1.12-2.5-2.5 1.12-2.5 2.5-2.5 2.5 1.12 2.5 2.5zm0 20c0 1.38-1.12 2.5-2.5 2.5s-2.5-1.12-2.5-2.5 1.12-2.5 2.5-2.5 2.5 1.12 2.5 2.5zm0 20c0 1.38-1.12 2.5-2.5 2.5s-2.5-1.12-2.5-2.5 1.12-2.5 2.5-2.5 2.5 1.12 2.5 2.5zm0 20c0 1.38-1.12 2.5-2.5 2.5s-2.5-1.12-2.5-2.5 1.12-2.5 2.5-2.5 2.5 1.12 2.5 2.5zm0 20c0 1.38-1.12 2.5-2.5 2.5s-2.5-1.12-2.5-2.5 1.12-2.5 2.5-2.5 2.5 1.12 2.5 2.5zm0 20c0 1.38-1.12 2.5-2.5 2.5s-2.5-1.12-2.5-2.5 1.12-2.5 2.5-2.5 2.5 1.12 2.5 2.5zm0 20c0 1.38-1.12 2.5-2.5 2.5s-2.5-1.12-2.5-2.5 1.12-2.5 2.5-2.5 2.5 1.12 2.5 2.5zm0 20c0 1.38-1.12 2.5-2.5 2.5s-2.5-1.12-2.5-2.5 1.12-2.5 2.5-2.5 2.5 1.12 2.5 2.5zm0 20c0 1.38-1.12 2.5-2.5 2.5s-2.5-1.12-2.5-2.5 1.12-2.5 2.5-2.5 2.5 1.12 2.5 2.5zm0 20c0 1.38-1.12 2.5-2.5 2.5s-2.5-1.12-2.5-2.5 1.12-2.5 2.5-2.5 2.5 1.12 2.5 2.5zm0 20c0 1.38-1.12 2.5-2.5 2.5s-2.5-1.12-2.5-2.5 1.12-2.5 2.5-2.5 2.5 1.12 2.5 2.5zm0 20c0 1.38-1.12 2.5-2.5 2.5s-2.5-1.12-2.5-2.5 1.12-2.5 2.5-2.5 2.5 1.12 2.5 2.5zm0 20c0 1.38-1.12 2.5-2.5 2.5s-2.5-1.12-2.5-2.5 1.12-2.5 2.5-2.5 2.5 1.12 2.5 2.5zm0 20c0 1.38-1.12 2.5-2.5 2.5s-2.5-1.12-2.5-2.5 1.12-2.5 2.5-2.5 2.5 1.12 2.5 2.5zm0 20c0 1.38-1.12 2.5-2.5 2.5s-2.5-1.12-2.5-2.5 1.12-2.5 2.5-2.5 2.5 1.12 2.5 2.5zm0 20c0 1.38-1.12 2.5-2.5 2.5s-2.5-1.12-2.5-2.5 1.12-2.5 2.5-2.5 2.5 1.12 2.5 2.5zm0 20c0 1.38-1.12 2.5-2.5 2.5s-2.5-1.12-2.5-2.5 1.12-2.5 2.5-2.5 2.5 1.12 2.5 2.5zm0 20c0 1.38-1.12 2.5-2.5 2.5s-2.5-1.12-2.5-2.5 1.12-2.5 2.5-2.5 2.5 1.12 2.5 2.5zm0 20c0 1.38-1.12 2.5-2.5 2.5s-2.5-1.12-2.5-2.5 1.12-2.5 2.5-2.5 2.5 1.12 2.5 2.5zm0 20c0 1.38-1.12 2.5-2.5 2.5s-2.5-1.12-2.5-2.5 1.12-2.5 2.5-2.5 2.5 1.12 2.5 2.5zm0 20c0 1.38-1.12 2.5-2.5 2.5s-2.5-1.12-2.5-2.5 1.12-2.5 2.5-2.5 2.5 1.12 2.5 2.5zm0 20c0 1.38-1.12 2.5-2.5 2.5s-2.5-1.12-2.5-2.5 1.12-2.5 2.5-2.5 2.5 1.12 2.5 2.5zm0 20c0 1.38-1.12 2.5-2.5 2.5s-2.5-1.12-2.5-2.5 1.12-2.5 2.5-2.5 2.5 1.12 2.5 2.5zm0 20c0 1.38-1.12 2.5-2.5 2.5s-2.5-1.12-2.5-2.5 1.12-2.5 2.5-2.5 2.5 1.12 2.5 2.5zm0 20c0 1.38-1.12 2.5-2.5 2.5s-2.5-1.12-2.5-2.5 1.12-2.5 2.5-2.5 2.5 1.12 2.5 2.5zm-20 0c0 1.38-1.12 2.5-2.5 2.5s-2.5-1.12-2.5-2.5 1.12-2.5 2.5-2.5 2.5 1.12 2.5 2.5zm-20 0c0 1.38-1.12 2.5-2.5 2.5s-2.5-1.12-2.5-2.5 1.12-2.5 2.5-2.5 2.5 1.12 2.5 2.5zm-20 0c0 1.38-1.12 2.5-2.5 2.5s-2.5-1.12-2.5-2.5 1.12-2.5 2.5-2.5 2.5 1.12 2.5 2.5zm-20 0c0 1.38-1.12 2.5-2.5 2.5s-2.5-1.12-2.5-2.5 1.12-2.5 2.5-2.5 2.5 1.12 2.5 2.5zm-20 0c0 1.38-1.12 2.5-2.5 2.5s-2.5-1.12-2.5-2.5 1.12-2.5 2.5-2.5 2.5 1.12 2.5 2.5zm-20 0c0 1.38-1.12 2.5-2.5 2.5s-2.5-1.12-2.5-2.5 1.12-2.5 2.5-2.5 2.5 1.12 2.5 2.5zm-20 0c0 1.38-1.12 2.5-2.5 2.5s-2.5-1.12-2.5-2.5 1.12-2.5 2.5-2.5 2.5 1.12 2.5 2.5zm-20 0c0 1.38-1.12 2.5-2.5 2.5s-2.5-1.12-2.5-2.5 1.12-2.5 2.5-2.5 2.5 1.12 2.5 2.5zm-20 0c0 1.38-1.12 2.5-2.5 2.5s-2.5-1.12-2.5-2.5 1.12-2.5 2.5-2.5 2.5 1.12 2.5 2.5zm-20 0c0 1.38-1.12 2.5-2.5 2.5s-2.5-1.12-2.5-2.5 1.12-2.5 2.5-2.5 2.5 1.12 2.5 2.5zm-20 0c0 1.38-1.12 2.5-2.5 2.5s-2.5-1.12-2.5-2.5 1.12-2.5 2.5-2.5 2.5 1.12 2.5 2.5zm-20 0c0 1.38-1.12 2.5-2.5 2.5s-2.5-1.12-2.5-2.5 1.12-2.5 2.5-2.5 2.5 1.12 2.5 2.5zm-20 0c0 1.38-1.12 2.5-2.5 2.5s-2.5-1.12-2.5-2.5 1.12-2.5 2.5-2.5 2.5 1.12 2.5 2.5zm-20 0c0 1.38-1.12 2.5-2.5 2.5s-2.5-1.12-2.5-2.5 1.12-2.5 2.5-2.5 2.5 1.12 2.5 2.5zm-20 0c0 1.38-1.12 2.5-2.5 2.5s-2.5-1.12-2.5-2.5 1.12-2.5 2.5-2.5 2.5 1.12 2.5 2.5zm-20 0c0 1.38-1.12 2.5-2.5 2.5s-2.5-1.12-2.5-2.5 1.12-2.5 2.5-2.5 2.5 1.12 2.5 2.5zm-20 0c0 1.38-1.12 2.5-2.5 2.5s-2.5-1.12-2.5-2.5 1.12-2.5 2.5-2.5 2.5 1.12 2.5 2.5zm-20 0c0 1.38-1.12 2.5-2.5 2.5s-2.5-1.12-2.5-2.5 1.12-2.5 2.5-2.5 2.5 1.12 2.5 2.5zm-20 0c0 1.38-1.12 2.5-2.5 2.5s-2.5-1.12-2.5-2.5 1.12-2.5 2.5-2.5 2.5 1.12 2.5 2.5zm-20 0c0 1.38-1.12 2.5-2.5 2.5s-2.5-1.12-2.5-2.5 1.12-2.5 2.5-2.5 2.5 1.12 2.5 2.5zm-20 0c0 1.38-1.12 2.5-2.5 2.5s-2.5-1.12-2.5-2.5 1.12-2.5 2.5-2.5 2.5 1.12 2.5 2.5zm-20 0c0 1.38-1.12 2.5-2.5 2.5s-2.5-1.12-2.5-2.5 1.12-2.5 2.5-2.5 2.5 1.12 2.5 2.5zm-20 0c0 1.38-1.12 2.5-2.5 2.5s-2.5-1.12-2.5-2.5 1.12-2.5 2.5-2.5 2.5 1.12 2.5 2.5zm-20 0c0 1.38-1.12 2.5-2.5 2.5s-2.5-1.12-2.5-2.5 1.12-2.5 2.5-2.5 2.5 1.12 2.5 2.5zm-20 0c0 1.38-1.12 2.5-2.5 2.5s-2.5-1.12-2.5-2.5 1.12-2.5 2.5-2.5 2.5 1.12 2.5 2.5zm-20 0c0 1.38-1.12 2.5-2.5 2.5s-2.5-1.12-2.5-2.5 1.12-2.5 2.5-2.5 2.5 1.12 2.5 2.5zm-20 0c0 1.38-1.12 2.5-2.5 2.5s-2.5-1.12-2.5-2.5 1.12-2.5 2.5-2.5 2.5 1.12 2.5 2.5zm-20 0c0 1.38-1.12 2.5-2.5 2.5s-2.5-1.12-2.5-2.5 1.12-2.5 2.5-2.5 2.5 1.12 2.5 2.5zm-20 0c0 1.38-1.12 2.5-2.5 2.5s-2.5-1.12-2.5-2.5 1.12-2.5 2.5-2.5 2.5 1.12 2.5 2.5zm-20 0c0 1.38-1.12 2.5-2.5 2.5s-2.5-1.12-2.5-2.5 1.12-2.5 2.5-2.5 2.5 1.12 2.5 2.5zm-20 0c0 1.38-1.12 2.5-2.5 2.5s-2.5-1.12-2.5-2.5 1.12-2.5 2.5-2.5 2.5 1.12 2.5 2.5zm-20 0c0 1.38-1.12 2.5-2.5 2.5s-2.5-1.12-2.5-2.5 1.12-2.5 2.5-2.5 2.5 1.12 2.5 2.5zm-20 0c0 1.38-1.12 2.5-2.5 2.5s-2.5-1.12-2.5-2.5 1.12-2.5 2.5-2.5 2.5 1.12 2.5 2.5zm-20 0c0 1.38-1.12 2.5-2.5 2.5s-2.5-1.12-2.5-2.5 1.12-2.5 2.5-2.5 2.5 1.12 2.5 2.5zm-20 0c0 1.38-1.12 2.5-2.5 2.5s-2.5-1.12-2.5-2.5 1.12-2.5 2.5-2.5 2.5 1.12 2.5 2.5zm-20 0c0 1.38-1.12 2.5-2.5 2.5s-2.5-1.12-2.5-2.5 1.12-2.5 2.5-2.5 2.5 1.12 2.5 2.5zm-20 0c0 1.38-1.12 2.5-2.5 2.5s-2.5-1.12-2.5-2.5 1.12-2.5 2.5-2.5 2.5 1.12 2.5 2.5zm-20 0c0 1.38-1.12 2.5-2.5 2.5s-2.5-1.12-2.5-2.5 1.12-2.5 2.5-2.5 2.5 1.12 2.5 2.5zm-20 0c0 1.38-1.12 2.5-2.5 2.5s-2.5-1.12-2.5-2.5 1.12-2.5 2.5-2.5 2.5 1.12 2.5 2.5zm-20 0c0 1.38-1.12 2.5-2.5 2.5s-2.5-1.12-2.5-2.5 1.12-2.5 2.5-2.5 2.5 1.12 2.5 2.5zm-20 0c0 1.38-1.12 2.5-2.5 2.5s-2.5-1.12-2.5-2.5 1.12-2.5 2.5-2.5 2.5 1.12 2.5 2.5zm-20 0c0 1.38-1.12 2.5-2.5 2.5s-2.5-1.12-2.5-2.5 1.12-2.5 2.5-2.5 2.5 1.12 2.5 2.5zm-20 0c0 1.38-1.12 2.5-2.5 2.5s-2.5-1.12-2.5-2.5 1.12-2.5 2.5-2.5 2.5 1.12 2.5 2.5zm-20 0c0 1.38-1.12 2.5-2.5 2.5s-2.5-1.12-2.5-2.5 1.12-2.5 2.5-2.5 2.5 1.12 2.5 2.5zm-20 0c0 1.38-1.12 2.5-2.5 2.5s-2.5-1.12-2.5-2.5 1.12-2.5 2.5-2.5 2.5 1.12 2.5 2.5zm-20 0c0 1.38-1.12 2.5-2.5 2.5s-2.5-1.12-2.5-2.5 1.12-2.5 2.5-2.5 2.5 1.12 2.5 2.5zm-20 0c0 1.38-1.12 2.5-2.5 2.5s-2.5-1.12-2.5-2.5 1.12-2.5 2.5-2.5 2.5 1.12 2.5 2.5zm-20 0c0 1.38-1.12 2.5-2.5 2.5s-2.5-1.12-2.5-2.5 1.12-2.5 2.5-2.5 2.5 1.12 2.5 2.5zm-20 0c0 1.38-1.12 2.5-2.5 2.5s-2.5-1.12-2.5-2.5 1.12-2.5 2.5-2.5 2.5 1.12 2.5 2.5zm-20 0c0 1.38-1.12 2.5-2.5 2.5s-2.5-1.12-2.5-2.5 1.12-2.5 2.5-2.5 2.5 1.12 2.5 2.5zm-20 0c0 1.38-1.12 2.5-2.5 2.5s-2.5-1.12-2.5-2.5 1.12-2.5 2.5-2.5 2.5 1.12 2.5 2.5zm-20 0c0 1.38-1.12 2.5-2.5 2.5s-2.5-1.12-2.5-2.5 1.12-2.5 2.5-2.5 2.5 1.12 2.5 2.5zm-20 0c0 1.38-1.12 2.5-2.5 2.5s-2.5-1.12-2.5-2.5 1.12-2.5 2.5-2.5 2.5 1.12 2.5 2.5zm-20 0c0 1.38-1.12 2.5-2.5 2.5s-2.5-1.12-2.5-2.5 1.12-2.5 2.5-2.5 2.5 1.12 2.5 2.5zm-20 0c0 1.38-1.12 2.5-2.5 2.5s-2.5-1.12-2.5-2.5 1.12-2.5 2.5-2.5 2.5 1.12 2.5 2.5zm-20 0c0 1.38-1.12 2.5-2.5 2.5s-2.5-1.12-2.5-2.5 1.12-2.5 2.5-2.5 2.5 1.12 2.5 2.5zm-20 0c0 1.38-1.12 2.5-2.5 2.5s-2.5-1.12-2.5-2.5 1.12-2.5 2.5-2.5 2.5 1.12 2.5 2.5zm-20 0c0 1.38-1.12 2.5-2.5 2.5s-2.5-1.12-2.5-2.5 1.12-2.5 2.5-2.5 2.5 1.12 2.5 2.5zm-20 0c0 1.38-1.12 2.5-2.5 2.5s-2.5-1.12-2.5-2.5 1.12-2.5 2.5-2.5 2.5 1.12 2.5 2.5zm-20 0c0 1.38-1.12 2.5-2.5 2.5s-2.5-1.12-2.5-2.5 1.12-2.5 2.5-2.5 2.5 1.12 2.5 2.5zm-20 0c0 1.38-1.12 2.5-2.5 2.5s-2.5-1.12-2.5-2.5 1.12-2.5 2.5-2.5 2.5 1.12 2.5 2.5zm-20 0c0 1.38-1.12 2.5-2.5 2.5s-2.5-1.12-2.5-2.5 1.12-2.5 2.5-2.5 2.5 1.12 2.5 2.5zm-20 0c0 1.38-1.12 2.5-2.5 2.5s-2.5-1.12-2.5-2.5 1.12-2.5 2.5-2.5 2.5 1.12 2.5 2.5zm-20 0c0 1.38-1.12 2.5-2.5 2.5s-2.5-1.12-2.5-2.5 1.12-2.5 2.5-2.5 2.5 1.12 2.5 2.5zm-20 0c0 1.38-1.12 2.5-2.5 2.5s-2.5-1.12-2.5-2.5 1.12-2.5 2.5-2.5 2.5 1.12 2.5 2.5zm-20 0c0 1.38-1.12 2.5-2.5 2.5s-2.5-1.12-2.5-2.5 1.12-2.5 2.5-2.5 2.5 1.12 2.5 2.5zm-20 0c0 1.38-1.12 2.5-2.5 2.5s-2.5-1.12-2.5-2.5 1.12-2.5 2.5-2.5 2.5 1.12 2.5 2.5zm-20 0c0 1.38-1.12 2.5-2.5 2.5s-2.5-1.12-2.5-2.5 1.12-2.5 2.5-2.5 2.5 1.12 2.5 2.5zm-20 0c0 1.38-1.12 2.5-2.5 2.5s-2.5-1.12-2.5-2.5 1.12-2.5 2.5-2.5 2.5 1.12 2.5 2.5zm-20 0c0 1.38-1.12 2.5-2.5 2.5s-2.5-1.12-2.5-2.5 1.12-2.5 2.5-2.5 2.5 1.12 2.5 2.5zm-20 0c0 1.38-1.12 2.5-2.5 2.5s-2.5-1.12-2.5-2.5 1.12-2.5 2.5-2.5 2.5 1.12 2.5 2.5zm-20 0c0 1.38-1.12 2.5-2.5 2.5s-2.5-1.12-2.5-2.5 1.12-2.5 2.5-2.5 2.5 1.12 2.5 2.5zm-20 0c0 1.38-1.12 2.5-2.5 2.5s-2.5-1.12-2.5-2.5 1.12-2.5 2.5-2.5 2.5 1.12 2.5 2.5zm-20 0c0 1.38-1.12 2.5-2.5 2.5s-2.5-1.12-2.5-2.5 1.12-2.5 2.5-2.5 2.5 1.12 2.5 2.5zm-20 0c0 1.38-1.12 2.5-2.5 2.5s-2.5-1.12-2.5-2.5 1.12-2.5 2.5-2.5 2.5 1.12 2.5 2.5zm-20 0c0 1.38-1.12 2.5-2.5 2.5s-2.5-1.12-2.5-2.5 1.12-2.5 2.5-2.5 2.5 1.12 2.5 2.5zm-20 0c0 1.38-1.12 2.5-2.5 2.5s-2.5-1.12-2.5-2.5 1.12-2.5 2.5-2.5 2.5 1.12 2.5 2.5zm-20 0c0 1.38-1.12 2.5-2.5 2.5s-2.5-1.12-2.5-2.5 1.12-2.5 2.5-2.5 2.5 1.12 2.5 2.5zm-20 0c0 1.38-1.12 2.5-2.5 2.5s-2.5-1.12-2.5-2.5 1.12-2.5 2.5-2.5 2.5 1.12 2.5 2.5zm-20 0c0 1.38-1.12 2.5-2.5 2.5s-2.5-1.12-2.5-2.5 1.12-2.5 2.5-2.5 2.5 1.12 2.5 2.5zm-20 0c0 1.38-1.12 2.5-2.5 2.5s-2.5-1.12-2.5-2.5 1.12-2.5 2.5-2.5 2.5 1.12 2.5 2.5zm-20 0c0 1.38-1.12 2.5-2.5 2.5s-2.5-1.12-2.5-2.5 1.12-2.5 2.5-2.5 2.5 1.12 2.5 2.5zm-20 0c0 1.38-1.12 2.5-2.5 2.5s-2.5-1.12-2.5-2.5 1.12-2.5 2.5-2.5 2.5 1.12 2.5 2.5zm-20 0c0 1.38-1.12 2.5-2.5 2.5s-2.5-1.12-2.5-2.5 1.12-2.5 2.5-2.5 2.5 1.12 2.5 2.5zm-20 0c0 1.38-1.12 2.5-2.5 2.5s-2.5-1.12-2.5-2.5 1.12-2.5 2.5-2.5 2.5 1.12 2.5 2.5zm-20 0c0 1.38-1.12 2.5-2.5 2.5s-2.5-1.12-2.5-2.5 1.12-2.5 2.5-2.5 2.5 1.12 2.5 2.5zm-20 0c0 1.38-1.12 2.5-2.5 2.5s-2.5-1.12-2.5-2.5 1.12-2.5 2.5-2.5 2.5 1.12 2.5 2.5zm-20 0c0 1.38-1.12 2.5-2.5 2.5s-2.5-1.12-2.5-2.5 1.12-2.5 2.5-2.5 2.5 1.12 2.5 2.5zm-20 0c0 1.38-1.12 2.5-2.5 2.5s-2.5-1.12-2.5-2.5 1.12-2.5 2.5-2.5 2.5 1.12 2.5 2.5zm-20 0c0 1.38-1.12 2.5-2.5 2.5s-2.5-1.12-2.5-2.5 1.12-2.5 2.5-2.5 2.5 1.12 2.5 2.5zm-20 0c0 1.38-1.12 2.5-2.5 2.5s-2.5-1.12-2.5-2.5 1.12-2.5 2.5-2.5 2.5 1.12 2.5 2.5zm-20 0c0 1.38-1.12 2.5-2.5 2.5s-2.5-1.12-2.5-2.5 1.12-2.5 2.5-2.5 2.5 1.12 2.5 2.5zm-20 0c0 1.38-1.12 2.5-2.5 2.5s-2.5-1.12-2.5-2.5 1.12-2.5 2.5-2.5 2.5 1.12 2.5 2.5zm-20 0c0 1.38-1.12 2.5-2.5 2.5s-2.5-1.12-2.5-2.5 1.12-2.5 2.5-2.5 2.5 1.12 2.5 2.5zm-20 0c0 1.38-1.12 2.5-2.5 2.5s-2.5-1.12-2.5-2.5 1.12-2.5 2.5-2.5 2.5 1.12 2.5 2.5zm-20 0c0 1.38-1.12 2.5-2.5 2.5s-2.5-1.12-2.5-2.5 1.12-2.5 2.5-2.5 2.5 1.12 2.5 2.5zm-20 0c0 1.38-1.12 2.5-2.5 2.5s-2.5-1.12-2.5-2.5 1.12-2.5 2.5-2.5 2.5 1.12 2.5 2.5zm-20 0c0 1.38-1.12 2.5-2.5 2.5s-2.5-1.12-2.5-2.5 1.12-2.5 2.5-2.5 2.5 1.12 2.5 2.5zm-20 0c0 1.38-1.12 2.5-2.5 2.5s-2.5-1.12-2.5-2.5 1.12-2.5 2.5-2.5 2.5 1.12 2.5 2.5zm-20 0c0 1.38-1.12 2.5-2.5 2.5s-2.5-1.12-2.5-2.5 1.12-2.5 2.5-2.5 2.5 1.12 2.5 2.5zm-20 0c0 1.38-1.12 2.5-2.5 2.5s-2.5-1.12-2.5-2.5 1.12-2.5 2.5-2.5 2.5 1.12 2.5 2.5zm-20 0c0 1.38-1.12 2.5-2.5 2.5s-2.5-1.12-2.5-2.5 1.12-2.5 2.5-2.5 2.5 1.12 2.5 2.5zm-20 0c0 1.38-1.12 2.5-2.5 2.5s-2.5-1.12-2.5-2.5 1.12-2.5 2.5-2.5 2.5 1.12 2.5 2.5zm-20 0c0 1.38-1.12 2.5-2.5 2.5s-2.5-1.12-2.5-2.5 1.12-2.5 2.5-2.5 2.5 1.12 2.5 2.5zm-20 0c0 1.38-1.12 2.5-2.5 2.5s-2.5-1.12-2.5-2.5 1.12-2.5 2.5-2.5 2.5 1.12 2.5 2.5zm-20 0c0 1.38-1.12 2.5-2.5 2.5s-2.5-1.12-2.5-2.5 1.12-2.5 2.5-2.5 2.5 1.12 2.5 2.5zm-20 0c0 1.38-1.12 2.5-2.5 2.5s-2.5-1.12-2.5-2.5 1.12-2.5 2.5-2.5 2.5 1.12 2.5 2.5zm-20 0c0 1.38-1.12 2.5-2.5 2.5s-2.5-1.12-2.5-2.5 1.12-2.5 2.5-2.5 2.5 1.12 2.5 2.5zm-20 0c0 1.38-1.12 2.5-2.5 2.5s-2.5-1.12-2.5-2.5 1.12-2.5 2.5-2.5 2.5 1.12 2.5 2.5zm-20 0c0 1.38-1.12 2.5-2.5 2.5s-2.5-1.12-2.5-2.5 1.12-2.5 2.5-2.5 2.5 1.12 2.5 2.5zm-20 0c0 1.38-1.12 2.5-2.5 2.5s-2.5-1.12-2.5-2.5 1.12-2.5 2.5-2.5 2.5 1.12 2.5 2.5zm-20 0c0 1.38-1.12 2.5-2.5 2.5s-2.5-1.12-2.5-2.5 1.12-2.5 2.5-2.5 2.5 1.12 2.5 2.5zm-20 0c0 1.38-1.12 2.5-2.5 2.5s-2.5-1.12-2.5-2.5 1.12-2.5 2.5-2.5 2.5 1.12 2.5 2.5zm-20 0c0 1.38-1.12 2.5-2.5 2.5s-2.5-1.12-2.5-2.5 1.12-2.5 2.5-2.5 2.5 1.12 2.5 2.5zm-20 0c0 1.38-1.12 2.5-2.5 2.5s-2.5-1.12-2.5-2.5 1.12-2.5 2.5-2.5 2.5 1.12 2.5 2.5zm-20 0c0 1.38-1.12 2.5-2.5 2.5s-2.5-1.12-2.5-2.5 1.12-2.5 2.5-2.5 2.5 1.12 2.5 2.5zm-20 0c0 1.38-1.12 2.5-2.5 2.5s-2.5-1.12-2.5-2.5 1.12-2.5 2.5-2.5 2.5 1.12 2.5 2.5zm-20 0c0 1.38-1.12 2.5-2.5 2.5s-2.5-1.12-2.5-2.5 1.12-2.5 2.5-2.5 2.5 1.12 2.5 2.5zm-20 0c0 1.38-1.12 2.5-2.5 2.5s-2.5-1.12-2.5-2.5 1.12-2.5 2.5-2.5 2.5 1.12 2.5 2.5zm-20 0c0 1.38-1.12 2.5-2.5 2.5s-2.5-1.12-2.5-2.5 1.12-2.5 2.5-2.5 2.5 1.12 2.5 2.5zm0-20c0 1.38-1.12 2.5-2.5 2.5s-2.5-1.12-2.5-2.5 1.12-2.5 2.5-2.5 2.5 1.12 2.5 2.5zm0-20c0 1.38-1.12 2.5-2.5 2.5s-2.5-1.12-2.5-2.5 1.12-2.5 2.5-2.5 2.5 1.12 2.5 2.5zm0-20c0 1.38-1.12 2.5-2.5 2.5s-2.5-1.12-2.5-2.5 1.12-2.5 2.5-2.5 2.5 1.12 2.5 2.5zm0-20c0 1.38-1.12 2.5-2.5 2.5s-2.5-1.12-2.5-2.5 1.12-2.5 2.5-2.5 2.5 1.12 2.5 2.5zm0-20c0 1.38-1.12 2.5-2.5 2.5s-2.5-1.12-2.5-2.5 1.12-2.5 2.5-2.5 2.5 1.12 2.5 2.5zm0-20c0 1.38-1.12 2.5-2.5 2.5s-2.5-1.12-2.5-2.5 1.12-2.5 2.5-2.5 2.5 1.12 2.5 2.5zm0-20c0 1.38-1.12 2.5-2.5 2.5s-2.5-1.12-2.5-2.5 1.12-2.5 2.5-2.5 2.5 1.12 2.5 2.5zm0-20c0 1.38-1.12 2.5-2.5 2.5s-2.5-1.12-2.5-2.5 1.12-2.5 2.5-2.5 2.5 1.12 2.5 2.5zm0-20c0 1.38-1.12 2.5-2.5 2.5s-2.5-1.12-2.5-2.5 1.12-2.5 2.5-2.5 2.5 1.12 2.5 2.5zm0-20c0 1.38-1.12 2.5-2.5 2.5s-2.5-1.12-2.5-2.5 1.12-2.5 2.5-2.5 2.5 1.12 2.5 2.5zm0-20c0 1.38-1.12 2.5-2.5 2.5s-2.5-1.12-2.5-2.5 1.12-2.5 2.5-2.5 2.5 1.12 2.5 2.5zm0-20c0 1.38-1.12 2.5-2.5 2.5s-2.5-1.12-2.5-2.5 1.12-2.5 2.5-2.5 2.5 1.12 2.5 2.5zm0-20c0 1.38-1.12 2.5-2.5 2.5s-2.5-1.12-2.5-2.5 1.12-2.5 2.5-2.5 2.5 1.12 2.5 2.5zm0-20c0 1.38-1.12 2.5-2.5 2.5s-2.5-1.12-2.5-2.5 1.12-2.5 2.5-2.5 2.5 1.12 2.5 2.5zm0-20c0 1.38-1.12 2.5-2.5 2.5s-2.5-1.12-2.5-2.5 1.12-2.5 2.5-2.5 2.5 1.12 2.5 2.5zm0-20c0 1.38-1.12 2.5-2.5 2.5s-2.5-1.12-2.5-2.5 1.12-2.5 2.5-2.5 2.5 1.12 2.5 2.5zm0-20c0 1.38-1.12 2.5-2.5 2.5s-2.5-1.12-2.5-2.5 1.12-2.5 2.5-2.5 2.5 1.12 2.5 2.5zm0-20c0 1.38-1.12 2.5-2.5 2.5s-2.5-1.12-2.5-2.5 1.12-2.5 2.5-2.5 2.5 1.12 2.5 2.5zm0-20c0 1.38-1.12 2.5-2.5 2.5s-2.5-1.12-2.5-2.5 1.12-2.5 2.5-2.5 2.5 1.12 2.5 2.5zm0-20c0 1.38-1.12 2.5-2.5 2.5s-2.5-1.12-2.5-2.5 1.12-2.5 2.5-2.5 2.5 1.12 2.5 2.5zm0-20c0 1.38-1.12 2.5-2.5 2.5s-2.5-1.12-2.5-2.5 1.12-2.5 2.5-2.5 2.5 1.12 2.5 2.5zm0-20c0 1.38-1.12 2.5-2.5 2.5s-2.5-1.12-2.5-2.5 1.12-2.5 2.5-2.5 2.5 1.12 2.5 2.5zm0-20c0 1.38-1.12 2.5-2.5 2.5s-2.5-1.12-2.5-2.5 1.12-2.5 2.5-2.5 2.5 1.12 2.5 2.5zm0-20c0 1.38-1.12 2.5-2.5 2.5s-2.5-1.12-2.5-2.5 1.12-2.5 2.5-2.5 2.5 1.12 2.5 2.5zm0-20c0 1.38-1.12 2.5-2.5 2.5s-2.5-1.12-2.5-2.5 1.12-2.5 2.5-2.5 2.5 1.12 2.5 2.5zm0-20c0 1.38-1.12 2.5-2.5 2.5s-2.5-1.12-2.5-2.5 1.12-2.5 2.5-2.5 2.5 1.12 2.5 2.5zm0-20c0 1.38-1.12 2.5-2.5 2.5s-2.5-1.12-2.5-2.5 1.12-2.5 2.5-2.5 2.5 1.12 2.5 2.5zm0-20c0 1.38-1.12 2.5-2.5 2.5s-2.5-1.12-2.5-2.5 1.12-2.5 2.5-2.5 2.5 1.12 2.5 2.5zm0-20c0 1.38-1.12 2.5-2.5 2.5s-2.5-1.12-2.5-2.5 1.12-2.5 2.5-2.5 2.5 1.12 2.5 2.5zm0-20c0 1.38-1.12 2.5-2.5 2.5s-2.5-1.12-2.5-2.5 1.12-2.5 2.5-2.5 2.5 1.12 2.5 2.5zm0-20c0 1.38-1.12 2.5-2.5 2.5s-2.5-1.12-2.5-2.5 1.12-2.5 2.5-2.5 2.5 1.12 2.5 2.5zm0-20c0 1.38-1.12 2.5-2.5 2.5s-2.5-1.12-2.5-2.5 1.12-2.5 2.5-2.5 2.5 1.12 2.5 2.5zm0-20c0 1.38-1.12 2.5-2.5 2.5s-2.5-1.12-2.5-2.5 1.12-2.5 2.5-2.5 2.5 1.12 2.5 2.5zm0-20c0 1.38-1.12 2.5-2.5 2.5s-2.5-1.12-2.5-2.5 1.12-2.5 2.5-2.5 2.5 1.12 2.5 2.5zm0-20c0 1.38-1.12 2.5-2.5 2.5s-2.5-1.12-2.5-2.5 1.12-2.5 2.5-2.5 2.5 1.12 2.5 2.5zm0-20c0 1.38-1.12 2.5-2.5 2.5s-2.5-1.12-2.5-2.5 1.12-2.5 2.5-2.5 2.5 1.12 2.5 2.5zm0-20c0 1.38-1.12 2.5-2.5 2.5s-2.5-1.12-2.5-2.5 1.12-2.5 2.5-2.5 2.5 1.12 2.5 2.5zm0-20c0 1.38-1.12 2.5-2.5 2.5s-2.5-1.12-2.5-2.5 1.12-2.5 2.5-2.5 2.5 1.12 2.5 2.5zm0-20c0 1.38-1.12 2.5-2.5 2.5s-2.5-1.12-2.5-2.5 1.12-2.5 2.5-2.5 2.5 1.12 2.5 2.5zm0-20c0 1.38-1.12 2.5-2.5 2.5s-2.5-1.12-2.5-2.5 1.12-2.5 2.5-2.5 2.5 1.12 2.5 2.5zm0-20c0 1.38-1.12 2.5-2.5 2.5s-2.5-1.12-2.5-2.5 1.12-2.5 2.5-2.5 2.5 1.12 2.5 2.5zm0-20c0 1.38-1.12 2.5-2.5 2.5s-2.5-1.12-2.5-2.5 1.12-2.5 2.5-2.5 2.5 1.12 2.5 2.5zm0-20c0 1.38-1.12 2.5-2.5 2.5s-2.5-1.12-2.5-2.5 1.12-2.5 2.5-2.5 2.5 1.12 2.5 2.5zm0-20c0 1.38-1.12 2.5-2.5 2.5s-2.5-1.12-2.5-2.5 1.12-2.5 2.5-2.5 2.5 1.12 2.5 2.5zm0-20c0 1.38-1.12 2.5-2.5 2.5s-2.5-1.12-2.5-2.5 1.12-2.5 2.5-2.5 2.5 1.12 2.5 2.5zm0-20c0 1.38-1.12 2.5-2.5 2.5s-2.5-1.12-2.5-2.5 1.12-2.5 2.5-2.5 2.5 1.12 2.5 2.5zm0-20c0 1.38-1.12 2.5-2.5 2.5s-2.5-1.12-2.5-2.5 1.12-2.5 2.5-2.5 2.5 1.12 2.5 2.5zm0-20c0 1.38-1.12 2.5-2.5 2.5s-2.5-1.12-2.5-2.5 1.12-2.5 2.5-2.5 2.5 1.12 2.5 2.5zm0-20c0 1.38-1.12 2.5-2.5 2.5s-2.5-1.12-2.5-2.5 1.12-2.5 2.5-2.5 2.5 1.12 2.5 2.5zm0-20c0 1.38-1.12 2.5-2.5 2.5s-2.5-1.12-2.5-2.5 1.12-2.5 2.5-2.5 2.5 1.12 2.5 2.5zm0-20c0 1.38-1.12 2.5-2.5 2.5s-2.5-1.12-2.5-2.5 1.12-2.5 2.5-2.5 2.5 1.12 2.5 2.5zm0-20c0 1.38-1.12 2.5-2.5 2.5s-2.5-1.12-2.5-2.5 1.12-2.5 2.5-2.5 2.5 1.12 2.5 2.5zm0-20c0 1.38-1.12 2.5-2.5 2.5s-2.5-1.12-2.5-2.5 1.12-2.5 2.5-2.5 2.5 1.12 2.5 2.5zm0-20c0 1.38-1.12 2.5-2.5 2.5s-2.5-1.12-2.5-2.5 1.12-2.5 2.5-2.5 2.5 1.12 2.5 2.5zm0-20c0 1.38-1.12 2.5-2.5 2.5s-2.5-1.12-2.5-2.5 1.12-2.5 2.5-2.5 2.5 1.12 2.5 2.5zm0-20c0 1.38-1.12 2.5-2.5 2.5s-2.5-1.12-2.5-2.5 1.12-2.5 2.5-2.5 2.5 1.12 2.5 2.5zm0-20c0 1.38-1.12 2.5-2.5 2.5s-2.5-1.12-2.5-2.5 1.12-2.5 2.5-2.5 2.5 1.12 2.5 2.5zm0-20c0 1.38-1.12 2.5-2.5 2.5s-2.5-1.12-2.5-2.5 1.12-2.5 2.5-2.5 2.5 1.12 2.5 2.5zm0-20c0 1.38-1.12 2.5-2.5 2.5s-2.5-1.12-2.5-2.5 1.12-2.5 2.5-2.5 2.5 1.12 2.5 2.5zm0-20c0 1.38-1.12 2.5-2.5 2.5s-2.5-1.12-2.5-2.5 1.12-2.5 2.5-2.5 2.5 1.12 2.5 2.5z" fill="#0078d7"/><defs><path d="M96-169c-40 0-48 33-48 73s9 75 48 75c24 0 41-14 43-38l32 2c-6 37-31 61-74 61-59 0-76-41-82-99-10-93 101-131 147-64 4 7 5 14 7 22l-32 3c-4-21-16-35-41-35" id="F"/><path d="M141-36C126-15 110 5 73 4 37 3 15-17 15-53c-1-64 63-63 125-63 3-35-9-54-41-54-24 1-41 7-42 31l-33-3c5-37 33-52 76-52 45 0 72 20 72 64v82c-1 20 7 32 28 27v20c-31 9-61-2-59-35zM48-53c0 20 12 33 32 33 41-3 63-29 60-74-43 2-92-5-92 41" id="G"/><path d="M114-163C36-179 61-72 57 0H25l-1-190h30c1 12-1 29 2 39 6-27 23-49 58-41v29" id="H"/><path d="M100-194c63 0 86 42 84 106H49c0 40 14 67 53 68 26 1 43-12 49-29l28 8c-11 28-37 45-77 45C44 4 14-33 15-96c1-61 26-98 85-98zm52 81c6-60-76-77-97-28-3 7-6 17-6 28h103" id="I"/><path d="M117-194c89-4 53 116 60 194h-32v-121c0-31-8-49-39-48C34-167 62-67 57 0H25l-1-190h30c1 10-1 24 2 32 11-22 29-35 61-36" id="J"/><path d="M59-47c-2 24 18 29 38 22v24C64 9 27 4 27-40v-127H5v-23h24l9-43h21v43h35v23H59v120" id="K"/><path d="M24 0v-261h32V0H24" id="L"/><path d="M16-82v-28h88v28H16" id="M"/><path d="M115-194c55 1 70 41 70 98S169 2 115 4C84 4 66-9 55-30l1 105H24l-1-265h31l2 30c10-21 28-34 59-34zm-8 174c40 0 45-34 45-75s-6-73-45-74c-42 0-51 32-51 76 0 43 10 73 51 73" id="N"/><path d="M100-194c62-1 85 37 85 99 1 63-27 99-86 99S16-35 15-95c0-66 28-99 85-99zM99-20c44 1 53-31 53-75 0-43-8-75-51-75s-53 32-53 75 10 74 51 75" id="O"/><path d="M108 0H70L1-190h34L89-25l56-165h34" id="P"/><path d="M24-231v-30h32v30H24zM24 0v-190h32V0H24" id="Q"/><path d="M85-194c31 0 48 13 60 33l-1-100h32l1 261h-30c-2-10 0-23-3-31C134-8 116 4 85 4 32 4 16-35 15-94c0-66 23-100 70-100zm9 24c-40 0-46 34-46 75 0 40 6 74 45 74 42 0 51-32 51-76 0-42-9-74-50-73" id="R"/><g id="a"><use transform="matrix(0.05,0,0,0.05,0,0)" xlink:href="#F"/><use transform="matrix(0.05,0,0,0.05,9,0)" xlink:href="#G"/><use transform="matrix(0.05,0,0,0.05,19,0)" xlink:href="#H"/><use transform="matrix(0.05,0,0,0.05,24.95,0)" xlink:href="#H"/><use transform="matrix(0.05,0,0,0.05,30.899999999999995,0)" xlink:href="#I"/><use transform="matrix(0.05,0,0,0.05,40.9,0)" xlink:href="#J"/><use transform="matrix(0.05,0,0,0.05,50.9,0)" xlink:href="#K"/><use transform="matrix(0.05,0,0,0.05,55.900000000000006,0)" xlink:href="#G"/><use transform="matrix(0.05,0,0,0.05,65.9,0)" xlink:href="#L"/><use transform="matrix(0.05,0,0,0.05,69.85000000000001,0)" xlink:href="#M"/><use transform="matrix(0.05,0,0,0.05,75.80000000000001,0)" xlink:href="#N"/><use transform="matrix(0.05,0,0,0.05,85.80000000000001,0)" xlink:href="#H"/><use transform="matrix(0.05,0,0,0.05,91.75000000000001,0)" xlink:href="#O"/><use transform="matrix(0.05,0,0,0.05,101.75000000000001,0)" xlink:href="#P"/><use transform="matrix(0.05,0,0,0.05,110.75,0)" xlink:href="#Q"/><use transform="matrix(0.05,0,0,0.05,114.7,0)" xlink:href="#R"/><use transform="matrix(0.05,0,0,0.05,124.7,0)" xlink:href="#I"/><use transform="matrix(0.05,0,0,0.05,134.70000000000002,0)" xlink:href="#H"/><use transform="matrix(0.05,0,0,0.05,140.65,0)" xlink:href="#M"/><use transform="matrix(0.05,0,0,0.05,146.6,0)" xlink:href="#G"/><use transform="matrix(0.05,0,0,0.05,156.6,0)" xlink:href="#Q"/></g><path d="M87 75C49 33 22-17 22-94c0-76 28-126 65-167h31c-38 41-64 92-64 168S80 34 118 75H87" id="S"/><path d="M205 0l-28-72H64L36 0H1l101-248h38L239 0h-34zm-38-99l-47-123c-12 45-31 82-46 123h93" id="T"/><g id="b"><use transform="matrix(0.05,0,0,0.05,0,0)" xlink:href="#S"/><use transform="matrix(0.05,0,0,0.05,5.95,0)" xlink:href="#T"/><use transform="matrix(0.05,0,0,0.05,17.95,0)" xlink:href="#N"/><use transform="matrix(0.05,0,0,0.05,27.950000000000003,0)" xlink:href="#N"/><use transform="matrix(0.05,0,0,0.05,37.95,0)" xlink:href="#L"/><use transform="matrix(0.05,0,0,0.05,41.900000000000006,0)" xlink:href="#Q"/><use transform="matrix(0.05,0,0,0.05,45.85000000000001,0)" xlink:href="#F"/><use transform="matrix(0.05,0,0,0.05,54.85,0)" xlink:href="#G"/><use transform="matrix(0.05,0,0,0.05,64.85000000000001,0)" xlink:href="#K"/><use transform="matrix(0.05,0,0,0.05,69.85000000000001,0)" xlink:href="#Q"/><use transform="matrix(0.05,0,0,0.05,73.80000000000001,0)" xlink:href="#O"/><use transform="matrix(0.05,0,0,0.05,83.80000000000001,0)" xlink:href="#J"/></g><path d="M33 0v-248h34V0H33" id="U"/><path d="M135-143c-3-34-86-38-87 0 15 53 115 12 119 90S17 21 10-45l28-5c4 36 97 45 98 0-10-56-113-15-118-90-4-57 82-63 122-42 12 7 21 19 24 35" id="V"/><path d="M177-190C167-65 218 103 67 71c-23-6-38-20-44-43l32-5c15 47 100 32 89-28v-30C133-14 115 1 83 1 29 1 15-40 15-95c0-56 16-97 71-98 29-1 48 16 59 35 1-10 0-23 2-32h30zM94-22c36 0 50-32 50-73 0-42-14-75-50-75-39 0-46 34-46 75s6 73 46 73" id="W"/><path d="M106-169C34-169 62-67 57 0H25v-261h32l-1 103c12-21 28-36 61-36 89 0 53 116 60 194h-32v-121c2-32-8-49-39-48" id="X"/><path d="M33-261c38 41 65 92 65 168S71 34 33 75H2C39 34 66-17 66-93S39-220 2-261h31" id="Y"/><g id="c"><use transform="matrix(0.05,0,0,0.05,0,0)" xlink:href="#U"/><use transform="matrix(0.05,0,0,0.05,5,0)" xlink:href="#J"/><use transform="matrix(0.05,0,0,0.05,15,0)" xlink:href="#V"/><use transform="matrix(0.05,0,0,0.05,24,0)" xlink:href="#Q"/><use transform="matrix(0.05,0,0,0.05,27.950000000000003,0)" xlink:href="#W"/><use transform="matrix(0.05,0,0,0.05,37.95,0)" xlink:href="#X"/><use transform="matrix(0.05,0,0,0.05,47.95,0)" xlink:href="#K"/><use transform="matrix(0.05,0,0,0.05,52.95,0)" xlink:href="#V"/><use transform="matrix(0.05,0,0,0.05,61.95,0)" xlink:href="#Y"/></g><path d="M143 0L79-87 56-68V0H24v-261h32v163l83-92h37l-77 82L181 0h-38" id="Z"/><g id="d"><use transform="matrix(0.05,0,0,0.05,0,0)" xlink:href="#F"/><use transform="matrix(0.05,0,0,0.05,9,0)" xlink:href="#G"/><use transform="matrix(0.05,0,0,0.05,19,0)" xlink:href="#H"/><use transform="matrix(0.05,0,0,0.05,24.95,0)" xlink:href="#H"/><use transform="matrix(0.05,0,0,0.05,30.899999999999995,0)" xlink:href="#I"/><use transform="matrix(0.05,0,0,0.05,40.9,0)" xlink:href="#J"/><use transform="matrix(0.05,0,0,0.05,50.9,0)" xlink:href="#K"/><use transform="matrix(0.05,0,0,0.05,55.900000000000006,0)" xlink:href="#G"/><use transform="matrix(0.05,0,0,0.05,65.9,0)" xlink:href="#L"/><use transform="matrix(0.05,0,0,0.05,69.85000000000001,0)" xlink:href="#M"/><use transform="matrix(0.05,0,0,0.05,75.80000000000001,0)" xlink:href="#N"/><use transform="matrix(0.05,0,0,0.05,85.80000000000001,0)" xlink:href="#H"/><use transform="matrix(0.05,0,0,0.05,91.75000000000001,0)" xlink:href="#O"/><use transform="matrix(0.05,0,0,0.05,101.75000000000001,0)" xlink:href="#P"/><use transform="matrix(0.05,0,0,0.05,110.75,0)" xlink:href="#Q"/><use transform="matrix(0.05,0,0,0.05,114.7,0)" xlink:href="#R"/><use transform="matrix(0.05,0,0,0.05,124.7,0)" xlink:href="#I"/><use transform="matrix(0.05,0,0,0.05,134.70000000000002,0)" xlink:href="#H"/><use transform="matrix(0.05,0,0,0.05,140.65,0)" xlink:href="#M"/><use transform="matrix(0.05,0,0,0.05,146.6,0)" xlink:href="#Z"/><use transform="matrix(0.05,0,0,0.05,155.6,0)" xlink:href="#P"/></g><path d="M194 0L95-120 63-95V0H30v-248h33v124l119-124h40L117-140 236 0h-42" id="aa"/><path d="M179-190L93 31C79 59 56 82 12 73V49c39 6 53-20 64-50L1-190h34L92-34l54-156h33" id="ab"/><g id="e"><use transform="matrix(0.05,0,0,0.05,0,0)" xlink:href="#S"/><use transform="matrix(0.05,0,0,0.05,5.95,0)" xlink:href="#aa"/><use transform="matrix(0.05,0,0,0.05,17.95,0)" xlink:href="#I"/><use transform="matrix(0.05,0,0,0.05,27.950000000000003,0)" xlink:href="#ab"/></g><path d="M137 0h-34L2-248h35l83 218 83-218h36" id="ac"/><path d="M84 4C-5 8 30-112 23-190h32v120c0 31 7 50 39 49 72-2 45-101 50-169h31l1 190h-30c-1-10 1-25-2-33-11 22-28 36-60 37" id="ad"/><g id="f"><use transform="matrix(0.05,0,0,0.05,0,0)" xlink:href="#ac"/><use transform="matrix(0.05,0,0,0.05,10.65,0)" xlink:href="#G"/><use transform="matrix(0.05,0,0,0.05,20.65,0)" xlink:href="#ad"/><use transform="matrix(0.05,0,0,0.05,30.649999999999995,0)" xlink:href="#L"/><use transform="matrix(0.05,0,0,0.05,34.6,0)" xlink:href="#K"/><use transform="matrix(0.05,0,0,0.05,39.6,0)" xlink:href="#Y"/></g><g id="g"><use transform="matrix(0.05,0,0,0.05,0,0)" xlink:href="#F"/><use transform="matrix(0.05,0,0,0.05,9,0)" xlink:href="#G"/><use transform="matrix(0.05,0,0,0.05,19,0)" xlink:href="#H"/><use transform="matrix(0.05,0,0,0.05,24.95,0)" xlink:href="#H"/><use transform="matrix(0.05,0,0,0.05,30.899999999999995,0)" xlink:href="#I"/><use transform="matrix(0.05,0,0,0.05,40.9,0)" xlink:href="#J"/><use transform="matrix(0.05,0,0,0.05,50.9,0)" xlink:href="#K"/><use transform="matrix(0.05,0,0,0.05,55.900000000000006,0)" xlink:href="#G"/><use transform="matrix(0.05,0,0,0.05,65.9,0)" xlink:href="#L"/><use transform="matrix(0.05,0,0,0.05,69.85000000000001,0)" xlink:href="#M"/><use transform="matrix(0.05,0,0,0.05,75.80000000000001,0)" xlink:href="#N"/><use transform="matrix(0.05,0,0,0.05,85.80000000000001,0)" xlink:href="#H"/><use transform="matrix(0.05,0,0,0.05,91.75000000000001,0)" xlink:href="#O"/><use transform="matrix(0.05,0,0,0.05,101.75000000000001,0)" xlink:href="#P"/><use transform="matrix(0.05,0,0,0.05,110.75,0)" xlink:href="#Q"/><use transform="matrix(0.05,0,0,0.05,114.7,0)" xlink:href="#R"/><use transform="matrix(0.05,0,0,0.05,124.7,0)" xlink:href="#I"/><use transform="matrix(0.05,0,0,0.05,134.70000000000002,0)" xlink:href="#H"/><use transform="matrix(0.05,0,0,0.05,140.65,0)" xlink:href="#M"/><use transform="matrix(0.05,0,0,0.05,146.6,0)" xlink:href="#N"/><use transform="matrix(0.05,0,0,0.05,156.6,0)" xlink:href="#H"/><use transform="matrix(0.05,0,0,0.05,162.54999999999998,0)" xlink:href="#O"/><use transform="matrix(0.05,0,0,0.05,172.54999999999998,0)" xlink:href="#R"/><use transform="matrix(0.05,0,0,0.05,182.54999999999998,0)" xlink:href="#M"/><use transform="matrix(0.05,0,0,0.05,188.49999999999997,0)" xlink:href="#H"/><use transform="matrix(0.05,0,0,0.05,194.44999999999996,0)" xlink:href="#W"/></g><path d="M277-555c0 244 77 420 297 424 127 2 249-93 255-210h175C980-127 805 20 574 20 258 20 81-222 92-562c11-319 164-533 481-540 237-5 426 165 431 392H829c-7-133-115-242-256-240-209 4-296 166-296 395" id="ae"/><path d="M561-1102c238-4 403 126 403 351v498c0 99 13 178 38 237V0H808c-11-21-19-59-26-114C696-25 593 20 474 20c-199 0-368-130-365-320 4-251 214-359 490-356h180v-85c-1-135-86-212-229-212-115 0-232 67-233 171H131c20-205 206-316 430-320zM294-326c0 117 90 185 207 185 122 0 239-75 278-162v-222H634c-227 0-340 66-340 199" id="af"/><path d="M663-916c-163-27-288 18-338 148V0H140v-1082h180l3 125c61-97 147-145 258-145 36 0 63 5 82 14v172" id="ag"/><path d="M599-131c141 0 220-65 285-146l113 88C906-50 770 20 589 20 281 21 93-214 93-545c0-223 93-397 233-485 74-48 154-72 240-72 300 2 449 218 445 537v77H278c0 197 129 357 321 357zm227-509c-3-180-88-310-260-310-170 0-264 140-282 310h542" id="ah"/><path d="M589-945c-131 0-219 81-264 174V0H140v-1082h175l6 136c83-104 191-156 324-156 229 0 346 129 346 387V0H806v-716c-2-153-65-229-217-229" id="ai"/><path d="M456 20C285 20 205-92 206-268v-671H9v-143h197v-262h185v262h202v143H391v671c-9 125 92 149 207 118V0c-49 13-96 20-142 20" id="aj"/><path d="M341 0H156v-1536h185V0" id="ak"/><path d="M525-543H37v-151h488v151" id="al"/><path d="M584 20C278 26 81-227 91-551c10-320 175-545 491-551 308-5 503 247 494 573-9 322-175 543-492 549zm-2-970c-208 0-305 185-305 421 0 216 106 398 307 398 211 0 307-186 307-420 0-214-109-399-309-399" id="am"/><path d="M1240-945c-141 0-250 95-250 227V0H804v-709c0-157-77-236-231-236-121 0-204 52-249 155V0H139v-1082h175l5 120c79-93 186-140 321-140 151 0 254 58 309 174 69-98 181-174 345-174 237 0 362 126 362 377V0h-185v-714c-2-159-67-231-231-231" id="an"/><path d="M632-1102c291 0 422 251 422 573 0 297-141 548-419 549-131 0-235-42-310-125v521H140v-1498h169l9 120c75-93 180-140 314-140zm-53 971c207 0 290-180 290-419 0-218-92-395-292-395-112 0-196 50-252 149v517c55 99 140 148 254 148" id="ao"/><path d="M520 20C244 20 95-247 95-550c0-298 151-550 427-552 127 0 227 43 301 130v-564h185V0H838l-9-116C755-25 652 20 520 20zm48-965c-210 0-288 177-288 416 0 218 87 392 286 392 117 0 203-53 257-158v-497c-55-102-140-153-255-153" id="ap"/><path d="M521 20C240 20 96-239 96-550c0-303 147-552 427-552 132 0 235 47 309 140l9-120h169V-26c4 277-183 454-459 452-165-1-334-81-400-187l96-111c79 98 176 147 291 147 180 1 288-109 286-290v-93C750-23 649 20 521 20zm48-965c-209 0-287 178-287 416 0 217 86 392 285 392 117 0 202-53 257-159v-494c-57-103-142-155-255-155" id="aq"/><g id="h"><use transform="matrix(0.0087890625,0,0,0.0087890625,0,0)" xlink:href="#ae"/><use transform="matrix(0.0087890625,0,0,0.0087890625,9.421875,0)" xlink:href="#af"/><use transform="matrix(0.0087890625,0,0,0.0087890625,19.212890625,0)" xlink:href="#ag"/><use transform="matrix(0.0087890625,0,0,0.0087890625,25.3037109375,0)" xlink:href="#ag"/><use transform="matrix(0.0087890625,0,0,0.0087890625,31.2275390625,0)" xlink:href="#ah"/><use transform="matrix(0.0087890625,0,0,0.0087890625,40.763671875,0)" xlink:href="#ai"/><use transform="matrix(0.0087890625,0,0,0.0087890625,50.6953125,0)" xlink:href="#aj"/><use transform="matrix(0.0087890625,0,0,0.0087890625,56.5751953125,0)" xlink:href="#af"/><use transform="matrix(0.0087890625,0,0,0.0087890625,66.3662109375,0)" xlink:href="#ak"/><use transform="matrix(0.0087890625,0,0,0.0087890625,70.734375,0)" xlink:href="#al"/><use transform="matrix(0.0087890625,0,0,0.0087890625,75.7001953125,0)" xlink:href="#ae"/><use transform="matrix(0.0087890625,0,0,0.0087890625,85.1220703125,0)" xlink:href="#am"/><use transform="matrix(0.0087890625,0,0,0.0087890625,95.3876953125,0)" xlink:href="#an"/><use transform="matrix(0.0087890625,0,0,0.0087890625,111.1640625,0)" xlink:href="#an"/><use transform="matrix(0.0087890625,0,0,0.0087890625,126.9404296875,0)" xlink:href="#am"/><use transform="matrix(0.0087890625,0,0,0.0087890625,137.2060546875,0)" xlink:href="#ai"/><use transform="matrix(0.0087890625,0,0,0.0087890625,147.1376953125,0)" xlink:href="#al"/><use transform="matrix(0.0087890625,0,0,0.0087890625,152.103515625,0)" xlink:href="#ao"/><use transform="matrix(0.0087890625,0,0,0.0087890625,162.2021484375,0)" xlink:href="#ag"/><use transform="matrix(0.0087890625,0,0,0.0087890625,168.1171875,0)" xlink:href="#am"/><use transform="matrix(0.0087890625,0,0,0.0087890625,178.3828125,0)" xlink:href="#ap"/><use transform="matrix(0.0087890625,0,0,0.0087890625,188.5341796875,0)" xlink:href="#al"/><use transform="matrix(0.0087890625,0,0,0.0087890625,193.5,0)" xlink:href="#ag"/><use transform="matrix(0.0087890625,0,0,0.0087890625,199.423828125,0)" xlink:href="#aq"/></g><g id="i"><use transform="matrix(0.0087890625,0,0,0.0087890625,0,0)" xlink:href="#ae"/><use transform="matrix(0.0087890625,0,0,0.0087890625,9.421875,0)" xlink:href="#af"/><use transform="matrix(0.0087890625,0,0,0.0087890625,19.212890625,0)" xlink:href="#ag"/><use transform="matrix(0.0087890625,0,0,0.0087890625,25.3037109375,0)" xlink:href="#ag"/><use transform="matrix(0.0087890625,0,0,0.0087890625,31.2275390625,0)" xlink:href="#ah"/><use transform="matrix(0.0087890625,0,0,0.0087890625,40.763671875,0)" xlink:href="#ai"/><use transform="matrix(0.0087890625,0,0,0.0087890625,50.6953125,0)" xlink:href="#aj"/><use transform="matrix(0.0087890625,0,0,0.0087890625,56.5751953125,0)" xlink:href="#af"/><use transform="matrix(0.0087890625,0,0,0.0087890625,66.3662109375,0)" xlink:href="#ak"/><use transform="matrix(0.0087890625,0,0,0.0087890625,70.734375,0)" xlink:href="#al"/><use transform="matrix(0.0087890625,0,0,0.0087890625,75.7001953125,0)" xlink:href="#ae"/><use transform="matrix(0.0087890625,0,0,0.0087890625,85.1220703125,0)" xlink:href="#am"/><use transform="matrix(0.0087890625,0,0,0.0087890625,95.3876953125,0)" xlink:href="#an"/><use transform="matrix(0.0087890625,0,0,0.0087890625,111.1640625,0)" xlink:href="#ao"/><use transform="matrix(0.0087890625,0,0,0.0087890625,121.2626953125,0)" xlink:href="#af"/><use transform="matrix(0.0087890625,0,0,0.0087890625,131.0537109375,0)" xlink:href="#ag"/><use transform="matrix(0.0087890625,0,0,0.0087890625,136.9775390625,0)" xlink:href="#ah"/><use transform="matrix(0.0087890625,0,0,0.0087890625,146.513671875,0)" xlink:href="#ag"/><use transform="matrix(0.0087890625,0,0,0.0087890625,152.6044921875,0)" xlink:href="#al"/><use transform="matrix(0.0087890625,0,0,0.0087890625,157.5703125,0)" xlink:href="#ao"/><use transform="matrix(0.0087890625,0,0,0.0087890625,167.6689453125,0)" xlink:href="#ag"/><use transform="matrix(0.0087890625,0,0,0.0087890625,173.583984375,0)" xlink:href="#am"/><use transform="matrix(0.0087890625,0,0,0.0087890625,183.849609375,0)" xlink:href="#ap"/><use transform="matrix(0.0087890625,0,0,0.0087890625,194.0009765625,0)" xlink:href="#al"/><use transform="matrix(0.0087890625,0,0,0.0087890625,198.966796875,0)" xlink:href="#ag"/><use transform="matrix(0.0087890625,0,0,0.0087890625,204.890625,0)" xlink:href="#aq"/></g><path d="M30-248c87 1 191-15 191 75 0 78-77 80-158 76V0H30v-248zm33 125c57 0 124 11 124-50 0-59-68-47-124-48v98" id="ar"/><path d="M266 0h-40l-56-210L115 0H75L2-248h35L96-30l15-64 43-154h32l59 218 59-218h35" id="as"/><path d="M185-189c-5-48-123-54-124 2 14 75 158 14 163 119 3 78-121 87-175 55-17-10-28-26-33-46l33-7c5 56 141 63 141-1 0-78-155-14-162-118-5-82 145-84 179-34 5 7 8 16 11 25" id="at"/><path d="M210-169c-67 3-38 105-44 169h-31v-121c0-29-5-50-35-48C34-165 62-65 56 0H25l-1-190h30c1 10-1 24 2 32 10-44 99-50 107 0 11-21 27-35 58-36 85-2 47 119 55 194h-31v-121c0-29-5-49-35-48" id="au"/><path d="M101-251c68 0 85 55 85 127S166 4 100 4C33 4 14-52 14-124c0-73 17-127 87-127zm-1 229c47 0 54-49 54-102s-4-102-53-102c-51 0-55 48-55 102 0 53 5 102 54 102" id="av"/><path d="M54-142c48-35 137-8 131 61C196 18 31 33 14-55l32-4c7 23 22 37 52 37 35-1 51-22 54-58 4-55-73-65-99-34H22l8-134h141v27H59" id="aw"/><g id="j"><use transform="matrix(0.05,0,0,0.05,0,0)" xlink:href="#ar"/><use transform="matrix(0.05,0,0,0.05,12,0)" xlink:href="#as"/><use transform="matrix(0.05,0,0,0.05,28.6,0)" xlink:href="#M"/><use transform="matrix(0.05,0,0,0.05,34.550000000000004,0)" xlink:href="#at"/><use transform="matrix(0.05,0,0,0.05,46.550000000000004,0)" xlink:href="#I"/><use transform="matrix(0.05,0,0,0.05,56.550000000000004,0)" xlink:href="#au"/><use transform="matrix(0.05,0,0,0.05,71.5,0)" xlink:href="#av"/><use transform="matrix(0.05,0,0,0.05,81.5,0)" xlink:href="#aw"/></g><g id="k"><use transform="matrix(0.05,0,0,0.05,0,0)" xlink:href="#F"/><use transform="matrix(0.05,0,0,0.05,9,0)" xlink:href="#G"/><use transform="matrix(0.05,0,0,0.05,19,0)" xlink:href="#H"/><use transform="matrix(0.05,0,0,0.05,24.95,0)" xlink:href="#H"/><use transform="matrix(0.05,0,0,0.05,30.899999999999995,0)" xlink:href="#I"/><use transform="matrix(0.05,0,0,0.05,40.9,0)" xlink:href="#J"/><use transform="matrix(0.05,0,0,0.05,50.9,0)" xlink:href="#K"/><use transform="matrix(0.05,0,0,0.05,55.900000000000006,0)" xlink:href="#G"/><use transform="matrix(0.05,0,0,0.05,65.9,0)" xlink:href="#L"/><use transform="matrix(0.05,0,0,0.05,69.85000000000001,0)" xlink:href="#M"/><use transform="matrix(0.05,0,0,0.05,75.80000000000001,0)" xlink:href="#F"/><use transform="matrix(0.05,0,0,0.05,84.80000000000001,0)" xlink:href="#G"/><use transform="matrix(0.05,0,0,0.05,94.80000000000001,0)" xlink:href="#F"/><use transform="matrix(0.05,0,0,0.05,103.80000000000001,0)" xlink:href="#X"/><use transform="matrix(0.05,0,0,0.05,113.80000000000001,0)" xlink:href="#I"/></g><path d="M9 0v-24l116-142H16v-24h144v24L44-24h123V0H9" id="ax"/><g id="l"><use transform="matrix(0.05,0,0,0.05,0,0)" xlink:href="#S"/><use transform="matrix(0.05,0,0,0.05,5.95,0)" xlink:href="#T"/><use transform="matrix(0.05,0,0,0.05,17.95,0)" xlink:href="#ax"/><use transform="matrix(0.05,0,0,0.05,26.950000000000003,0)" xlink:href="#ad"/><use transform="matrix(0.05,0,0,0.05,36.95,0)" xlink:href="#H"/><use transform="matrix(0.05,0,0,0.05,42.900000000000006,0)" xlink:href="#I"/></g><path d="M212-179c-10-28-35-45-73-45-59 0-87 40-87 99 0 60 29 101 89 101 43 0 62-24 78-52l27 14C228-24 195 4 139 4 59 4 22-46 18-125c-6-104 99-153 187-111 19 9 31 26 39 46" id="ay"/><g id="m"><use transform="matrix(0.05,0,0,0.05,0,0)" xlink:href="#ay"/><use transform="matrix(0.05,0,0,0.05,12.950000000000001,0)" xlink:href="#G"/><use transform="matrix(0.05,0,0,0.05,22.950000000000003,0)" xlink:href="#F"/><use transform="matrix(0.05,0,0,0.05,31.950000000000003,0)" xlink:href="#X"/><use transform="matrix(0.05,0,0,0.05,41.95,0)" xlink:href="#I"/></g><path d="M233-177c-1 41-23 64-60 70L243 0h-38l-65-103H63V0H30v-248c88 3 205-21 203 71zM63-129c60-2 137 13 137-47 0-61-80-42-137-45v92" id="az"/><g id="n"><use transform="matrix(0.05,0,0,0.05,0,0)" xlink:href="#az"/><use transform="matrix(0.05,0,0,0.05,12.950000000000001,0)" xlink:href="#I"/><use transform="matrix(0.05,0,0,0.05,22.950000000000003,0)" xlink:href="#R"/><use transform="matrix(0.05,0,0,0.05,32.95,0)" xlink:href="#Q"/><use transform="matrix(0.05,0,0,0.05,36.900000000000006,0)" xlink:href="#V"/><use transform="matrix(0.05,0,0,0.05,45.900000000000006,0)" xlink:href="#Y"/></g><g id="o"><use transform="matrix(0.05,0,0,0.05,0,0)" xlink:href="#F"/><use transform="matrix(0.05,0,0,0.05,9,0)" xlink:href="#G"/><use transform="matrix(0.05,0,0,0.05,19,0)" xlink:href="#H"/><use transform="matrix(0.05,0,0,0.05,24.95,0)" xlink:href="#H"/><use transform="matrix(0.05,0,0,0.05,30.899999999999995,0)" xlink:href="#I"/><use transform="matrix(0.05,0,0,0.05,40.9,0)" xlink:href="#J"/><use transform="matrix(0.05,0,0,0.05,50.9,0)" xlink:href="#K"/><use transform="matrix(0.05,0,0,0.05,55.900000000000006,0)" xlink:href="#G"/><use transform="matrix(0.05,0,0,0.05,65.9,0)" xlink:href="#L"/><use transform="matrix(0.05,0,0,0.05,69.85000000000001,0)" xlink:href="#au"/><use transform="matrix(0.05,0,0,0.05,84.80000000000001,0)" xlink:href="#Q"/><use transform="matrix(0.05,0,0,0.05,88.75000000000001,0)" xlink:href="#J"/><use transform="matrix(0.05,0,0,0.05,98.75000000000001,0)" xlink:href="#Q"/><use transform="matrix(0.05,0,0,0.05,102.7,0)" xlink:href="#V"/><use transform="matrix(0.05,0,0,0.05,111.7,0)" xlink:href="#G"/></g><path d="M160-131c35 5 61 23 61 61C221 17 115-2 30 0v-248c76 3 177-17 177 60 0 33-19 50-47 57zm-97-11c50-1 110 9 110-42 0-47-63-36-110-37v79zm0 115c55-2 124 14 124-45 0-56-70-42-124-44v89" id="aA"/><path d="M115-194c53 0 69 39 70 98 0 66-23 100-70 100C84 3 66-7 56-30L54 0H23l1-261h32v101c10-23 28-34 59-34zm-8 174c40 0 45-34 45-75 0-40-5-75-45-74-42 0-51 32-51 76 0 43 10 73 51 73" id="aB"/><g id="p"><use transform="matrix(0.05,0,0,0.05,0,0)" xlink:href="#S"/><use transform="matrix(0.05,0,0,0.05,5.95,0)" xlink:href="#aA"/><use transform="matrix(0.05,0,0,0.05,17.95,0)" xlink:href="#L"/><use transform="matrix(0.05,0,0,0.05,21.9,0)" xlink:href="#O"/><use transform="matrix(0.05,0,0,0.05,31.899999999999995,0)" xlink:href="#aB"/></g><g id="q"><use transform="matrix(0.05,0,0,0.05,0,0)" xlink:href="#at"/><use transform="matrix(0.05,0,0,0.05,12,0)" xlink:href="#K"/><use transform="matrix(0.05,0,0,0.05,17,0)" xlink:href="#O"/><use transform="matrix(0.05,0,0,0.05,27,0)" xlink:href="#H"/><use transform="matrix(0.05,0,0,0.05,32.95,0)" xlink:href="#G"/><use transform="matrix(0.05,0,0,0.05,42.95,0)" xlink:href="#W"/><use transform="matrix(0.05,0,0,0.05,52.95,0)" xlink:href="#I"/><use transform="matrix(0.05,0,0,0.05,62.95,0)" xlink:href="#Y"/></g><g id="r"><use transform="matrix(0.05,0,0,0.05,0,0)" xlink:href="#F"/><use transform="matrix(0.05,0,0,0.05,9,0)" xlink:href="#G"/><use transform="matrix(0.05,0,0,0.05,19,0)" xlink:href="#H"/><use transform="matrix(0.05,0,0,0.05,24.95,0)" xlink:href="#H"/><use transform="matrix(0.05,0,0,0.05,30.899999999999995,0)" xlink:href="#I"/><use transform="matrix(0.05,0,0,0.05,40.9,0)" xlink:href="#J"/><use transform="matrix(0.05,0,0,0.05,50.9,0)" xlink:href="#K"/><use transform="matrix(0.05,0,0,0.05,55.900000000000006,0)" xlink:href="#G"/><use transform="matrix(0.05,0,0,0.05,65.9,0)" xlink:href="#L"/><use transform="matrix(0.05,0,0,0.05,69.85000000000001,0)" xlink:href="#M"/><use transform="matrix(0.05,0,0,0.05,75.80000000000001,0)" xlink:href="#N"/><use transform="matrix(0.05,0,0,0.05,85.80000000000001,0)" xlink:href="#H"/><use transform="matrix(0.05,0,0,0.05,91.75000000000001,0)" xlink:href="#O"/><use transform="matrix(0.05,0,0,0.05,101.75000000000001,0)" xlink:href="#P"/><use transform="matrix(0.05,0,0,0.05,110.75,0)" xlink:href="#Q"/><use transform="matrix(0.05,0,0,0.05,114.7,0)" xlink:href="#R"/><use transform="matrix(0.05,0,0,0.05,124.7,0)" xlink:href="#I"/><use transform="matrix(0.05,0,0,0.05,134.70000000000002,0)" xlink:href="#H"/></g><g id="s"><use transform="matrix(0.05,0,0,0.05,0,0)" xlink:href="#S"/><use transform="matrix(0.05,0,0,0.05,5.95,0)" xlink:href="#T"/><use transform="matrix(0.05,0,0,0.05,17.95,0)" xlink:href="#N"/><use transform="matrix(0.05,0,0,0.05,27.950000000000003,0)" xlink:href="#N"/></g><g id="t"><use transform="matrix(0.05,0,0,0.05,0,0)" xlink:href="#at"/><use transform="matrix(0.05,0,0,0.05,12,0)" xlink:href="#I"/><use transform="matrix(0.05,0,0,0.05,22,0)" xlink:href="#H"/><use transform="matrix(0.05,0,0,0.05,27.950000000000003,0)" xlink:href="#P"/><use transform="matrix(0.05,0,0,0.05,36.95,0)" xlink:href="#Q"/><use transform="matrix(0.05,0,0,0.05,40.900000000000006,0)" xlink:href="#F"/><use transform="matrix(0.05,0,0,0.05,49.900000000000006,0)" xlink:href="#I"/><use transform="matrix(0.05,0,0,0.05,59.900000000000006,0)" xlink:href="#Y"/></g><linearGradient gradientUnits="userSpaceOnUse" id="u" x1="4500" y1="247.4" x2="4500" y2="150.38"><stop offset="0%" stop-color="#005ba1"/><stop offset="77.5%" stop-color="#0078d4"/></linearGradient><path d="M206 0h-36l-40-164L89 0H53L-1-190h32L70-26l43-164h34l41 164 42-164h31" id="aC"/><g id="v"><use transform="matrix(0.05,0,0,0.05,0,0)" xlink:href="#F"/><use transform="matrix(0.05,0,0,0.05,9,0)" xlink:href="#G"/><use transform="matrix(0.05,0,0,0.05,19,0)" xlink:href="#H"/><use transform="matrix(0.05,0,0,0.05,24.95,0)" xlink:href="#H"/><use transform="matrix(0.05,0,0,0.05,30.899999999999995,0)" xlink:href="#I"/><use transform="matrix(0.05,0,0,0.05,40.9,0)" xlink:href="#J"/><use transform="matrix(0.05,0,0,0.05,50.9,0)" xlink:href="#K"/><use transform="matrix(0.05,0,0,0.05,55.900000000000006,0)" xlink:href="#G"/><use transform="matrix(0.05,0,0,0.05,65.9,0)" xlink:href="#L"/><use transform="matrix(0.05,0,0,0.05,69.85000000000001,0)" xlink:href="#M"/><use transform="matrix(0.05,0,0,0.05,75.80000000000001,0)" xlink:href="#F"/><use transform="matrix(0.05,0,0,0.05,84.80000000000001,0)" xlink:href="#O"/><use transform="matrix(0.05,0,0,0.05,94.80000000000001,0)" xlink:href="#au"/><use transform="matrix(0.05,0,0,0.05,109.75,0)" xlink:href="#N"/><use transform="matrix(0.05,0,0,0.05,119.75,0)" xlink:href="#G"/><use transform="matrix(0.05,0,0,0.05,129.75,0)" xlink:href="#H"/><use transform="matrix(0.05,0,0,0.05,135.7,0)" xlink:href="#I"/><use transform="matrix(0.05,0,0,0.05,145.7,0)" xlink:href="#H"/><use transform="matrix(0.05,0,0,0.05,151.64999999999998,0)" xlink:href="#M"/><use transform="matrix(0.05,0,0,0.05,157.59999999999997,0)" xlink:href="#aC"/><use transform="matrix(0.05,0,0,0.05,170.54999999999995,0)" xlink:href="#I"/><use transform="matrix(0.05,0,0,0.05,180.54999999999995,0)" xlink:href="#aB"/></g><g id="w"><use transform="matrix(0.05,0,0,0.05,0,0)" xlink:href="#S"/><use transform="matrix(0.05,0,0,0.05,5.95,0)" xlink:href="#at"/><use transform="matrix(0.05,0,0,0.05,17.95,0)" xlink:href="#K"/><use transform="matrix(0.05,0,0,0.05,22.95,0)" xlink:href="#G"/><use transform="matrix(0.05,0,0,0.05,32.95,0)" xlink:href="#K"/><use transform="matrix(0.05,0,0,0.05,37.95,0)" xlink:href="#Q"/><use transform="matrix(0.05,0,0,0.05,41.900000000000006,0)" xlink:href="#F"/></g><g id="x"><use transform="matrix(0.05,0,0,0.05,0,0)" xlink:href="#T"/><use transform="matrix(0.05,0,0,0.05,12,0)" xlink:href="#N"/><use transform="matrix(0.05,0,0,0.05,22,0)" xlink:href="#N"/><use transform="matrix(0.05,0,0,0.05,32,0)" xlink:href="#V"/><use transform="matrix(0.05,0,0,0.05,41,0)" xlink:href="#Y"/></g><path d="M30-248c118-7 216 8 213 122C240-48 200 0 122 0H30v-248zM63-27c89 8 146-16 146-99s-60-101-146-95v194" id="aD"/><g id="y"><use transform="matrix(0.05,0,0,0.05,0,0)" xlink:href="#ay"/><use transform="matrix(0.05,0,0,0.05,12.950000000000001,0)" xlink:href="#G"/><use transform="matrix(0.05,0,0,0.05,22.950000000000003,0)" xlink:href="#H"/><use transform="matrix(0.05,0,0,0.05,28.900000000000002,0)" xlink:href="#az"/><use transform="matrix(0.05,0,0,0.05,41.85,0)" xlink:href="#I"/><use transform="matrix(0.05,0,0,0.05,51.85,0)" xlink:href="#J"/><use transform="matrix(0.05,0,0,0.05,61.85,0)" xlink:href="#K"/><use transform="matrix(0.05,0,0,0.05,66.85,0)" xlink:href="#G"/><use transform="matrix(0.05,0,0,0.05,76.85,0)" xlink:href="#L"/><use transform="matrix(0.05,0,0,0.05,80.8,0)" xlink:href="#ar"/><use transform="matrix(0.05,0,0,0.05,92.8,0)" xlink:href="#H"/><use transform="matrix(0.05,0,0,0.05,98.75,0)" xlink:href="#O"/><use transform="matrix(0.05,0,0,0.05,108.75,0)" xlink:href="#P"/><use transform="matrix(0.05,0,0,0.05,117.75,0)" xlink:href="#Q"/><use transform="matrix(0.05,0,0,0.05,121.7,0)" xlink:href="#R"/><use transform="matrix(0.05,0,0,0.05,131.7,0)" xlink:href="#I"/><use transform="matrix(0.05,0,0,0.05,141.7,0)" xlink:href="#H"/><use transform="matrix(0.05,0,0,0.05,147.64999999999998,0)" xlink:href="#aD"/><use transform="matrix(0.05,0,0,0.05,160.59999999999997,0)" xlink:href="#aB"/></g><path d="M140-251c81 0 123 46 123 126C263-53 228-8 163 1c7 30 30 48 69 40v23c-55 16-95-15-103-61C56-3 17-48 17-125c0-80 42-126 123-126zm0 227c63 0 89-41 89-101s-29-99-89-99c-61 0-89 39-89 99S79-25 140-24" id="aE"/><path d="M30 0v-248h33v221h125V0H30" id="aF"/><g id="z"><use transform="matrix(0.05,0,0,0.05,0,0)" xlink:href="#S"/><use transform="matrix(0.05,0,0,0.05,5.95,0)" xlink:href="#at"/><use transform="matrix(0.05,0,0,0.05,17.95,0)" xlink:href="#aE"/><use transform="matrix(0.05,0,0,0.05,31.950000000000003,0)" xlink:href="#aF"/></g><g id="A"><use transform="matrix(0.05,0,0,0.05,0,0)" xlink:href="#aD"/><use transform="matrix(0.05,0,0,0.05,12.950000000000001,0)" xlink:href="#G"/><use transform="matrix(0.05,0,0,0.05,22.950000000000003,0)" xlink:href="#K"/><use transform="matrix(0.05,0,0,0.05,27.950000000000003,0)" xlink:href="#G"/><use transform="matrix(0.05,0,0,0.05,37.95,0)" xlink:href="#aB"/><use transform="matrix(0.05,0,0,0.05,47.95,0)" xlink:href="#G"/><use transform="matrix(0.05,0,0,0.05,57.95,0)" xlink:href="#V"/><use transform="matrix(0.05,0,0,0.05,66.95,0)" xlink:href="#I"/><use transform="matrix(0.05,0,0,0.05,76.95,0)" xlink:href="#Y"/></g><g id="B"><use transform="matrix(0.05,0,0,0.05,0,0)" xlink:href="#F"/><use transform="matrix(0.05,0,0,0.05,9,0)" xlink:href="#G"/><use transform="matrix(0.05,0,0,0.05,19,0)" xlink:href="#H"/><use transform="matrix(0.05,0,0,0.05,24.95,0)" xlink:href="#H"/><use transform="matrix(0.05,0,0,0.05,30.899999999999995,0)" xlink:href="#I"/><use transform="matrix(0.05,0,0,0.05,40.9,0)" xlink:href="#J"/><use transform="matrix(0.05,0,0,0.05,50.9,0)" xlink:href="#K"/><use transform="matrix(0.05,0,0,0.05,55.900000000000006,0)" xlink:href="#G"/><use transform="matrix(0.05,0,0,0.05,65.9,0)" xlink:href="#L"/><use transform="matrix(0.05,0,0,0.05,69.85000000000001,0)" xlink:href="#M"/><use transform="matrix(0.05,0,0,0.05,75.80000000000001,0)" xlink:href="#F"/><use transform="matrix(0.05,0,0,0.05,84.80000000000001,0)" xlink:href="#O"/><use transform="matrix(0.05,0,0,0.05,94.80000000000001,0)" xlink:href="#au"/><use transform="matrix(0.05,0,0,0.05,109.75,0)" xlink:href="#N"/><use transform="matrix(0.05,0,0,0.05,119.75,0)" xlink:href="#G"/><use transform="matrix(0.05,0,0,0.05,129.75,0)" xlink:href="#H"/><use transform="matrix(0.05,0,0,0.05,135.7,0)" xlink:href="#I"/><use transform="matrix(0.05,0,0,0.05,145.7,0)" xlink:href="#H"/></g><g id="C"><use transform="matrix(0.05,0,0,0.05,0,0)" xlink:href="#F"/><use transform="matrix(0.05,0,0,0.05,9,0)" xlink:href="#G"/><use transform="matrix(0.05,0,0,0.05,19,0)" xlink:href="#H"/><use transform="matrix(0.05,0,0,0.05,24.95,0)" xlink:href="#H"/><use transform="matrix(0.05,0,0,0.05,30.899999999999995,0)" xlink:href="#I"/><use transform="matrix(0.05,0,0,0.05,40.9,0)" xlink:href="#J"/><use transform="matrix(0.05,0,0,0.05,50.9,0)" xlink:href="#K"/><use transform="matrix(0.05,0,0,0.05,55.900000000000006,0)" xlink:href="#G"/><use transform="matrix(0.05,0,0,0.05,65.9,0)" xlink:href="#L"/><use transform="matrix(0.05,0,0,0.05,69.85000000000001,0)" xlink:href="#M"/><use transform="matrix(0.05,0,0,0.05,75.80000000000001,0)" xlink:href="#F"/><use transform="matrix(0.05,0,0,0.05,84.80000000000001,0)" xlink:href="#O"/><use transform="matrix(0.05,0,0,0.05,94.80000000000001,0)" xlink:href="#au"/><use transform="matrix(0.05,0,0,0.05,109.75,0)" xlink:href="#N"/><use transform="matrix(0.05,0,0,0.05,119.75,0)" xlink:href="#G"/><use transform="matrix(0.05,0,0,0.05,129.75,0)" xlink:href="#H"/><use transform="matrix(0.05,0,0,0.05,135.7,0)" xlink:href="#I"/><use transform="matrix(0.05,0,0,0.05,145.7,0)" xlink:href="#H"/><use transform="matrix(0.05,0,0,0.05,151.64999999999998,0)" xlink:href="#M"/><use transform="matrix(0.05,0,0,0.05,157.59999999999997,0)" xlink:href="#Z"/><use transform="matrix(0.05,0,0,0.05,166.59999999999997,0)" xlink:href="#P"/></g><g id="D"><use transform="matrix(0.05,0,0,0.05,0,0)" xlink:href="#F"/><use transform="matrix(0.05,0,0,0.05,9,0)" xlink:href="#G"/><use transform="matrix(0.05,0,0,0.05,19,0)" xlink:href="#H"/><use transform="matrix(0.05,0,0,0.05,24.95,0)" xlink:href="#H"/><use transform="matrix(0.05,0,0,0.05,30.899999999999995,0)" xlink:href="#I"/><use transform="matrix(0.05,0,0,0.05,40.9,0)" xlink:href="#J"/><use transform="matrix(0.05,0,0,0.05,50.9,0)" xlink:href="#K"/><use transform="matrix(0.05,0,0,0.05,55.900000000000006,0)" xlink:href="#G"/><use transform="matrix(0.05,0,0,0.05,65.9,0)" xlink:href="#L"/><use transform="matrix(0.05,0,0,0.05,69.85000000000001,0)" xlink:href="#M"/><use transform="matrix(0.05,0,0,0.05,75.80000000000001,0)" xlink:href="#F"/><use transform="matrix(0.05,0,0,0.05,84.80000000000001,0)" xlink:href="#O"/><use transform="matrix(0.05,0,0,0.05,94.80000000000001,0)" xlink:href="#au"/><use transform="matrix(0.05,0,0,0.05,109.75,0)" xlink:href="#N"/><use transform="matrix(0.05,0,0,0.05,119.75,0)" xlink:href="#G"/><use transform="matrix(0.05,0,0,0.05,129.75,0)" xlink:href="#H"/><use transform="matrix(0.05,0,0,0.05,135.7,0)" xlink:href="#I"/><use transform="matrix(0.05,0,0,0.05,145.7,0)" xlink:href="#H"/><use transform="matrix(0.05,0,0,0.05,151.64999999999998,0)" xlink:href="#M"/><use transform="matrix(0.05,0,0,0.05,157.59999999999997,0)" xlink:href="#G"/><use transform="matrix(0.05,0,0,0.05,167.59999999999997,0)" xlink:href="#Q"/></g><g id="E"><use transform="matrix(0.05,0,0,0.05,0,0)" xlink:href="#ay"/><use transform="matrix(0.05,0,0,0.05,12.950000000000001,0)" xlink:href="#G"/><use transform="matrix(0.05,0,0,0.05,22.950000000000003,0)" xlink:href="#H"/><use transform="matrix(0.05,0,0,0.05,28.900000000000002,0)" xlink:href="#az"/><use transform="matrix(0.05,0,0,0.05,41.85,0)" xlink:href="#I"/><use transform="matrix(0.05,0,0,0.05,51.85,0)" xlink:href="#J"/><use transform="matrix(0.05,0,0,0.05,61.85,0)" xlink:href="#K"/><use transform="matrix(0.05,0,0,0.05,66.85,0)" xlink:href="#G"/><use transform="matrix(0.05,0,0,0.05,76.85,0)" xlink:href="#L"/><use transform="matrix(0.05,0,0,0.05,80.8,0)" xlink:href="#ay"/><use transform="matrix(0.05,0,0,0.05,93.75,0)" xlink:href="#O"/><use transform="matrix(0.05,0,0,0.05,103.75,0)" xlink:href="#au"/><use transform="matrix(0.05,0,0,0.05,118.7,0)" xlink:href="#N"/><use transform="matrix(0.05,0,0,0.05,128.7,0)" xlink:href="#G"/><use transform="matrix(0.05,0,0,0.05,138.7,0)" xlink:href="#H"/><use transform="matrix(0.05,0,0,0.05,144.64999999999998,0)" xlink:href="#I"/><use transform="matrix(0.05,0,0,0.05,154.64999999999998,0)" xlink:href="#H"/><use transform="matrix(0.05,0,0,0.05,160.59999999999997,0)" xlink:href="#aD"/><use transform="matrix(0.05,0,0,0.05,173.54999999999995,0)" xlink:href="#aB"/></g></defs></g></svg>