<svg xmlns="http://www.w3.org/2000/svg" xmlns:xlink="http://www.w3.org/1999/xlink" xmlns:lucid="lucid" width="1736.5" height="970.1"><g transform="translate(-3999.4999999978268 569.6)" lucid:page-tab-id="0_0"><path d="M1500-1000h4500v2000H1500z" fill="#fff"/><path d="M4000-512a8 8 0 0 1 8-8h1704a8 8 0 0 1 8 8v904a8 8 0 0 1-8 8H4008a8 8 0 0 1-8-8z" stroke="#3a414a" fill="#edf5ff"/><path d="M4636.27-311.3a5 5 0 0 1 5-5h410a5 5 0 0 1 5 5v414a5 5 0 0 1-5 5h-410a5 5 0 0 1-5-5z" fill="#fff"/><path d="M4636.27-276.3v-35a5 5 0 0 1 5-5h410a5 5 0 0 1 5 5v35" fill="#dedeff"/><path d="M4636.27-311.3a5 5 0 0 1 5-5h410a5 5 0 0 1 5 5v414a5 5 0 0 1-5 5h-410a5 5 0 0 1-5-5zM4636.27-276.3h420M4846.27-276.3v384" stroke="#282c33" fill="none"/><use xlink:href="#a" transform="matrix(1,0,0,1,4646.266666666666,-316.29518760190064) translate(0 23.6)"/><use xlink:href="#b" transform="matrix(1,0,0,1,4641.266666666666,-273.79518760190064) translate(0 17.1)"/><use xlink:href="#c" transform="matrix(1,0,0,1,4851.266666666666,-273.79518760190064) translate(0 17.1)"/><use xlink:href="#d" transform="matrix(1,0,0,1,4641.266666666666,-241.79518760190064) translate(0 17.1)"/><use xlink:href="#c" transform="matrix(1,0,0,1,4851.266666666666,-241.79518760190064) translate(0 17.1)"/><use xlink:href="#e" transform="matrix(1,0,0,1,4641.266666666666,-209.79518760190064) translate(0 17.1)"/><use xlink:href="#c" transform="matrix(1,0,0,1,4851.266666666666,-209.79518760190064) translate(0 17.1)"/><use xlink:href="#f" transform="matrix(1,0,0,1,4641.266666666666,-177.79518760190064) translate(0 17.1)"/><use xlink:href="#g" transform="matrix(1,0,0,1,4851.266666666666,-177.79518760190064) translate(0 17.1)"/><use xlink:href="#h" transform="matrix(1,0,0,1,4641.266666666666,-145.79518760190064) translate(0 17.1)"/><use xlink:href="#i" transform="matrix(1,0,0,1,4851.266666666666,-145.79518760190064) translate(0 17.1)"/><use xlink:href="#j" transform="matrix(1,0,0,1,4641.266666666666,-113.79518760190064) translate(0 17.1)"/><use xlink:href="#i" transform="matrix(1,0,0,1,4851.266666666666,-113.79518760190064) translate(0 17.1)"/><use xlink:href="#k" transform="matrix(1,0,0,1,4641.266666666666,-81.79518760190064) translate(0 17.1)"/><use xlink:href="#l" transform="matrix(1,0,0,1,4851.266666666666,-81.79518760190064) translate(0 17.1)"/><use xlink:href="#m" transform="matrix(1,0,0,1,4641.266666666666,-49.795187601900636) translate(0 17.1)"/><use xlink:href="#n" transform="matrix(1,0,0,1,4851.266666666666,-49.795187601900636) translate(0 17.1)"/><use xlink:href="#o" transform="matrix(1,0,0,1,4641.266666666666,-17.795187601900636) translate(0 17.1)"/><use xlink:href="#c" transform="matrix(1,0,0,1,4851.266666666666,-17.795187601900636) translate(0 17.1)"/><use xlink:href="#p" transform="matrix(1,0,0,1,4641.266666666666,14.204812398099364) translate(0 17.1)"/><use xlink:href="#q" transform="matrix(1,0,0,1,4851.266666666666,14.204812398099364) translate(0 17.1)"/><use xlink:href="#r" transform="matrix(1,0,0,1,4641.266666666666,46.204812398099364) translate(0 17.1)"/><use xlink:href="#s" transform="matrix(1,0,0,1,4851.266666666666,46.204812398099364) translate(0 17.1)"/><use xlink:href="#t" transform="matrix(1,0,0,1,4641.266666666666,78.20481239809936) translate(0 17.1)"/><use xlink:href="#s" transform="matrix(1,0,0,1,4851.266666666666,78.20481239809936) translate(0 17.1)"/><path d="M4072.53-435a5 5 0 0 1 5-5H4435a5 5 0 0 1 5 5v286a5 5 0 0 1-5 5h-357.47a5 5 0 0 1-5-5z" fill="#fff"/><path d="M4072.53-400v-35a5 5 0 0 1 5-5H4435a5 5 0 0 1 5 5v35" fill="#dedeff"/><path d="M4072.53-435a5 5 0 0 1 5-5H4435a5 5 0 0 1 5 5v286a5 5 0 0 1-5 5h-357.47a5 5 0 0 1-5-5zM4072.53-400H4440M4256.27-400v256" stroke="#282c33" fill="none"/><use xlink:href="#u" transform="matrix(1,0,0,1,4082.533333333333,-440) translate(0 23.6)"/><use xlink:href="#b" transform="matrix(1,0,0,1,4077.533333333333,-397.5) translate(0 17.1)"/><use xlink:href="#c" transform="matrix(1,0,0,1,4261.266666666666,-397.5) translate(0 17.1)"/><use xlink:href="#v" transform="matrix(1,0,0,1,4077.533333333333,-365.5) translate(0 17.1)"/><use xlink:href="#g" transform="matrix(1,0,0,1,4261.266666666666,-365.5) translate(0 17.1)"/><use xlink:href="#w" transform="matrix(1,0,0,1,4077.533333333333,-333.5) translate(0 17.1)"/><use xlink:href="#g" transform="matrix(1,0,0,1,4261.266666666666,-333.5) translate(0 17.1)"/><use xlink:href="#x" transform="matrix(1,0,0,1,4077.533333333333,-301.5) translate(0 17.1)"/><use xlink:href="#g" transform="matrix(1,0,0,1,4261.266666666666,-301.5) translate(0 17.1)"/><use xlink:href="#y" transform="matrix(1,0,0,1,4077.533333333333,-269.5) translate(0 17.1)"/><use xlink:href="#l" transform="matrix(1,0,0,1,4261.266666666666,-269.5) translate(0 17.1)"/><use xlink:href="#z" transform="matrix(1,0,0,1,4077.533333333333,-237.5) translate(0 17.1)"/><use xlink:href="#l" transform="matrix(1,0,0,1,4261.266666666666,-237.5) translate(0 17.1)"/><use xlink:href="#A" transform="matrix(1,0,0,1,4077.533333333333,-205.5) translate(0 17.1)"/><use xlink:href="#i" transform="matrix(1,0,0,1,4261.266666666666,-205.5) translate(0 17.1)"/><use xlink:href="#B" transform="matrix(1,0,0,1,4077.533333333333,-173.5) translate(0 17.1)"/><use xlink:href="#i" transform="matrix(1,0,0,1,4261.266666666666,-173.5) translate(0 17.1)"/><path d="M4072.53-55a5 5 0 0 1 5-5h410a5 5 0 0 1 5 5v350a5 5 0 0 1-5 5h-410a5 5 0 0 1-5-5z" fill="#fff"/><path d="M4072.53-20v-35a5 5 0 0 1 5-5h410a5 5 0 0 1 5 5v35" fill="#dedeff"/><path d="M4072.53-55a5 5 0 0 1 5-5h410a5 5 0 0 1 5 5v350a5 5 0 0 1-5 5h-410a5 5 0 0 1-5-5zM4072.53-20h420M4282.53-20v320" stroke="#282c33" fill="none"/><use xlink:href="#C" transform="matrix(1,0,0,1,4082.533333333333,-60) translate(0 23.6)"/><use xlink:href="#b" transform="matrix(1,0,0,1,4077.533333333333,-17.5) translate(0 17.1)"/><use xlink:href="#c" transform="matrix(1,0,0,1,4287.533333333333,-17.5) translate(0 17.1)"/><use xlink:href="#D" transform="matrix(1,0,0,1,4077.533333333333,14.5) translate(0 17.1)"/><use xlink:href="#g" transform="matrix(1,0,0,1,4287.533333333333,14.5) translate(0 17.1)"/><use xlink:href="#E" transform="matrix(1,0,0,1,4077.533333333333,46.5) translate(0 17.1)"/><use xlink:href="#g" transform="matrix(1,0,0,1,4287.533333333333,46.5) translate(0 17.1)"/><use xlink:href="#F" transform="matrix(1,0,0,1,4077.533333333333,78.5) translate(0 17.1)"/><use xlink:href="#g" transform="matrix(1,0,0,1,4287.533333333333,78.5) translate(0 17.1)"/><use xlink:href="#G" transform="matrix(1,0,0,1,4077.533333333333,110.5) translate(0 17.1)"/><use xlink:href="#s" transform="matrix(1,0,0,1,4287.533333333333,110.5) translate(0 17.1)"/><use xlink:href="#H" transform="matrix(1,0,0,1,4077.533333333333,142.5) translate(0 17.1)"/><use xlink:href="#s" transform="matrix(1,0,0,1,4287.533333333333,142.5) translate(0 17.1)"/><use xlink:href="#I" transform="matrix(1,0,0,1,4077.533333333333,174.5) translate(0 17.1)"/><use xlink:href="#s" transform="matrix(1,0,0,1,4287.533333333333,174.5) translate(0 17.1)"/><use xlink:href="#J" transform="matrix(1,0,0,1,4077.533333333333,206.5) translate(0 17.1)"/><use xlink:href="#c" transform="matrix(1,0,0,1,4287.533333333333,206.5) translate(0 17.1)"/><use xlink:href="#K" transform="matrix(1,0,0,1,4077.533333333333,238.5) translate(0 17.1)"/><use xlink:href="#L" transform="matrix(1,0,0,1,4287.533333333333,238.5) translate(0 17.1)"/><use xlink:href="#M" transform="matrix(1,0,0,1,4077.533333333333,270.5) translate(0 17.1)"/><use xlink:href="#L" transform="matrix(1,0,0,1,4287.533333333333,270.5) translate(0 17.1)"/><path d="M5200-435a5 5 0 0 1 5-5h410a5 5 0 0 1 5 5v94a5 5 0 0 1-5 5h-410a5 5 0 0 1-5-5z" fill="#fff"/><path d="M5200-400v-35a5 5 0 0 1 5-5h410a5 5 0 0 1 5 5v35" fill="#dedeff"/><path d="M5200-435a5 5 0 0 1 5-5h410a5 5 0 0 1 5 5v94a5 5 0 0 1-5 5h-410a5 5 0 0 1-5-5zM5200-400h420M5410-400v64" stroke="#282c33" fill="none"/><use xlink:href="#N" transform="matrix(1,0,0,1,5210,-440) translate(0 23.6)"/><use xlink:href="#b" transform="matrix(1,0,0,1,5205,-397.5) translate(0 17.1)"/><use xlink:href="#c" transform="matrix(1,0,0,1,5415,-397.5) translate(0 17.1)"/><use xlink:href="#w" transform="matrix(1,0,0,1,5205,-365.5) translate(0 17.1)"/><use xlink:href="#g" transform="matrix(1,0,0,1,5415,-365.5) translate(0 17.1)"/><path d="M5096.77-196.3h19.36a12 12 0 0 0 12-12V-372a12 12 0 0 1 12-12h39.37" stroke="#3a414a" fill="none"/><path d="M5057-196.3h20m-20 10l20-10m-20-10l20 10m20 0c0 5.53-4.5 10-10 10-5.53 0-10-4.47-10-10 0-5.52 4.47-10 10-10 5.5 0 10 4.48 10 10z" stroke="#3a414a" fill="#fff"/><path d="M5199.5-384h-20m10-10v20m-10-20v20M4460.5-384h65.63a12 12 0 0 1 12 12v131.7a12 12 0 0 0 12 12h45.64M4440.5-384h20m-10 10v-20m10 20v-20" stroke="#3a414a" fill="none"/><path d="M4635.54-228.3h-20m20-10l-20 10m20 10l-20-10m0 0c0 5.53-4.47 10-10 10-5.52 0-10-4.47-10-10 0-5.52 4.48-10 10-10 5.53 0 10 4.48 10 10z" stroke="#3a414a" fill="#fff"/><path d="M4595.77-4.3h-82.74" stroke="#3a414a" fill="none"/><path d="M4635.54-4.3h-20m20-10l-20 10m20 10l-20-10m0 0c0 5.53-4.47 10-10 10-5.52 0-10-4.47-10-10 0-5.52 4.48-10 10-10 5.53 0 10 4.48 10 10z" stroke="#3a414a" fill="#fff"/><path d="M4493.03-4.3h20m-10 10v-20m10 20v-20" stroke="#3a414a" fill="none"/><path d="M5200-215a5 5 0 0 1 5-5h410a5 5 0 0 1 5 5v190a5 5 0 0 1-5 5h-410a5 5 0 0 1-5-5z" fill="#fff"/><path d="M5200-180v-35a5 5 0 0 1 5-5h410a5 5 0 0 1 5 5v35" fill="#dedeff"/><path d="M5200-215a5 5 0 0 1 5-5h410a5 5 0 0 1 5 5v190a5 5 0 0 1-5 5h-410a5 5 0 0 1-5-5zM5200-180h420M5410-180v160" stroke="#282c33" fill="none"/><use xlink:href="#O" transform="matrix(1,0,0,1,5210,-220) translate(0 23.6)"/><use xlink:href="#b" transform="matrix(1,0,0,1,5205,-177.5) translate(0 17.1)"/><use xlink:href="#g" transform="matrix(1,0,0,1,5415,-177.5) translate(0 17.1)"/><use xlink:href="#v" transform="matrix(1,0,0,1,5205,-145.5) translate(0 17.1)"/><use xlink:href="#g" transform="matrix(1,0,0,1,5415,-145.5) translate(0 17.1)"/><use xlink:href="#e" transform="matrix(1,0,0,1,5205,-113.5) translate(0 17.1)"/><use xlink:href="#c" transform="matrix(1,0,0,1,5415,-113.5) translate(0 17.1)"/><use xlink:href="#P" transform="matrix(1,0,0,1,5205,-81.5) translate(0 17.1)"/><use xlink:href="#g" transform="matrix(1,0,0,1,5415,-81.5) translate(0 17.1)"/><use xlink:href="#Q" transform="matrix(1,0,0,1,5205,-49.5) translate(0 17.1)"/><use xlink:href="#g" transform="matrix(1,0,0,1,5415,-49.5) translate(0 17.1)"/><path d="M5640.5-384h8a12 12 0 0 1 12 12v208M5620.5-384h20m-10 10v-20m10 20v-20" stroke="#3a414a" fill="none"/><path d="M5620.72-164h20m-20 10l20-10m-20-10l20 10m20 0c0 5.52-4.47 10-10 10-5.52 0-10-4.48-10-10s4.48-10 10-10c5.53 0 10 4.48 10 10z" stroke="#3a414a" fill="#fff"/><defs><path fill="#333" d="M233-177c-1 41-23 64-60 70L243 0h-38l-65-103H63V0H30v-248c88 3 205-21 203 71zM63-129c60-2 137 13 137-47 0-61-80-42-137-45v92" id="R"/><path fill="#333" d="M100-194c63 0 86 42 84 106H49c0 40 14 67 53 68 26 1 43-12 49-29l28 8c-11 28-37 45-77 45C44 4 14-33 15-96c1-61 26-98 85-98zm52 81c6-60-76-77-97-28-3 7-6 17-6 28h103" id="S"/><path fill="#333" d="M117-194c89-4 53 116 60 194h-32v-121c0-31-8-49-39-48C34-167 62-67 57 0H25l-1-190h30c1 10-1 24 2 32 11-22 29-35 61-36" id="T"/><path fill="#333" d="M59-47c-2 24 18 29 38 22v24C64 9 27 4 27-40v-127H5v-23h24l9-43h21v43h35v23H59v120" id="U"/><path fill="#333" d="M141-36C126-15 110 5 73 4 37 3 15-17 15-53c-1-64 63-63 125-63 3-35-9-54-41-54-24 1-41 7-42 31l-33-3c5-37 33-52 76-52 45 0 72 20 72 64v82c-1 20 7 32 28 27v20c-31 9-61-2-59-35zM48-53c0 20 12 33 32 33 41-3 63-29 60-74-43 2-92-5-92 41" id="V"/><path fill="#333" d="M24 0v-261h32V0H24" id="W"/><path fill="#333" d="M127-220V0H93v-220H8v-28h204v28h-85" id="X"/><path fill="#333" d="M114-163C36-179 61-72 57 0H25l-1-190h30c1 12-1 29 2 39 6-27 23-49 58-41v29" id="Y"/><path fill="#333" d="M135-143c-3-34-86-38-87 0 15 53 115 12 119 90S17 21 10-45l28-5c4 36 97 45 98 0-10-56-113-15-118-90-4-57 82-63 122-42 12 7 21 19 24 35" id="Z"/><path fill="#333" d="M96-169c-40 0-48 33-48 73s9 75 48 75c24 0 41-14 43-38l32 2c-6 37-31 61-74 61-59 0-76-41-82-99-10-93 101-131 147-64 4 7 5 14 7 22l-32 3c-4-21-16-35-41-35" id="aa"/><path fill="#333" d="M24-231v-30h32v30H24zM24 0v-190h32V0H24" id="ab"/><path fill="#333" d="M100-194c62-1 85 37 85 99 1 63-27 99-86 99S16-35 15-95c0-66 28-99 85-99zM99-20c44 1 53-31 53-75 0-43-8-75-51-75s-53 32-53 75 10 74 51 75" id="ac"/><g id="a"><use transform="matrix(0.05,0,0,0.05,0,0)" xlink:href="#R"/><use transform="matrix(0.05,0,0,0.05,12.950000000000001,0)" xlink:href="#S"/><use transform="matrix(0.05,0,0,0.05,22.950000000000003,0)" xlink:href="#T"/><use transform="matrix(0.05,0,0,0.05,32.95,0)" xlink:href="#U"/><use transform="matrix(0.05,0,0,0.05,37.95,0)" xlink:href="#V"/><use transform="matrix(0.05,0,0,0.05,47.95,0)" xlink:href="#W"/><use transform="matrix(0.05,0,0,0.05,51.900000000000006,0)" xlink:href="#X"/><use transform="matrix(0.05,0,0,0.05,62.20000000000002,0)" xlink:href="#Y"/><use transform="matrix(0.05,0,0,0.05,68.15,0)" xlink:href="#V"/><use transform="matrix(0.05,0,0,0.05,78.15,0)" xlink:href="#T"/><use transform="matrix(0.05,0,0,0.05,88.15,0)" xlink:href="#Z"/><use transform="matrix(0.05,0,0,0.05,97.15,0)" xlink:href="#V"/><use transform="matrix(0.05,0,0,0.05,107.15,0)" xlink:href="#aa"/><use transform="matrix(0.05,0,0,0.05,116.15,0)" xlink:href="#U"/><use transform="matrix(0.05,0,0,0.05,121.15,0)" xlink:href="#ab"/><use transform="matrix(0.05,0,0,0.05,125.10000000000001,0)" xlink:href="#ac"/><use transform="matrix(0.05,0,0,0.05,135.10000000000002,0)" xlink:href="#T"/></g><path fill="#333" d="M33 0v-248h34V0H33" id="ad"/><path fill="#333" d="M85-194c31 0 48 13 60 33l-1-100h32l1 261h-30c-2-10 0-23-3-31C134-8 116 4 85 4 32 4 16-35 15-94c0-66 23-100 70-100zm9 24c-40 0-46 34-46 75 0 40 6 74 45 74 42 0 51-32 51-76 0-42-9-74-50-73" id="ae"/><g id="b"><use transform="matrix(0.05,0,0,0.05,0,0)" xlink:href="#ad"/><use transform="matrix(0.05,0,0,0.05,5,0)" xlink:href="#ae"/></g><g id="c"><use transform="matrix(0.05,0,0,0.05,0,0)" xlink:href="#ab"/><use transform="matrix(0.05,0,0,0.05,3.95,0)" xlink:href="#T"/><use transform="matrix(0.05,0,0,0.05,13.949999999999998,0)" xlink:href="#U"/></g><path fill="#333" d="M232-93c-1 65-40 97-104 97C67 4 28-28 28-90v-158h33c8 89-33 224 67 224 102 0 64-133 71-224h33v155" id="af"/><g id="d"><use transform="matrix(0.05,0,0,0.05,0,0)" xlink:href="#af"/><use transform="matrix(0.05,0,0,0.05,12.950000000000001,0)" xlink:href="#Z"/><use transform="matrix(0.05,0,0,0.05,21.950000000000003,0)" xlink:href="#S"/><use transform="matrix(0.05,0,0,0.05,31.950000000000003,0)" xlink:href="#Y"/><use transform="matrix(0.05,0,0,0.05,37.900000000000006,0)" xlink:href="#ad"/><use transform="matrix(0.05,0,0,0.05,42.900000000000006,0)" xlink:href="#ae"/></g><path fill="#333" d="M30-248c87 1 191-15 191 75 0 78-77 80-158 76V0H30v-248zm33 125c57 0 124 11 124-50 0-59-68-47-124-48v98" id="ag"/><path fill="#333" d="M108 0H70L1-190h34L89-25l56-165h34" id="ah"/><g id="e"><use transform="matrix(0.05,0,0,0.05,0,0)" xlink:href="#ag"/><use transform="matrix(0.05,0,0,0.05,12,0)" xlink:href="#Y"/><use transform="matrix(0.05,0,0,0.05,17.95,0)" xlink:href="#ac"/><use transform="matrix(0.05,0,0,0.05,27.950000000000003,0)" xlink:href="#ah"/><use transform="matrix(0.05,0,0,0.05,36.95,0)" xlink:href="#ab"/><use transform="matrix(0.05,0,0,0.05,40.900000000000006,0)" xlink:href="#ae"/><use transform="matrix(0.05,0,0,0.05,50.900000000000006,0)" xlink:href="#S"/><use transform="matrix(0.05,0,0,0.05,60.900000000000006,0)" xlink:href="#Y"/><use transform="matrix(0.05,0,0,0.05,66.85000000000001,0)" xlink:href="#ad"/><use transform="matrix(0.05,0,0,0.05,71.85000000000001,0)" xlink:href="#ae"/></g><path fill="#333" d="M140-251c81 0 123 46 123 126C263-46 219 4 140 4 59 4 17-45 17-125s42-126 123-126zm0 227c63 0 89-41 89-101s-29-99-89-99c-61 0-89 39-89 99S79-25 140-24" id="ai"/><path fill="#333" d="M84 4C-5 8 30-112 23-190h32v120c0 31 7 50 39 49 72-2 45-101 50-169h31l1 190h-30c-1-10 1-25-2-33-11 22-28 36-60 37" id="aj"/><g id="f"><use transform="matrix(0.05,0,0,0.05,0,0)" xlink:href="#R"/><use transform="matrix(0.05,0,0,0.05,12.950000000000001,0)" xlink:href="#S"/><use transform="matrix(0.05,0,0,0.05,22.950000000000003,0)" xlink:href="#T"/><use transform="matrix(0.05,0,0,0.05,32.95,0)" xlink:href="#U"/><use transform="matrix(0.05,0,0,0.05,37.95,0)" xlink:href="#V"/><use transform="matrix(0.05,0,0,0.05,47.95,0)" xlink:href="#W"/><use transform="matrix(0.05,0,0,0.05,51.900000000000006,0)" xlink:href="#ai"/><use transform="matrix(0.05,0,0,0.05,65.9,0)" xlink:href="#aj"/><use transform="matrix(0.05,0,0,0.05,75.9,0)" xlink:href="#U"/><use transform="matrix(0.05,0,0,0.05,80.9,0)" xlink:href="#S"/><use transform="matrix(0.05,0,0,0.05,90.9,0)" xlink:href="#Y"/><use transform="matrix(0.05,0,0,0.05,96.85000000000001,0)" xlink:href="#ad"/><use transform="matrix(0.05,0,0,0.05,101.85000000000001,0)" xlink:href="#ae"/></g><path fill="#333" d="M177-190C167-65 218 103 67 71c-23-6-38-20-44-43l32-5c15 47 100 32 89-28v-30C133-14 115 1 83 1 29 1 15-40 15-95c0-56 16-97 71-98 29-1 48 16 59 35 1-10 0-23 2-32h30zM94-22c36 0 50-32 50-73 0-42-14-75-50-75-39 0-46 34-46 75s6 73 46 73" id="ak"/><g id="g"><use transform="matrix(0.05,0,0,0.05,0,0)" xlink:href="#Z"/><use transform="matrix(0.05,0,0,0.05,9,0)" xlink:href="#U"/><use transform="matrix(0.05,0,0,0.05,14,0)" xlink:href="#Y"/><use transform="matrix(0.05,0,0,0.05,19.95,0)" xlink:href="#ab"/><use transform="matrix(0.05,0,0,0.05,23.9,0)" xlink:href="#T"/><use transform="matrix(0.05,0,0,0.05,33.9,0)" xlink:href="#ak"/></g><path fill="#333" d="M30-248c118-7 216 8 213 122C240-48 200 0 122 0H30v-248zM63-27c89 8 146-16 146-99s-60-101-146-95v194" id="al"/><path fill="#333" d="M179-190L93 31C79 59 56 82 12 73V49c39 6 53-20 64-50L1-190h34L92-34l54-156h33" id="am"/><g id="h"><use transform="matrix(0.05,0,0,0.05,0,0)" xlink:href="#R"/><use transform="matrix(0.05,0,0,0.05,12.950000000000001,0)" xlink:href="#S"/><use transform="matrix(0.05,0,0,0.05,22.950000000000003,0)" xlink:href="#T"/><use transform="matrix(0.05,0,0,0.05,32.95,0)" xlink:href="#U"/><use transform="matrix(0.05,0,0,0.05,37.95,0)" xlink:href="#V"/><use transform="matrix(0.05,0,0,0.05,47.95,0)" xlink:href="#W"/><use transform="matrix(0.05,0,0,0.05,51.900000000000006,0)" xlink:href="#ag"/><use transform="matrix(0.05,0,0,0.05,63.900000000000006,0)" xlink:href="#Y"/><use transform="matrix(0.05,0,0,0.05,69.85000000000001,0)" xlink:href="#ab"/><use transform="matrix(0.05,0,0,0.05,73.80000000000001,0)" xlink:href="#aa"/><use transform="matrix(0.05,0,0,0.05,82.80000000000001,0)" xlink:href="#S"/><use transform="matrix(0.05,0,0,0.05,92.80000000000001,0)" xlink:href="#ag"/><use transform="matrix(0.05,0,0,0.05,104.80000000000001,0)" xlink:href="#S"/><use transform="matrix(0.05,0,0,0.05,114.80000000000001,0)" xlink:href="#Y"/><use transform="matrix(0.05,0,0,0.05,120.75,0)" xlink:href="#al"/><use transform="matrix(0.05,0,0,0.05,133.70000000000002,0)" xlink:href="#V"/><use transform="matrix(0.05,0,0,0.05,143.70000000000002,0)" xlink:href="#am"/></g><path fill="#333" d="M210-169c-67 3-38 105-44 169h-31v-121c0-29-5-50-35-48C34-165 62-65 56 0H25l-1-190h30c1 10-1 24 2 32 10-44 99-50 107 0 11-21 27-35 58-36 85-2 47 119 55 194h-31v-121c0-29-5-49-35-48" id="an"/><g id="i"><use transform="matrix(0.05,0,0,0.05,0,0)" xlink:href="#ae"/><use transform="matrix(0.05,0,0,0.05,10,0)" xlink:href="#S"/><use transform="matrix(0.05,0,0,0.05,20,0)" xlink:href="#aa"/><use transform="matrix(0.05,0,0,0.05,29,0)" xlink:href="#ab"/><use transform="matrix(0.05,0,0,0.05,32.95,0)" xlink:href="#an"/><use transform="matrix(0.05,0,0,0.05,47.900000000000006,0)" xlink:href="#V"/><use transform="matrix(0.05,0,0,0.05,57.900000000000006,0)" xlink:href="#W"/></g><g id="j"><use transform="matrix(0.05,0,0,0.05,0,0)" xlink:href="#ad"/><use transform="matrix(0.05,0,0,0.05,5,0)" xlink:href="#T"/><use transform="matrix(0.05,0,0,0.05,15,0)" xlink:href="#Z"/><use transform="matrix(0.05,0,0,0.05,24,0)" xlink:href="#aj"/><use transform="matrix(0.05,0,0,0.05,34,0)" xlink:href="#Y"/><use transform="matrix(0.05,0,0,0.05,39.95,0)" xlink:href="#V"/><use transform="matrix(0.05,0,0,0.05,49.95,0)" xlink:href="#T"/><use transform="matrix(0.05,0,0,0.05,59.95,0)" xlink:href="#aa"/><use transform="matrix(0.05,0,0,0.05,68.95,0)" xlink:href="#S"/><use transform="matrix(0.05,0,0,0.05,78.95,0)" xlink:href="#ag"/><use transform="matrix(0.05,0,0,0.05,90.95,0)" xlink:href="#Y"/><use transform="matrix(0.05,0,0,0.05,96.9,0)" xlink:href="#ab"/><use transform="matrix(0.05,0,0,0.05,100.85000000000001,0)" xlink:href="#aa"/><use transform="matrix(0.05,0,0,0.05,109.85000000000001,0)" xlink:href="#S"/><use transform="matrix(0.05,0,0,0.05,119.85000000000001,0)" xlink:href="#ag"/><use transform="matrix(0.05,0,0,0.05,131.85000000000002,0)" xlink:href="#S"/><use transform="matrix(0.05,0,0,0.05,141.85000000000002,0)" xlink:href="#Y"/><use transform="matrix(0.05,0,0,0.05,147.8,0)" xlink:href="#al"/><use transform="matrix(0.05,0,0,0.05,160.75,0)" xlink:href="#V"/><use transform="matrix(0.05,0,0,0.05,170.75,0)" xlink:href="#am"/></g><path fill="#333" d="M205 0l-28-72H64L36 0H1l101-248h38L239 0h-34zm-38-99l-47-123c-12 45-31 82-46 123h93" id="ao"/><g id="k"><use transform="matrix(0.05,0,0,0.05,0,0)" xlink:href="#R"/><use transform="matrix(0.05,0,0,0.05,12.950000000000001,0)" xlink:href="#S"/><use transform="matrix(0.05,0,0,0.05,22.950000000000003,0)" xlink:href="#T"/><use transform="matrix(0.05,0,0,0.05,32.95,0)" xlink:href="#U"/><use transform="matrix(0.05,0,0,0.05,37.95,0)" xlink:href="#S"/><use transform="matrix(0.05,0,0,0.05,47.95,0)" xlink:href="#ae"/><use transform="matrix(0.05,0,0,0.05,57.95,0)" xlink:href="#ao"/><use transform="matrix(0.05,0,0,0.05,69.95,0)" xlink:href="#U"/></g><g id="l"><use transform="matrix(0.05,0,0,0.05,0,0)" xlink:href="#al"/><use transform="matrix(0.05,0,0,0.05,12.950000000000001,0)" xlink:href="#V"/><use transform="matrix(0.05,0,0,0.05,22.950000000000003,0)" xlink:href="#U"/><use transform="matrix(0.05,0,0,0.05,27.950000000000003,0)" xlink:href="#S"/><use transform="matrix(0.05,0,0,0.05,37.95,0)" xlink:href="#X"/><use transform="matrix(0.05,0,0,0.05,48.25000000000001,0)" xlink:href="#ab"/><use transform="matrix(0.05,0,0,0.05,52.20000000000002,0)" xlink:href="#an"/><use transform="matrix(0.05,0,0,0.05,67.15,0)" xlink:href="#S"/></g><g id="m"><use transform="matrix(0.05,0,0,0.05,0,0)" xlink:href="#R"/><use transform="matrix(0.05,0,0,0.05,12.950000000000001,0)" xlink:href="#S"/><use transform="matrix(0.05,0,0,0.05,22.950000000000003,0)" xlink:href="#U"/><use transform="matrix(0.05,0,0,0.05,27.950000000000003,0)" xlink:href="#aj"/><use transform="matrix(0.05,0,0,0.05,37.95,0)" xlink:href="#Y"/><use transform="matrix(0.05,0,0,0.05,43.900000000000006,0)" xlink:href="#T"/><use transform="matrix(0.05,0,0,0.05,53.900000000000006,0)" xlink:href="#S"/><use transform="matrix(0.05,0,0,0.05,63.900000000000006,0)" xlink:href="#ae"/><use transform="matrix(0.05,0,0,0.05,73.9,0)" xlink:href="#ao"/><use transform="matrix(0.05,0,0,0.05,85.9,0)" xlink:href="#U"/></g><path fill="#333" d="M103-251c84 0 111 97 45 133-19 10-37 24-39 52H78c0-63 77-55 77-114 0-30-21-42-52-43-32 0-53 17-56 46l-32-2c7-45 34-72 88-72zM77 0v-35h34V0H77" id="ap"/><g id="n"><use transform="matrix(0.05,0,0,0.05,0,0)" xlink:href="#al"/><use transform="matrix(0.05,0,0,0.05,12.950000000000001,0)" xlink:href="#V"/><use transform="matrix(0.05,0,0,0.05,22.950000000000003,0)" xlink:href="#U"/><use transform="matrix(0.05,0,0,0.05,27.950000000000003,0)" xlink:href="#S"/><use transform="matrix(0.05,0,0,0.05,37.95,0)" xlink:href="#X"/><use transform="matrix(0.05,0,0,0.05,48.25000000000001,0)" xlink:href="#ab"/><use transform="matrix(0.05,0,0,0.05,52.20000000000002,0)" xlink:href="#an"/><use transform="matrix(0.05,0,0,0.05,67.15,0)" xlink:href="#S"/><use transform="matrix(0.05,0,0,0.05,77.15,0)" xlink:href="#ap"/></g><path fill="#333" d="M212-179c-10-28-35-45-73-45-59 0-87 40-87 99 0 60 29 101 89 101 43 0 62-24 78-52l27 14C228-24 195 4 139 4 59 4 22-46 18-125c-6-104 99-153 187-111 19 9 31 26 39 46" id="aq"/><g id="o"><use transform="matrix(0.05,0,0,0.05,0,0)" xlink:href="#aq"/><use transform="matrix(0.05,0,0,0.05,12.950000000000001,0)" xlink:href="#V"/><use transform="matrix(0.05,0,0,0.05,22.950000000000003,0)" xlink:href="#Y"/><use transform="matrix(0.05,0,0,0.05,28.900000000000002,0)" xlink:href="#al"/><use transform="matrix(0.05,0,0,0.05,41.85,0)" xlink:href="#S"/><use transform="matrix(0.05,0,0,0.05,51.85,0)" xlink:href="#U"/><use transform="matrix(0.05,0,0,0.05,56.85,0)" xlink:href="#V"/><use transform="matrix(0.05,0,0,0.05,66.85,0)" xlink:href="#ab"/><use transform="matrix(0.05,0,0,0.05,70.8,0)" xlink:href="#W"/><use transform="matrix(0.05,0,0,0.05,74.75,0)" xlink:href="#Z"/><use transform="matrix(0.05,0,0,0.05,83.75,0)" xlink:href="#ad"/><use transform="matrix(0.05,0,0,0.05,88.75,0)" xlink:href="#ae"/></g><path fill="#333" d="M185-189c-5-48-123-54-124 2 14 75 158 14 163 119 3 78-121 87-175 55-17-10-28-26-33-46l33-7c5 56 141 63 141-1 0-78-155-14-162-118-5-82 145-84 179-34 5 7 8 16 11 25" id="ar"/><g id="p"><use transform="matrix(0.05,0,0,0.05,0,0)" xlink:href="#ar"/><use transform="matrix(0.05,0,0,0.05,12,0)" xlink:href="#U"/><use transform="matrix(0.05,0,0,0.05,17,0)" xlink:href="#V"/><use transform="matrix(0.05,0,0,0.05,27,0)" xlink:href="#U"/><use transform="matrix(0.05,0,0,0.05,32,0)" xlink:href="#aj"/><use transform="matrix(0.05,0,0,0.05,42,0)" xlink:href="#Z"/></g><path fill="#333" d="M30 0v-248h187v28H63v79h144v27H63v87h162V0H30" id="as"/><g id="q"><use transform="matrix(0.05,0,0,0.05,0,0)" xlink:href="#as"/><use transform="matrix(0.05,0,0,0.05,12,0)" xlink:href="#T"/><use transform="matrix(0.05,0,0,0.05,22,0)" xlink:href="#aj"/><use transform="matrix(0.05,0,0,0.05,32,0)" xlink:href="#an"/></g><path fill="#333" d="M115-194c55 1 70 41 70 98S169 2 115 4C84 4 66-9 55-30l1 105H24l-1-265h31l2 30c10-21 28-34 59-34zm-8 174c40 0 45-34 45-75s-6-73-45-74c-42 0-51 32-51 76 0 43 10 73 51 73" id="at"/><g id="r"><use transform="matrix(0.05,0,0,0.05,0,0)" xlink:href="#al"/><use transform="matrix(0.05,0,0,0.05,12.950000000000001,0)" xlink:href="#S"/><use transform="matrix(0.05,0,0,0.05,22.950000000000003,0)" xlink:href="#Z"/><use transform="matrix(0.05,0,0,0.05,31.950000000000003,0)" xlink:href="#aa"/><use transform="matrix(0.05,0,0,0.05,40.95,0)" xlink:href="#Y"/><use transform="matrix(0.05,0,0,0.05,46.900000000000006,0)" xlink:href="#ab"/><use transform="matrix(0.05,0,0,0.05,50.85000000000001,0)" xlink:href="#at"/><use transform="matrix(0.05,0,0,0.05,60.85,0)" xlink:href="#U"/><use transform="matrix(0.05,0,0,0.05,65.85000000000001,0)" xlink:href="#ab"/><use transform="matrix(0.05,0,0,0.05,69.80000000000001,0)" xlink:href="#ac"/><use transform="matrix(0.05,0,0,0.05,79.80000000000001,0)" xlink:href="#T"/></g><g id="s"><use transform="matrix(0.05,0,0,0.05,0,0)" xlink:href="#Z"/><use transform="matrix(0.05,0,0,0.05,9,0)" xlink:href="#U"/><use transform="matrix(0.05,0,0,0.05,14,0)" xlink:href="#Y"/><use transform="matrix(0.05,0,0,0.05,19.95,0)" xlink:href="#ab"/><use transform="matrix(0.05,0,0,0.05,23.9,0)" xlink:href="#T"/><use transform="matrix(0.05,0,0,0.05,33.9,0)" xlink:href="#ak"/><use transform="matrix(0.05,0,0,0.05,43.9,0)" xlink:href="#ap"/></g><g id="t"><use transform="matrix(0.05,0,0,0.05,0,0)" xlink:href="#ad"/><use transform="matrix(0.05,0,0,0.05,5,0)" xlink:href="#an"/><use transform="matrix(0.05,0,0,0.05,19.950000000000003,0)" xlink:href="#V"/><use transform="matrix(0.05,0,0,0.05,29.950000000000003,0)" xlink:href="#ak"/><use transform="matrix(0.05,0,0,0.05,39.95,0)" xlink:href="#S"/></g><g id="u"><use transform="matrix(0.05,0,0,0.05,0,0)" xlink:href="#af"/><use transform="matrix(0.05,0,0,0.05,12.950000000000001,0)" xlink:href="#Z"/><use transform="matrix(0.05,0,0,0.05,21.950000000000003,0)" xlink:href="#S"/><use transform="matrix(0.05,0,0,0.05,31.950000000000003,0)" xlink:href="#Y"/></g><g id="v"><use transform="matrix(0.05,0,0,0.05,0,0)" xlink:href="#as"/><use transform="matrix(0.05,0,0,0.05,12,0)" xlink:href="#an"/><use transform="matrix(0.05,0,0,0.05,26.950000000000003,0)" xlink:href="#V"/><use transform="matrix(0.05,0,0,0.05,36.95,0)" xlink:href="#ab"/><use transform="matrix(0.05,0,0,0.05,40.900000000000006,0)" xlink:href="#W"/></g><path fill="#333" d="M190 0L58-211 59 0H30v-248h39L202-35l-2-213h31V0h-41" id="au"/><g id="w"><use transform="matrix(0.05,0,0,0.05,0,0)" xlink:href="#au"/><use transform="matrix(0.05,0,0,0.05,12.950000000000001,0)" xlink:href="#V"/><use transform="matrix(0.05,0,0,0.05,22.950000000000003,0)" xlink:href="#an"/><use transform="matrix(0.05,0,0,0.05,37.900000000000006,0)" xlink:href="#S"/></g><path fill="#333" d="M30 0v-248h33v221h125V0H30" id="av"/><g id="x"><use transform="matrix(0.05,0,0,0.05,0,0)" xlink:href="#av"/><use transform="matrix(0.05,0,0,0.05,10,0)" xlink:href="#V"/><use transform="matrix(0.05,0,0,0.05,20,0)" xlink:href="#Z"/><use transform="matrix(0.05,0,0,0.05,29,0)" xlink:href="#U"/><use transform="matrix(0.05,0,0,0.05,34,0)" xlink:href="#T"/><use transform="matrix(0.05,0,0,0.05,44,0)" xlink:href="#V"/><use transform="matrix(0.05,0,0,0.05,54,0)" xlink:href="#an"/><use transform="matrix(0.05,0,0,0.05,68.95,0)" xlink:href="#S"/></g><path fill="#333" d="M160-131c35 5 61 23 61 61C221 17 115-2 30 0v-248c76 3 177-17 177 60 0 33-19 50-47 57zm-97-11c50-1 110 9 110-42 0-47-63-36-110-37v79zm0 115c55-2 124 14 124-45 0-56-70-42-124-44v89" id="aw"/><path fill="#333" d="M106-169C34-169 62-67 57 0H25v-261h32l-1 103c12-21 28-36 61-36 89 0 53 116 60 194h-32v-121c2-32-8-49-39-48" id="ax"/><g id="y"><use transform="matrix(0.05,0,0,0.05,0,0)" xlink:href="#aw"/><use transform="matrix(0.05,0,0,0.05,12,0)" xlink:href="#ab"/><use transform="matrix(0.05,0,0,0.05,15.949999999999998,0)" xlink:href="#Y"/><use transform="matrix(0.05,0,0,0.05,21.9,0)" xlink:href="#U"/><use transform="matrix(0.05,0,0,0.05,26.899999999999995,0)" xlink:href="#ax"/><use transform="matrix(0.05,0,0,0.05,36.9,0)" xlink:href="#ae"/><use transform="matrix(0.05,0,0,0.05,46.9,0)" xlink:href="#V"/><use transform="matrix(0.05,0,0,0.05,56.900000000000006,0)" xlink:href="#am"/></g><path fill="#333" d="M63-220v92h138v28H63V0H30v-248h175v28H63" id="ay"/><g id="z"><use transform="matrix(0.05,0,0,0.05,0,0)" xlink:href="#al"/><use transform="matrix(0.05,0,0,0.05,12.950000000000001,0)" xlink:href="#Y"/><use transform="matrix(0.05,0,0,0.05,18.900000000000002,0)" xlink:href="#ab"/><use transform="matrix(0.05,0,0,0.05,22.85,0)" xlink:href="#ah"/><use transform="matrix(0.05,0,0,0.05,31.85,0)" xlink:href="#ab"/><use transform="matrix(0.05,0,0,0.05,35.800000000000004,0)" xlink:href="#T"/><use transform="matrix(0.05,0,0,0.05,45.800000000000004,0)" xlink:href="#ak"/><use transform="matrix(0.05,0,0,0.05,55.800000000000004,0)" xlink:href="#av"/><use transform="matrix(0.05,0,0,0.05,65.80000000000001,0)" xlink:href="#ab"/><use transform="matrix(0.05,0,0,0.05,69.75000000000001,0)" xlink:href="#aa"/><use transform="matrix(0.05,0,0,0.05,78.75000000000001,0)" xlink:href="#S"/><use transform="matrix(0.05,0,0,0.05,88.75000000000001,0)" xlink:href="#T"/><use transform="matrix(0.05,0,0,0.05,98.75000000000001,0)" xlink:href="#Z"/><use transform="matrix(0.05,0,0,0.05,107.75,0)" xlink:href="#S"/><use transform="matrix(0.05,0,0,0.05,117.75,0)" xlink:href="#ay"/><use transform="matrix(0.05,0,0,0.05,128.70000000000002,0)" xlink:href="#V"/><use transform="matrix(0.05,0,0,0.05,138.70000000000002,0)" xlink:href="#U"/><use transform="matrix(0.05,0,0,0.05,143.70000000000002,0)" xlink:href="#S"/></g><g id="A"><use transform="matrix(0.05,0,0,0.05,0,0)" xlink:href="#av"/><use transform="matrix(0.05,0,0,0.05,10,0)" xlink:href="#ac"/><use transform="matrix(0.05,0,0,0.05,20,0)" xlink:href="#T"/><use transform="matrix(0.05,0,0,0.05,30,0)" xlink:href="#ak"/><use transform="matrix(0.05,0,0,0.05,40,0)" xlink:href="#ab"/><use transform="matrix(0.05,0,0,0.05,43.95,0)" xlink:href="#U"/><use transform="matrix(0.05,0,0,0.05,48.95,0)" xlink:href="#aj"/><use transform="matrix(0.05,0,0,0.05,58.95,0)" xlink:href="#ae"/><use transform="matrix(0.05,0,0,0.05,68.95,0)" xlink:href="#S"/></g><g id="B"><use transform="matrix(0.05,0,0,0.05,0,0)" xlink:href="#av"/><use transform="matrix(0.05,0,0,0.05,10,0)" xlink:href="#V"/><use transform="matrix(0.05,0,0,0.05,20,0)" xlink:href="#U"/><use transform="matrix(0.05,0,0,0.05,25,0)" xlink:href="#ab"/><use transform="matrix(0.05,0,0,0.05,28.950000000000003,0)" xlink:href="#U"/><use transform="matrix(0.05,0,0,0.05,33.95,0)" xlink:href="#aj"/><use transform="matrix(0.05,0,0,0.05,43.95,0)" xlink:href="#ae"/><use transform="matrix(0.05,0,0,0.05,53.95,0)" xlink:href="#S"/></g><g id="C"><use transform="matrix(0.05,0,0,0.05,0,0)" xlink:href="#aq"/><use transform="matrix(0.05,0,0,0.05,12.950000000000001,0)" xlink:href="#V"/><use transform="matrix(0.05,0,0,0.05,22.950000000000003,0)" xlink:href="#Y"/><use transform="matrix(0.05,0,0,0.05,28.900000000000002,0)" xlink:href="#al"/><use transform="matrix(0.05,0,0,0.05,41.85,0)" xlink:href="#S"/><use transform="matrix(0.05,0,0,0.05,51.85,0)" xlink:href="#U"/><use transform="matrix(0.05,0,0,0.05,56.85,0)" xlink:href="#V"/><use transform="matrix(0.05,0,0,0.05,66.85,0)" xlink:href="#ab"/><use transform="matrix(0.05,0,0,0.05,70.8,0)" xlink:href="#W"/><use transform="matrix(0.05,0,0,0.05,74.75,0)" xlink:href="#Z"/></g><g id="D"><use transform="matrix(0.05,0,0,0.05,0,0)" xlink:href="#ai"/><use transform="matrix(0.05,0,0,0.05,14,0)" xlink:href="#aj"/><use transform="matrix(0.05,0,0,0.05,24,0)" xlink:href="#U"/><use transform="matrix(0.05,0,0,0.05,29,0)" xlink:href="#S"/><use transform="matrix(0.05,0,0,0.05,39,0)" xlink:href="#Y"/><use transform="matrix(0.05,0,0,0.05,44.95,0)" xlink:href="#ad"/><use transform="matrix(0.05,0,0,0.05,49.95,0)" xlink:href="#ae"/></g><path fill="#333" d="M240 0l2-218c-23 76-54 145-80 218h-23L58-218 59 0H30v-248h44l77 211c21-75 51-140 76-211h43V0h-30" id="az"/><path fill="#333" d="M143 0L79-87 56-68V0H24v-261h32v163l83-92h37l-77 82L181 0h-38" id="aA"/><g id="E"><use transform="matrix(0.05,0,0,0.05,0,0)" xlink:href="#az"/><use transform="matrix(0.05,0,0,0.05,14.950000000000001,0)" xlink:href="#V"/><use transform="matrix(0.05,0,0,0.05,24.950000000000003,0)" xlink:href="#aA"/><use transform="matrix(0.05,0,0,0.05,33.95,0)" xlink:href="#S"/></g><g id="F"><use transform="matrix(0.05,0,0,0.05,0,0)" xlink:href="#az"/><use transform="matrix(0.05,0,0,0.05,14.950000000000001,0)" xlink:href="#ac"/><use transform="matrix(0.05,0,0,0.05,24.950000000000003,0)" xlink:href="#ae"/><use transform="matrix(0.05,0,0,0.05,34.95,0)" xlink:href="#S"/><use transform="matrix(0.05,0,0,0.05,44.95,0)" xlink:href="#W"/></g><g id="G"><use transform="matrix(0.05,0,0,0.05,0,0)" xlink:href="#ar"/><use transform="matrix(0.05,0,0,0.05,12,0)" xlink:href="#S"/><use transform="matrix(0.05,0,0,0.05,22,0)" xlink:href="#ak"/><use transform="matrix(0.05,0,0,0.05,32,0)" xlink:href="#an"/><use transform="matrix(0.05,0,0,0.05,46.95,0)" xlink:href="#S"/><use transform="matrix(0.05,0,0,0.05,56.95,0)" xlink:href="#T"/><use transform="matrix(0.05,0,0,0.05,66.95,0)" xlink:href="#U"/></g><g id="H"><use transform="matrix(0.05,0,0,0.05,0,0)" xlink:href="#ay"/><use transform="matrix(0.05,0,0,0.05,10.950000000000001,0)" xlink:href="#aj"/><use transform="matrix(0.05,0,0,0.05,20.950000000000003,0)" xlink:href="#S"/><use transform="matrix(0.05,0,0,0.05,30.950000000000003,0)" xlink:href="#W"/><use transform="matrix(0.05,0,0,0.05,34.900000000000006,0)" xlink:href="#X"/><use transform="matrix(0.05,0,0,0.05,44.85000000000001,0)" xlink:href="#am"/><use transform="matrix(0.05,0,0,0.05,53.85,0)" xlink:href="#at"/><use transform="matrix(0.05,0,0,0.05,63.85,0)" xlink:href="#S"/></g><g id="I"><use transform="matrix(0.05,0,0,0.05,0,0)" xlink:href="#X"/><use transform="matrix(0.05,0,0,0.05,10.3,0)" xlink:href="#Y"/><use transform="matrix(0.05,0,0,0.05,16.25,0)" xlink:href="#V"/><use transform="matrix(0.05,0,0,0.05,26.25,0)" xlink:href="#T"/><use transform="matrix(0.05,0,0,0.05,36.25,0)" xlink:href="#Z"/><use transform="matrix(0.05,0,0,0.05,45.25,0)" xlink:href="#an"/><use transform="matrix(0.05,0,0,0.05,60.2,0)" xlink:href="#ab"/><use transform="matrix(0.05,0,0,0.05,64.15,0)" xlink:href="#Z"/><use transform="matrix(0.05,0,0,0.05,73.15,0)" xlink:href="#Z"/><use transform="matrix(0.05,0,0,0.05,82.15,0)" xlink:href="#ab"/><use transform="matrix(0.05,0,0,0.05,86.10000000000001,0)" xlink:href="#ac"/><use transform="matrix(0.05,0,0,0.05,96.10000000000001,0)" xlink:href="#T"/><use transform="matrix(0.05,0,0,0.05,106.10000000000001,0)" xlink:href="#X"/><use transform="matrix(0.05,0,0,0.05,116.05000000000001,0)" xlink:href="#am"/><use transform="matrix(0.05,0,0,0.05,125.05000000000001,0)" xlink:href="#at"/><use transform="matrix(0.05,0,0,0.05,135.05,0)" xlink:href="#S"/></g><path fill="#333" d="M137-103V0h-34v-103L8-248h37l75 118 75-118h37" id="aB"/><path fill="#333" d="M101-234c-31-9-42 10-38 44h38v23H63V0H32v-167H5v-23h27c-7-52 17-82 69-68v24" id="aC"/><g id="J"><use transform="matrix(0.05,0,0,0.05,0,0)" xlink:href="#aB"/><use transform="matrix(0.05,0,0,0.05,10.35,0)" xlink:href="#S"/><use transform="matrix(0.05,0,0,0.05,20.35,0)" xlink:href="#V"/><use transform="matrix(0.05,0,0,0.05,30.35,0)" xlink:href="#Y"/><use transform="matrix(0.05,0,0,0.05,36.300000000000004,0)" xlink:href="#ai"/><use transform="matrix(0.05,0,0,0.05,50.300000000000004,0)" xlink:href="#aC"/><use transform="matrix(0.05,0,0,0.05,55.300000000000004,0)" xlink:href="#ag"/><use transform="matrix(0.05,0,0,0.05,67.30000000000001,0)" xlink:href="#Y"/><use transform="matrix(0.05,0,0,0.05,73.25000000000001,0)" xlink:href="#ac"/><use transform="matrix(0.05,0,0,0.05,83.25000000000001,0)" xlink:href="#ae"/><use transform="matrix(0.05,0,0,0.05,93.25000000000001,0)" xlink:href="#aj"/><use transform="matrix(0.05,0,0,0.05,103.25,0)" xlink:href="#aa"/><use transform="matrix(0.05,0,0,0.05,112.25,0)" xlink:href="#U"/><use transform="matrix(0.05,0,0,0.05,117.25,0)" xlink:href="#ab"/><use transform="matrix(0.05,0,0,0.05,121.2,0)" xlink:href="#ac"/><use transform="matrix(0.05,0,0,0.05,131.20000000000002,0)" xlink:href="#T"/></g><path fill="#333" d="M115-194c53 0 69 39 70 98 0 66-23 100-70 100C84 3 66-7 56-30L54 0H23l1-261h32v101c10-23 28-34 59-34zm-8 174c40 0 45-34 45-75 0-40-5-75-45-74-42 0-51 32-51 76 0 43 10 73 51 73" id="aD"/><g id="K"><use transform="matrix(0.05,0,0,0.05,0,0)" xlink:href="#au"/><use transform="matrix(0.05,0,0,0.05,12.950000000000001,0)" xlink:href="#aj"/><use transform="matrix(0.05,0,0,0.05,22.950000000000003,0)" xlink:href="#an"/><use transform="matrix(0.05,0,0,0.05,37.900000000000006,0)" xlink:href="#aD"/><use transform="matrix(0.05,0,0,0.05,47.900000000000006,0)" xlink:href="#S"/><use transform="matrix(0.05,0,0,0.05,57.900000000000006,0)" xlink:href="#Y"/><use transform="matrix(0.05,0,0,0.05,63.85,0)" xlink:href="#ai"/><use transform="matrix(0.05,0,0,0.05,77.85000000000001,0)" xlink:href="#aC"/><use transform="matrix(0.05,0,0,0.05,82.85000000000001,0)" xlink:href="#al"/><use transform="matrix(0.05,0,0,0.05,95.80000000000001,0)" xlink:href="#ac"/><use transform="matrix(0.05,0,0,0.05,105.80000000000001,0)" xlink:href="#ac"/><use transform="matrix(0.05,0,0,0.05,115.80000000000001,0)" xlink:href="#Y"/><use transform="matrix(0.05,0,0,0.05,121.75,0)" xlink:href="#Z"/></g><g id="L"><use transform="matrix(0.05,0,0,0.05,0,0)" xlink:href="#ab"/><use transform="matrix(0.05,0,0,0.05,3.95,0)" xlink:href="#T"/><use transform="matrix(0.05,0,0,0.05,13.949999999999998,0)" xlink:href="#U"/><use transform="matrix(0.05,0,0,0.05,18.95,0)" xlink:href="#ap"/></g><g id="M"><use transform="matrix(0.05,0,0,0.05,0,0)" xlink:href="#au"/><use transform="matrix(0.05,0,0,0.05,12.950000000000001,0)" xlink:href="#aj"/><use transform="matrix(0.05,0,0,0.05,22.950000000000003,0)" xlink:href="#an"/><use transform="matrix(0.05,0,0,0.05,37.900000000000006,0)" xlink:href="#aD"/><use transform="matrix(0.05,0,0,0.05,47.900000000000006,0)" xlink:href="#S"/><use transform="matrix(0.05,0,0,0.05,57.900000000000006,0)" xlink:href="#Y"/><use transform="matrix(0.05,0,0,0.05,63.85,0)" xlink:href="#ai"/><use transform="matrix(0.05,0,0,0.05,77.85000000000001,0)" xlink:href="#aC"/><use transform="matrix(0.05,0,0,0.05,82.85000000000001,0)" xlink:href="#ar"/><use transform="matrix(0.05,0,0,0.05,94.85000000000001,0)" xlink:href="#S"/><use transform="matrix(0.05,0,0,0.05,104.85000000000001,0)" xlink:href="#V"/><use transform="matrix(0.05,0,0,0.05,114.85000000000001,0)" xlink:href="#U"/><use transform="matrix(0.05,0,0,0.05,119.85000000000001,0)" xlink:href="#Z"/></g><g id="N"><use transform="matrix(0.05,0,0,0.05,0,0)" xlink:href="#ag"/><use transform="matrix(0.05,0,0,0.05,12,0)" xlink:href="#Y"/><use transform="matrix(0.05,0,0,0.05,17.95,0)" xlink:href="#ac"/><use transform="matrix(0.05,0,0,0.05,27.950000000000003,0)" xlink:href="#ah"/><use transform="matrix(0.05,0,0,0.05,36.95,0)" xlink:href="#ab"/><use transform="matrix(0.05,0,0,0.05,40.900000000000006,0)" xlink:href="#ae"/><use transform="matrix(0.05,0,0,0.05,50.900000000000006,0)" xlink:href="#S"/><use transform="matrix(0.05,0,0,0.05,60.900000000000006,0)" xlink:href="#Y"/></g><g id="O"><use transform="matrix(0.05,0,0,0.05,0,0)" xlink:href="#as"/><use transform="matrix(0.05,0,0,0.05,12,0)" xlink:href="#an"/><use transform="matrix(0.05,0,0,0.05,26.950000000000003,0)" xlink:href="#at"/><use transform="matrix(0.05,0,0,0.05,36.95,0)" xlink:href="#W"/><use transform="matrix(0.05,0,0,0.05,40.900000000000006,0)" xlink:href="#ac"/><use transform="matrix(0.05,0,0,0.05,50.900000000000006,0)" xlink:href="#am"/><use transform="matrix(0.05,0,0,0.05,59.900000000000006,0)" xlink:href="#S"/><use transform="matrix(0.05,0,0,0.05,69.9,0)" xlink:href="#S"/></g><g id="P"><use transform="matrix(0.05,0,0,0.05,0,0)" xlink:href="#ay"/><use transform="matrix(0.05,0,0,0.05,10.950000000000001,0)" xlink:href="#ab"/><use transform="matrix(0.05,0,0,0.05,14.9,0)" xlink:href="#Y"/><use transform="matrix(0.05,0,0,0.05,20.85,0)" xlink:href="#Z"/><use transform="matrix(0.05,0,0,0.05,29.85,0)" xlink:href="#U"/><use transform="matrix(0.05,0,0,0.05,34.85,0)" xlink:href="#au"/><use transform="matrix(0.05,0,0,0.05,47.800000000000004,0)" xlink:href="#V"/><use transform="matrix(0.05,0,0,0.05,57.800000000000004,0)" xlink:href="#an"/><use transform="matrix(0.05,0,0,0.05,72.75,0)" xlink:href="#S"/></g><g id="Q"><use transform="matrix(0.05,0,0,0.05,0,0)" xlink:href="#av"/><use transform="matrix(0.05,0,0,0.05,10,0)" xlink:href="#V"/><use transform="matrix(0.05,0,0,0.05,20,0)" xlink:href="#Z"/><use transform="matrix(0.05,0,0,0.05,29,0)" xlink:href="#U"/><use transform="matrix(0.05,0,0,0.05,34,0)" xlink:href="#au"/><use transform="matrix(0.05,0,0,0.05,46.95,0)" xlink:href="#V"/><use transform="matrix(0.05,0,0,0.05,56.95,0)" xlink:href="#an"/><use transform="matrix(0.05,0,0,0.05,71.9,0)" xlink:href="#S"/></g></defs></g></svg>