<svg xmlns="http://www.w3.org/2000/svg" xmlns:xlink="http://www.w3.org/1999/xlink" xmlns:lucid="lucid" width="1616.5" height="1290.1"><g transform="translate(-1959.499999998395 569.6)" lucid:page-tab-id="0_0"><path d="M1500-1000h4500v2000H1500z" fill="#fff"/><path d="M1960-512a8 8 0 0 1 8-8h1584a8 8 0 0 1 8 8V712a8 8 0 0 1-8 8H1968a8 8 0 0 1-8-8z" stroke="#3a414a" fill="#edf5ff"/><path d="M2052.53-155a5 5 0 0 1 5-5h270a5 5 0 0 1 5 5v94a5 5 0 0 1-5 5h-270a5 5 0 0 1-5-5z" fill="#fff"/><path d="M2052.53-120v-35a5 5 0 0 1 5-5h270a5 5 0 0 1 5 5v35" fill="#dedeff"/><path d="M2052.53-155a5 5 0 0 1 5-5h270a5 5 0 0 1 5 5v94a5 5 0 0 1-5 5h-270a5 5 0 0 1-5-5zM2052.53-120h280M2192.53-120v64" stroke="#282c33" fill="none"/><use xlink:href="#a" transform="matrix(1,0,0,1,2062.533333333333,-160) translate(0 23.6)"/><use xlink:href="#b" transform="matrix(1,0,0,1,2057.533333333333,-117.5) translate(0 17.1)"/><use xlink:href="#c" transform="matrix(1,0,0,1,2197.533333333333,-117.5) translate(0 17.1)"/><use xlink:href="#d" transform="matrix(1,0,0,1,2057.533333333333,-85.5) translate(0 17.1)"/><use xlink:href="#e" transform="matrix(1,0,0,1,2197.533333333333,-85.5) translate(0 17.1)"/><path d="M2520-155a5 5 0 0 1 5-5h270a5 5 0 0 1 5 5v286a5 5 0 0 1-5 5h-270a5 5 0 0 1-5-5z" fill="#fff"/><path d="M2520-120v-35a5 5 0 0 1 5-5h270a5 5 0 0 1 5 5v35" fill="#dedeff"/><path d="M2520-155a5 5 0 0 1 5-5h270a5 5 0 0 1 5 5v286a5 5 0 0 1-5 5h-270a5 5 0 0 1-5-5zM2520-120h280M2675.57-120v256" stroke="#282c33" fill="none"/><use xlink:href="#f" transform="matrix(1,0,0,1,2530,-160) translate(0 23.6)"/><use xlink:href="#b" transform="matrix(1,0,0,1,2525,-117.5) translate(0 17.1)"/><use xlink:href="#c" transform="matrix(1,0,0,1,2680.5670768057435,-117.5) translate(0 17.1)"/><use xlink:href="#d" transform="matrix(1,0,0,1,2525,-85.5) translate(0 17.1)"/><use xlink:href="#e" transform="matrix(1,0,0,1,2680.5670768057435,-85.5) translate(0 17.1)"/><use xlink:href="#g" transform="matrix(1,0,0,1,2525,-53.5) translate(0 17.1)"/><use xlink:href="#c" transform="matrix(1,0,0,1,2680.5670768057435,-53.5) translate(0 17.1)"/><use xlink:href="#h" transform="matrix(1,0,0,1,2525,-21.5) translate(0 17.1)"/><use xlink:href="#c" transform="matrix(1,0,0,1,2680.5670768057435,-21.5) translate(0 17.1)"/><use xlink:href="#i" transform="matrix(1,0,0,1,2525,10.5) translate(0 17.1)"/><use xlink:href="#c" transform="matrix(1,0,0,1,2680.5670768057435,10.5) translate(0 17.1)"/><use xlink:href="#j" transform="matrix(1,0,0,1,2525,42.5) translate(0 17.1)"/><use xlink:href="#c" transform="matrix(1,0,0,1,2680.5670768057435,42.5) translate(0 17.1)"/><use xlink:href="#k" transform="matrix(1,0,0,1,2525,74.5) translate(0 17.1)"/><use xlink:href="#l" transform="matrix(1,0,0,1,2680.5670768057435,74.5) translate(0 17.1)"/><use xlink:href="#m" transform="matrix(1,0,0,1,2525,106.5) translate(0 17.1)"/><use xlink:href="#l" transform="matrix(1,0,0,1,2680.5670768057435,106.5) translate(0 17.1)"/><path d="M3060-155a5 5 0 0 1 5-5h339.4a5 5 0 0 1 5 5v286a5 5 0 0 1-5 5H3065a5 5 0 0 1-5-5z" fill="#fff"/><path d="M3060-120v-35a5 5 0 0 1 5-5h339.4a5 5 0 0 1 5 5v35" fill="#dedeff"/><path d="M3060-155a5 5 0 0 1 5-5h339.4a5 5 0 0 1 5 5v286a5 5 0 0 1-5 5H3065a5 5 0 0 1-5-5zM3060-120h349.4M3234.7-120v256" stroke="#282c33" fill="none"/><use xlink:href="#n" transform="matrix(1,0,0,1,3070,-160) translate(0 23.6)"/><use xlink:href="#b" transform="matrix(1,0,0,1,3065,-117.5) translate(0 17.1)"/><use xlink:href="#c" transform="matrix(1,0,0,1,3239.707359967868,-117.5) translate(0 17.1)"/><use xlink:href="#o" transform="matrix(1,0,0,1,3065,-85.5) translate(0 17.1)"/><use xlink:href="#c" transform="matrix(1,0,0,1,3239.707359967868,-85.5) translate(0 17.1)"/><use xlink:href="#p" transform="matrix(1,0,0,1,3065,-53.5) translate(0 17.1)"/><use xlink:href="#c" transform="matrix(1,0,0,1,3239.707359967868,-53.5) translate(0 17.1)"/><use xlink:href="#q" transform="matrix(1,0,0,1,3065,-21.5) translate(0 17.1)"/><use xlink:href="#l" transform="matrix(1,0,0,1,3239.707359967868,-21.5) translate(0 17.1)"/><use xlink:href="#r" transform="matrix(1,0,0,1,3065,10.5) translate(0 17.1)"/><use xlink:href="#l" transform="matrix(1,0,0,1,3239.707359967868,10.5) translate(0 17.1)"/><use xlink:href="#s" transform="matrix(1,0,0,1,3065,42.5) translate(0 17.1)"/><use xlink:href="#t" transform="matrix(1,0,0,1,3239.707359967868,42.5) translate(0 17.1)"/><use xlink:href="#u" transform="matrix(1,0,0,1,3065,74.5) translate(0 17.1)"/><use xlink:href="#t" transform="matrix(1,0,0,1,3239.707359967868,74.5) translate(0 17.1)"/><use xlink:href="#v" transform="matrix(1,0,0,1,3065,106.5) translate(0 17.1)"/><use xlink:href="#l" transform="matrix(1,0,0,1,3239.707359967868,106.5) translate(0 17.1)"/><path d="M2160 220.37a5 5 0 0 1 5-5h270a5 5 0 0 1 5 5v254a5 5 0 0 1-5 5h-270a5 5 0 0 1-5-5z" fill="#fff"/><path d="M2160 255.37v-35a5 5 0 0 1 5-5h270a5 5 0 0 1 5 5v35" fill="#dedeff"/><path d="M2160 220.37a5 5 0 0 1 5-5h270a5 5 0 0 1 5 5v254a5 5 0 0 1-5 5h-270a5 5 0 0 1-5-5zM2160 255.37h280M2300 255.37v224" stroke="#282c33" fill="none"/><use xlink:href="#w" transform="matrix(1,0,0,1,2170,215.36667310970597) translate(0 23.6)"/><use xlink:href="#b" transform="matrix(1,0,0,1,2165,257.86667310970597) translate(0 17.1)"/><use xlink:href="#c" transform="matrix(1,0,0,1,2305,257.86667310970597) translate(0 17.1)"/><use xlink:href="#x" transform="matrix(1,0,0,1,2165,289.86667310970597) translate(0 17.1)"/><use xlink:href="#c" transform="matrix(1,0,0,1,2305,289.86667310970597) translate(0 17.1)"/><use xlink:href="#y" transform="matrix(1,0,0,1,2165,321.86667310970597) translate(0 17.1)"/><use xlink:href="#z" transform="matrix(1,0,0,1,2305,321.86667310970597) translate(0 17.1)"/><use xlink:href="#A" transform="matrix(1,0,0,1,2165,353.86667310970597) translate(0 17.1)"/><use xlink:href="#B" transform="matrix(1,0,0,1,2305,353.86667310970597) translate(0 17.1)"/><use xlink:href="#C" transform="matrix(1,0,0,1,2165,385.86667310970597) translate(0 17.1)"/><use xlink:href="#B" transform="matrix(1,0,0,1,2305,385.86667310970597) translate(0 17.1)"/><use xlink:href="#u" transform="matrix(1,0,0,1,2165,417.86667310970597) translate(0 17.1)"/><use xlink:href="#t" transform="matrix(1,0,0,1,2305,417.86667310970597) translate(0 17.1)"/><use xlink:href="#s" transform="matrix(1,0,0,1,2165,449.86667310970597) translate(0 17.1)"/><use xlink:href="#D" transform="matrix(1,0,0,1,2305,449.86667310970597) translate(0 17.1)"/><path d="M3080 252.47a5 5 0 0 1 5-5h339.4a5 5 0 0 1 5 5v286a5 5 0 0 1-5 5H3085a5 5 0 0 1-5-5z" fill="#fff"/><path d="M3080 287.47v-35a5 5 0 0 1 5-5h339.4a5 5 0 0 1 5 5v35" fill="#dedeff"/><path d="M3080 252.47a5 5 0 0 1 5-5h339.4a5 5 0 0 1 5 5v286a5 5 0 0 1-5 5H3085a5 5 0 0 1-5-5zM3080 287.47h349.4M3281.22 287.47v256" stroke="#282c33" fill="none"/><use xlink:href="#E" transform="matrix(1,0,0,1,3090,247.46666666666715) translate(0 23.6)"/><use xlink:href="#b" transform="matrix(1,0,0,1,3085,289.96666666666715) translate(0 17.1)"/><use xlink:href="#c" transform="matrix(1,0,0,1,3286.216698531116,289.96666666666715) translate(0 17.1)"/><use xlink:href="#F" transform="matrix(1,0,0,1,3085,321.96666666666715) translate(0 17.1)"/><use xlink:href="#c" transform="matrix(1,0,0,1,3286.216698531116,321.96666666666715) translate(0 17.1)"/><use xlink:href="#G" transform="matrix(1,0,0,1,3085,353.96666666666715) translate(0 17.1)"/><use xlink:href="#z" transform="matrix(1,0,0,1,3286.216698531116,353.96666666666715) translate(0 17.1)"/><use xlink:href="#H" transform="matrix(1,0,0,1,3085,385.96666666666715) translate(0 17.1)"/><use xlink:href="#z" transform="matrix(1,0,0,1,3286.216698531116,385.96666666666715) translate(0 17.1)"/><use xlink:href="#I" transform="matrix(1,0,0,1,3085,417.96666666666715) translate(0 17.1)"/><use xlink:href="#t" transform="matrix(1,0,0,1,3286.216698531116,417.96666666666715) translate(0 17.1)"/><use xlink:href="#J" transform="matrix(1,0,0,1,3085,449.96666666666715) translate(0 17.1)"/><use xlink:href="#t" transform="matrix(1,0,0,1,3286.216698531116,449.96666666666715) translate(0 17.1)"/><use xlink:href="#K" transform="matrix(1,0,0,1,3085,481.96666666666715) translate(0 17.1)"/><use xlink:href="#e" transform="matrix(1,0,0,1,3286.216698531116,481.96666666666715) translate(0 17.1)"/><use xlink:href="#L" transform="matrix(1,0,0,1,3085,513.9666666666672) translate(0 17.1)"/><use xlink:href="#e" transform="matrix(1,0,0,1,3286.216698531116,513.9666666666672) translate(0 17.1)"/><path d="M2520-435a5 5 0 0 1 5-5h410a5 5 0 0 1 5 5v190a5 5 0 0 1-5 5h-410a5 5 0 0 1-5-5z" fill="#fff"/><path d="M2520-400v-35a5 5 0 0 1 5-5h410a5 5 0 0 1 5 5v35" fill="#dedeff"/><path d="M2520-435a5 5 0 0 1 5-5h410a5 5 0 0 1 5 5v190a5 5 0 0 1-5 5h-410a5 5 0 0 1-5-5zM2520-400h420M2730-400v160" stroke="#282c33" fill="none"/><use xlink:href="#M" transform="matrix(1,0,0,1,2530,-440) translate(0 23.6)"/><use xlink:href="#b" transform="matrix(1,0,0,1,2525,-397.5) translate(0 17.1)"/><use xlink:href="#c" transform="matrix(1,0,0,1,2735,-397.5) translate(0 17.1)"/><use xlink:href="#d" transform="matrix(1,0,0,1,2525,-365.5) translate(0 17.1)"/><use xlink:href="#e" transform="matrix(1,0,0,1,2735,-365.5) translate(0 17.1)"/><use xlink:href="#A" transform="matrix(1,0,0,1,2525,-333.5) translate(0 17.1)"/><use xlink:href="#B" transform="matrix(1,0,0,1,2735,-333.5) translate(0 17.1)"/><use xlink:href="#N" transform="matrix(1,0,0,1,2525,-301.5) translate(0 17.1)"/><use xlink:href="#t" transform="matrix(1,0,0,1,2735,-301.5) translate(0 17.1)"/><use xlink:href="#O" transform="matrix(1,0,0,1,2525,-269.5) translate(0 17.1)"/><use xlink:href="#c" transform="matrix(1,0,0,1,2735,-269.5) translate(0 17.1)"/><path d="M2052.53-435a5 5 0 0 1 5-5H2375a5 5 0 0 1 5 5v158a5 5 0 0 1-5 5h-317.47a5 5 0 0 1-5-5z" fill="#fff"/><path d="M2052.53-400v-35a5 5 0 0 1 5-5H2375a5 5 0 0 1 5 5v35" fill="#dedeff"/><path d="M2052.53-435a5 5 0 0 1 5-5H2375a5 5 0 0 1 5 5v158a5 5 0 0 1-5 5h-317.47a5 5 0 0 1-5-5zM2052.53-400H2380M2216.27-400v128" stroke="#282c33" fill="none"/><use xlink:href="#P" transform="matrix(1,0,0,1,2062.533333333333,-440) translate(0 23.6)"/><use xlink:href="#b" transform="matrix(1,0,0,1,2057.533333333333,-397.5) translate(0 17.1)"/><use xlink:href="#c" transform="matrix(1,0,0,1,2221.2666666666664,-397.5) translate(0 17.1)"/><use xlink:href="#d" transform="matrix(1,0,0,1,2057.533333333333,-365.5) translate(0 17.1)"/><use xlink:href="#e" transform="matrix(1,0,0,1,2221.2666666666664,-365.5) translate(0 17.1)"/><use xlink:href="#A" transform="matrix(1,0,0,1,2057.533333333333,-333.5) translate(0 17.1)"/><use xlink:href="#B" transform="matrix(1,0,0,1,2221.2666666666664,-333.5) translate(0 17.1)"/><use xlink:href="#N" transform="matrix(1,0,0,1,2057.533333333333,-301.5) translate(0 17.1)"/><use xlink:href="#t" transform="matrix(1,0,0,1,2221.2666666666664,-301.5) translate(0 17.1)"/><path d="M2620 252.47a5 5 0 0 1 5-5h270a5 5 0 0 1 5 5v158a5 5 0 0 1-5 5h-270a5 5 0 0 1-5-5z" fill="#fff"/><path d="M2620 287.47v-35a5 5 0 0 1 5-5h270a5 5 0 0 1 5 5v35" fill="#dedeff"/><path d="M2620 252.47a5 5 0 0 1 5-5h270a5 5 0 0 1 5 5v158a5 5 0 0 1-5 5h-270a5 5 0 0 1-5-5zM2620 287.47h280M2760 287.47v128" stroke="#282c33" fill="none"/><use xlink:href="#Q" transform="matrix(1,0,0,1,2630,247.46666666666715) translate(0 23.6)"/><use xlink:href="#b" transform="matrix(1,0,0,1,2625,289.96666666666715) translate(0 17.1)"/><use xlink:href="#c" transform="matrix(1,0,0,1,2765,289.96666666666715) translate(0 17.1)"/><use xlink:href="#R" transform="matrix(1,0,0,1,2625,321.96666666666715) translate(0 17.1)"/><use xlink:href="#c" transform="matrix(1,0,0,1,2765,321.96666666666715) translate(0 17.1)"/><use xlink:href="#S" transform="matrix(1,0,0,1,2625,353.96666666666715) translate(0 17.1)"/><use xlink:href="#e" transform="matrix(1,0,0,1,2765,353.96666666666715) translate(0 17.1)"/><use xlink:href="#v" transform="matrix(1,0,0,1,2625,385.96666666666715) translate(0 17.1)"/><use xlink:href="#l" transform="matrix(1,0,0,1,2765,385.96666666666715) translate(0 17.1)"/><path d="M2620 485a5 5 0 0 1 5-5h270a5 5 0 0 1 5 5v158a5 5 0 0 1-5 5h-270a5 5 0 0 1-5-5z" fill="#fff"/><path d="M2620 520v-35a5 5 0 0 1 5-5h270a5 5 0 0 1 5 5v35" fill="#dedeff"/><path d="M2620 485a5 5 0 0 1 5-5h270a5 5 0 0 1 5 5v158a5 5 0 0 1-5 5h-270a5 5 0 0 1-5-5zM2620 520h280M2760 520v128" stroke="#282c33" fill="none"/><use xlink:href="#T" transform="matrix(1,0,0,1,2630,480) translate(0 23.6)"/><use xlink:href="#b" transform="matrix(1,0,0,1,2625,522.5) translate(0 17.1)"/><use xlink:href="#c" transform="matrix(1,0,0,1,2765,522.5) translate(0 17.1)"/><use xlink:href="#U" transform="matrix(1,0,0,1,2625,554.5) translate(0 17.1)"/><use xlink:href="#e" transform="matrix(1,0,0,1,2765,554.5) translate(0 17.1)"/><use xlink:href="#V" transform="matrix(1,0,0,1,2625,586.5) translate(0 17.1)"/><use xlink:href="#e" transform="matrix(1,0,0,1,2765,586.5) translate(0 17.1)"/><use xlink:href="#W" transform="matrix(1,0,0,1,2625,618.5) translate(0 17.1)"/><use xlink:href="#e" transform="matrix(1,0,0,1,2765,618.5) translate(0 17.1)"/><path d="M2400.5-384h79M2380.5-384h20m-10 10v-20m10 20v-20" stroke="#3a414a" fill="none"/><path d="M2519.28-384h-20m20-10l-20 10m20 10l-20-10m0 0c0 5.52-4.48 10-10 10-5.53 0-10-4.48-10-10s4.47-10 10-10c5.52 0 10 4.48 10 10z" stroke="#3a414a" fill="#fff"/><path d="M2353.03-104h61.24a12 12 0 0 1 12 12v40a12 12 0 0 0 12 12h41.23M2333.03-104h20m-10 10v-20m10 20v-20" stroke="#3a414a" fill="none"/><path d="M2519.28-40h-20m20-10l-20 10m20 10l-20-10m0 0c0 5.52-4.48 10-10 10-5.53 0-10-4.48-10-10s4.47-10 10-10c5.52 0 10 4.48 10 10z" stroke="#3a414a" fill="#fff"/><path d="M2960.5-384h8a12 12 0 0 1 12 12v352a12 12 0 0 1-12 12h-128M2940.5-384h20m-10 10v-20m10 20v-20" stroke="#3a414a" fill="none"/><path d="M2800.72-8h20m-20 10l20-10m-20-10l20 10m20 0c0 5.52-4.47 10-10 10-5.52 0-10-4.48-10-10s4.48-10 10-10c5.53 0 10 4.48 10 10z" stroke="#3a414a" fill="#fff"/><path d="M2820.5-104h97.5a12 12 0 0 1 12 12v8a12 12 0 0 0 12 12h77.5M2800.5-104h20m-10 10v-20m10 20v-20" stroke="#3a414a" fill="none"/><path d="M3059.28-72h-20m20-10l-20 10m20 10l-20-10m0 0c0 5.52-4.48 10-10 10-5.53 0-10-4.48-10-10s4.47-10 10-10c5.52 0 10 4.48 10 10z" stroke="#3a414a" fill="#fff"/><path d="M3469.9 335.47V-92a12 12 0 0 0-12-12h-28" stroke="#3a414a" fill="none"/><path d="M3430.14 335.47h20m-20 10l20-10m-20-10l20 10m20 0c0 5.52-4.48 10-10 10-5.53 0-10-4.48-10-10 0-5.53 4.47-10 10-10 5.52 0 10 4.47 10 10z" stroke="#3a414a" fill="#fff"/><path d="M3409.9-104h20m-10 10v-20m10 20v-20M2920.5 367.6h8a12 12 0 0 1 12 12V524a12 12 0 0 1-12 12h-8M2900.72 367.6h20m-20 10l20-10m-20-10l20 10m0 10v-20M2900.5 536h20m-10 10v-20m10 20v-20M2940 335.48h119.5" stroke="#3a414a" fill="none"/><path d="M2900.5 335.48h20m-10 10v-20m30 10c0 5.52-4.48 10-10 10s-10-4.48-10-10 4.48-10 10-10 10 4.48 10 10z" stroke="#3a414a" fill="#fff"/><path d="M3079.5 335.47h-20m10-10v20m-10-20v20M2599.5 303.37H2480M2619.5 303.37h-20m10-10v20m-10-20v20" stroke="#3a414a" fill="none"/><path d="M2440.5 303.37h20m-10 10v-20m30 10c0 5.52-4.48 10-10 10s-10-4.48-10-10c0-5.53 4.48-10 10-10s10 4.47 10 10z" stroke="#3a414a" fill="#fff"/><defs><path fill="#333" d="M240 0l2-218c-23 76-54 145-80 218h-23L58-218 59 0H30v-248h44l77 211c21-75 51-140 76-211h43V0h-30" id="X"/><path fill="#333" d="M141-36C126-15 110 5 73 4 37 3 15-17 15-53c-1-64 63-63 125-63 3-35-9-54-41-54-24 1-41 7-42 31l-33-3c5-37 33-52 76-52 45 0 72 20 72 64v82c-1 20 7 32 28 27v20c-31 9-61-2-59-35zM48-53c0 20 12 33 32 33 41-3 63-29 60-74-43 2-92-5-92 41" id="Y"/><path fill="#333" d="M143 0L79-87 56-68V0H24v-261h32v163l83-92h37l-77 82L181 0h-38" id="Z"/><path fill="#333" d="M100-194c63 0 86 42 84 106H49c0 40 14 67 53 68 26 1 43-12 49-29l28 8c-11 28-37 45-77 45C44 4 14-33 15-96c1-61 26-98 85-98zm52 81c6-60-76-77-97-28-3 7-6 17-6 28h103" id="aa"/><g id="a"><use transform="matrix(0.05,0,0,0.05,0,0)" xlink:href="#X"/><use transform="matrix(0.05,0,0,0.05,14.950000000000001,0)" xlink:href="#Y"/><use transform="matrix(0.05,0,0,0.05,24.950000000000003,0)" xlink:href="#Z"/><use transform="matrix(0.05,0,0,0.05,33.95,0)" xlink:href="#aa"/></g><path fill="#333" d="M33 0v-248h34V0H33" id="ab"/><path fill="#333" d="M85-194c31 0 48 13 60 33l-1-100h32l1 261h-30c-2-10 0-23-3-31C134-8 116 4 85 4 32 4 16-35 15-94c0-66 23-100 70-100zm9 24c-40 0-46 34-46 75 0 40 6 74 45 74 42 0 51-32 51-76 0-42-9-74-50-73" id="ac"/><g id="b"><use transform="matrix(0.05,0,0,0.05,0,0)" xlink:href="#ab"/><use transform="matrix(0.05,0,0,0.05,5,0)" xlink:href="#ac"/></g><path fill="#333" d="M24-231v-30h32v30H24zM24 0v-190h32V0H24" id="ad"/><path fill="#333" d="M117-194c89-4 53 116 60 194h-32v-121c0-31-8-49-39-48C34-167 62-67 57 0H25l-1-190h30c1 10-1 24 2 32 11-22 29-35 61-36" id="ae"/><path fill="#333" d="M59-47c-2 24 18 29 38 22v24C64 9 27 4 27-40v-127H5v-23h24l9-43h21v43h35v23H59v120" id="af"/><g id="c"><use transform="matrix(0.05,0,0,0.05,0,0)" xlink:href="#ad"/><use transform="matrix(0.05,0,0,0.05,3.95,0)" xlink:href="#ae"/><use transform="matrix(0.05,0,0,0.05,13.949999999999998,0)" xlink:href="#af"/></g><path fill="#333" d="M190 0L58-211 59 0H30v-248h39L202-35l-2-213h31V0h-41" id="ag"/><path fill="#333" d="M210-169c-67 3-38 105-44 169h-31v-121c0-29-5-50-35-48C34-165 62-65 56 0H25l-1-190h30c1 10-1 24 2 32 10-44 99-50 107 0 11-21 27-35 58-36 85-2 47 119 55 194h-31v-121c0-29-5-49-35-48" id="ah"/><g id="d"><use transform="matrix(0.05,0,0,0.05,0,0)" xlink:href="#ag"/><use transform="matrix(0.05,0,0,0.05,12.950000000000001,0)" xlink:href="#Y"/><use transform="matrix(0.05,0,0,0.05,22.950000000000003,0)" xlink:href="#ah"/><use transform="matrix(0.05,0,0,0.05,37.900000000000006,0)" xlink:href="#aa"/></g><path fill="#333" d="M135-143c-3-34-86-38-87 0 15 53 115 12 119 90S17 21 10-45l28-5c4 36 97 45 98 0-10-56-113-15-118-90-4-57 82-63 122-42 12 7 21 19 24 35" id="ai"/><path fill="#333" d="M114-163C36-179 61-72 57 0H25l-1-190h30c1 12-1 29 2 39 6-27 23-49 58-41v29" id="aj"/><path fill="#333" d="M177-190C167-65 218 103 67 71c-23-6-38-20-44-43l32-5c15 47 100 32 89-28v-30C133-14 115 1 83 1 29 1 15-40 15-95c0-56 16-97 71-98 29-1 48 16 59 35 1-10 0-23 2-32h30zM94-22c36 0 50-32 50-73 0-42-14-75-50-75-39 0-46 34-46 75s6 73 46 73" id="ak"/><g id="e"><use transform="matrix(0.05,0,0,0.05,0,0)" xlink:href="#ai"/><use transform="matrix(0.05,0,0,0.05,9,0)" xlink:href="#af"/><use transform="matrix(0.05,0,0,0.05,14,0)" xlink:href="#aj"/><use transform="matrix(0.05,0,0,0.05,19.95,0)" xlink:href="#ad"/><use transform="matrix(0.05,0,0,0.05,23.9,0)" xlink:href="#ae"/><use transform="matrix(0.05,0,0,0.05,33.9,0)" xlink:href="#ak"/></g><path fill="#333" d="M100-194c62-1 85 37 85 99 1 63-27 99-86 99S16-35 15-95c0-66 28-99 85-99zM99-20c44 1 53-31 53-75 0-43-8-75-51-75s-53 32-53 75 10 74 51 75" id="al"/><path fill="#333" d="M24 0v-261h32V0H24" id="am"/><g id="f"><use transform="matrix(0.05,0,0,0.05,0,0)" xlink:href="#X"/><use transform="matrix(0.05,0,0,0.05,14.950000000000001,0)" xlink:href="#al"/><use transform="matrix(0.05,0,0,0.05,24.950000000000003,0)" xlink:href="#ac"/><use transform="matrix(0.05,0,0,0.05,34.95,0)" xlink:href="#aa"/><use transform="matrix(0.05,0,0,0.05,44.95,0)" xlink:href="#am"/></g><g id="g"><use transform="matrix(0.05,0,0,0.05,0,0)" xlink:href="#X"/><use transform="matrix(0.05,0,0,0.05,14.950000000000001,0)" xlink:href="#Y"/><use transform="matrix(0.05,0,0,0.05,24.950000000000003,0)" xlink:href="#Z"/><use transform="matrix(0.05,0,0,0.05,33.95,0)" xlink:href="#aa"/><use transform="matrix(0.05,0,0,0.05,43.95,0)" xlink:href="#ab"/><use transform="matrix(0.05,0,0,0.05,48.95,0)" xlink:href="#ac"/></g><path fill="#333" d="M185-189c-5-48-123-54-124 2 14 75 158 14 163 119 3 78-121 87-175 55-17-10-28-26-33-46l33-7c5 56 141 63 141-1 0-78-155-14-162-118-5-82 145-84 179-34 5 7 8 16 11 25" id="an"/><g id="h"><use transform="matrix(0.05,0,0,0.05,0,0)" xlink:href="#an"/><use transform="matrix(0.05,0,0,0.05,12,0)" xlink:href="#aa"/><use transform="matrix(0.05,0,0,0.05,22,0)" xlink:href="#ak"/><use transform="matrix(0.05,0,0,0.05,32,0)" xlink:href="#ah"/><use transform="matrix(0.05,0,0,0.05,46.95,0)" xlink:href="#aa"/><use transform="matrix(0.05,0,0,0.05,56.95,0)" xlink:href="#ae"/><use transform="matrix(0.05,0,0,0.05,66.95,0)" xlink:href="#af"/><use transform="matrix(0.05,0,0,0.05,71.95,0)" xlink:href="#ab"/><use transform="matrix(0.05,0,0,0.05,76.95,0)" xlink:href="#ac"/></g><path fill="#333" d="M84 4C-5 8 30-112 23-190h32v120c0 31 7 50 39 49 72-2 45-101 50-169h31l1 190h-30c-1-10 1-25-2-33-11 22-28 36-60 37" id="ao"/><path fill="#333" d="M115-194c53 0 69 39 70 98 0 66-23 100-70 100C84 3 66-7 56-30L54 0H23l1-261h32v101c10-23 28-34 59-34zm-8 174c40 0 45-34 45-75 0-40-5-75-45-74-42 0-51 32-51 76 0 43 10 73 51 73" id="ap"/><path fill="#333" d="M140-251c81 0 123 46 123 126C263-46 219 4 140 4 59 4 17-45 17-125s42-126 123-126zm0 227c63 0 89-41 89-101s-29-99-89-99c-61 0-89 39-89 99S79-25 140-24" id="aq"/><path fill="#333" d="M101-234c-31-9-42 10-38 44h38v23H63V0H32v-167H5v-23h27c-7-52 17-82 69-68v24" id="ar"/><path fill="#333" d="M30-248c118-7 216 8 213 122C240-48 200 0 122 0H30v-248zM63-27c89 8 146-16 146-99s-60-101-146-95v194" id="as"/><g id="i"><use transform="matrix(0.05,0,0,0.05,0,0)" xlink:href="#ag"/><use transform="matrix(0.05,0,0,0.05,12.950000000000001,0)" xlink:href="#ao"/><use transform="matrix(0.05,0,0,0.05,22.950000000000003,0)" xlink:href="#ah"/><use transform="matrix(0.05,0,0,0.05,37.900000000000006,0)" xlink:href="#ap"/><use transform="matrix(0.05,0,0,0.05,47.900000000000006,0)" xlink:href="#aa"/><use transform="matrix(0.05,0,0,0.05,57.900000000000006,0)" xlink:href="#aj"/><use transform="matrix(0.05,0,0,0.05,63.85,0)" xlink:href="#aq"/><use transform="matrix(0.05,0,0,0.05,77.85000000000001,0)" xlink:href="#ar"/><use transform="matrix(0.05,0,0,0.05,82.85000000000001,0)" xlink:href="#as"/><use transform="matrix(0.05,0,0,0.05,95.80000000000001,0)" xlink:href="#al"/><use transform="matrix(0.05,0,0,0.05,105.80000000000001,0)" xlink:href="#al"/><use transform="matrix(0.05,0,0,0.05,115.80000000000001,0)" xlink:href="#aj"/><use transform="matrix(0.05,0,0,0.05,121.75,0)" xlink:href="#ai"/></g><g id="j"><use transform="matrix(0.05,0,0,0.05,0,0)" xlink:href="#ag"/><use transform="matrix(0.05,0,0,0.05,12.950000000000001,0)" xlink:href="#ao"/><use transform="matrix(0.05,0,0,0.05,22.950000000000003,0)" xlink:href="#ah"/><use transform="matrix(0.05,0,0,0.05,37.900000000000006,0)" xlink:href="#ap"/><use transform="matrix(0.05,0,0,0.05,47.900000000000006,0)" xlink:href="#aa"/><use transform="matrix(0.05,0,0,0.05,57.900000000000006,0)" xlink:href="#aj"/><use transform="matrix(0.05,0,0,0.05,63.85,0)" xlink:href="#aq"/><use transform="matrix(0.05,0,0,0.05,77.85000000000001,0)" xlink:href="#ar"/><use transform="matrix(0.05,0,0,0.05,82.85000000000001,0)" xlink:href="#an"/><use transform="matrix(0.05,0,0,0.05,94.85000000000001,0)" xlink:href="#aa"/><use transform="matrix(0.05,0,0,0.05,104.85000000000001,0)" xlink:href="#Y"/><use transform="matrix(0.05,0,0,0.05,114.85000000000001,0)" xlink:href="#af"/><use transform="matrix(0.05,0,0,0.05,119.85000000000001,0)" xlink:href="#ai"/></g><path fill="#333" d="M30 0v-248h187v28H63v79h144v27H63v87h162V0H30" id="at"/><path fill="#333" d="M127-220V0H93v-220H8v-28h204v28h-85" id="au"/><path fill="#333" d="M179-190L93 31C79 59 56 82 12 73V49c39 6 53-20 64-50L1-190h34L92-34l54-156h33" id="av"/><path fill="#333" d="M115-194c55 1 70 41 70 98S169 2 115 4C84 4 66-9 55-30l1 105H24l-1-265h31l2 30c10-21 28-34 59-34zm-8 174c40 0 45-34 45-75s-6-73-45-74c-42 0-51 32-51 76 0 43 10 73 51 73" id="aw"/><g id="k"><use transform="matrix(0.05,0,0,0.05,0,0)" xlink:href="#at"/><use transform="matrix(0.05,0,0,0.05,12,0)" xlink:href="#ae"/><use transform="matrix(0.05,0,0,0.05,22,0)" xlink:href="#ak"/><use transform="matrix(0.05,0,0,0.05,32,0)" xlink:href="#ad"/><use transform="matrix(0.05,0,0,0.05,35.95,0)" xlink:href="#ae"/><use transform="matrix(0.05,0,0,0.05,45.95,0)" xlink:href="#aa"/><use transform="matrix(0.05,0,0,0.05,55.95,0)" xlink:href="#au"/><use transform="matrix(0.05,0,0,0.05,65.9,0)" xlink:href="#av"/><use transform="matrix(0.05,0,0,0.05,74.9,0)" xlink:href="#aw"/><use transform="matrix(0.05,0,0,0.05,84.9,0)" xlink:href="#aa"/></g><g id="l"><use transform="matrix(0.05,0,0,0.05,0,0)" xlink:href="#at"/><use transform="matrix(0.05,0,0,0.05,12,0)" xlink:href="#ae"/><use transform="matrix(0.05,0,0,0.05,22,0)" xlink:href="#ao"/><use transform="matrix(0.05,0,0,0.05,32,0)" xlink:href="#ah"/></g><path fill="#333" d="M266 0h-40l-56-210L115 0H75L2-248h35L96-30l15-64 43-154h32l59 218 59-218h35" id="ax"/><path fill="#333" d="M106-169C34-169 62-67 57 0H25v-261h32l-1 103c12-21 28-36 61-36 89 0 53 116 60 194h-32v-121c2-32-8-49-39-48" id="ay"/><path fill="#333" d="M108 0H70L1-190h34L89-25l56-165h34" id="az"/><g id="m"><use transform="matrix(0.05,0,0,0.05,0,0)" xlink:href="#ax"/><use transform="matrix(0.05,0,0,0.05,16.95,0)" xlink:href="#ay"/><use transform="matrix(0.05,0,0,0.05,26.950000000000003,0)" xlink:href="#aa"/><use transform="matrix(0.05,0,0,0.05,36.95,0)" xlink:href="#aa"/><use transform="matrix(0.05,0,0,0.05,46.95,0)" xlink:href="#am"/><use transform="matrix(0.05,0,0,0.05,50.900000000000006,0)" xlink:href="#as"/><use transform="matrix(0.05,0,0,0.05,63.85,0)" xlink:href="#aj"/><use transform="matrix(0.05,0,0,0.05,69.80000000000001,0)" xlink:href="#ad"/><use transform="matrix(0.05,0,0,0.05,73.75000000000001,0)" xlink:href="#az"/><use transform="matrix(0.05,0,0,0.05,82.75000000000001,0)" xlink:href="#aa"/><use transform="matrix(0.05,0,0,0.05,92.75000000000001,0)" xlink:href="#au"/><use transform="matrix(0.05,0,0,0.05,102.7,0)" xlink:href="#av"/><use transform="matrix(0.05,0,0,0.05,111.7,0)" xlink:href="#aw"/><use transform="matrix(0.05,0,0,0.05,121.7,0)" xlink:href="#aa"/></g><path fill="#333" d="M212-179c-10-28-35-45-73-45-59 0-87 40-87 99 0 60 29 101 89 101 43 0 62-24 78-52l27 14C228-24 195 4 139 4 59 4 22-46 18-125c-6-104 99-153 187-111 19 9 31 26 39 46" id="aA"/><g id="n"><use transform="matrix(0.05,0,0,0.05,0,0)" xlink:href="#aA"/><use transform="matrix(0.05,0,0,0.05,12.950000000000001,0)" xlink:href="#Y"/><use transform="matrix(0.05,0,0,0.05,22.950000000000003,0)" xlink:href="#aj"/></g><g id="o"><use transform="matrix(0.05,0,0,0.05,0,0)" xlink:href="#X"/><use transform="matrix(0.05,0,0,0.05,14.950000000000001,0)" xlink:href="#al"/><use transform="matrix(0.05,0,0,0.05,24.950000000000003,0)" xlink:href="#ac"/><use transform="matrix(0.05,0,0,0.05,34.95,0)" xlink:href="#aa"/><use transform="matrix(0.05,0,0,0.05,44.95,0)" xlink:href="#am"/><use transform="matrix(0.05,0,0,0.05,48.900000000000006,0)" xlink:href="#ab"/><use transform="matrix(0.05,0,0,0.05,53.900000000000006,0)" xlink:href="#ac"/></g><path fill="#333" d="M30-248c87 1 191-15 191 75 0 78-77 80-158 76V0H30v-248zm33 125c57 0 124 11 124-50 0-59-68-47-124-48v98" id="aB"/><path fill="#333" d="M96-169c-40 0-48 33-48 73s9 75 48 75c24 0 41-14 43-38l32 2c-6 37-31 61-74 61-59 0-76-41-82-99-10-93 101-131 147-64 4 7 5 14 7 22l-32 3c-4-21-16-35-41-35" id="aC"/><path fill="#333" d="M137-103V0h-34v-103L8-248h37l75 118 75-118h37" id="aD"/><g id="p"><use transform="matrix(0.05,0,0,0.05,0,0)" xlink:href="#aB"/><use transform="matrix(0.05,0,0,0.05,12,0)" xlink:href="#aj"/><use transform="matrix(0.05,0,0,0.05,17.95,0)" xlink:href="#al"/><use transform="matrix(0.05,0,0,0.05,27.950000000000003,0)" xlink:href="#ac"/><use transform="matrix(0.05,0,0,0.05,37.95,0)" xlink:href="#ao"/><use transform="matrix(0.05,0,0,0.05,47.95,0)" xlink:href="#aC"/><use transform="matrix(0.05,0,0,0.05,56.95,0)" xlink:href="#af"/><use transform="matrix(0.05,0,0,0.05,61.95,0)" xlink:href="#ad"/><use transform="matrix(0.05,0,0,0.05,65.9,0)" xlink:href="#al"/><use transform="matrix(0.05,0,0,0.05,75.9,0)" xlink:href="#ae"/><use transform="matrix(0.05,0,0,0.05,85.9,0)" xlink:href="#aD"/><use transform="matrix(0.05,0,0,0.05,96.25,0)" xlink:href="#aa"/><use transform="matrix(0.05,0,0,0.05,106.25,0)" xlink:href="#Y"/><use transform="matrix(0.05,0,0,0.05,116.25,0)" xlink:href="#aj"/></g><path fill="#333" d="M63-220v92h138v28H63V0H30v-248h175v28H63" id="aE"/><g id="q"><use transform="matrix(0.05,0,0,0.05,0,0)" xlink:href="#aE"/><use transform="matrix(0.05,0,0,0.05,10.950000000000001,0)" xlink:href="#ao"/><use transform="matrix(0.05,0,0,0.05,20.950000000000003,0)" xlink:href="#aa"/><use transform="matrix(0.05,0,0,0.05,30.950000000000003,0)" xlink:href="#am"/><use transform="matrix(0.05,0,0,0.05,34.900000000000006,0)" xlink:href="#au"/><use transform="matrix(0.05,0,0,0.05,44.85000000000001,0)" xlink:href="#av"/><use transform="matrix(0.05,0,0,0.05,53.85,0)" xlink:href="#aw"/><use transform="matrix(0.05,0,0,0.05,63.85,0)" xlink:href="#aa"/></g><g id="r"><use transform="matrix(0.05,0,0,0.05,0,0)" xlink:href="#au"/><use transform="matrix(0.05,0,0,0.05,10.3,0)" xlink:href="#aj"/><use transform="matrix(0.05,0,0,0.05,16.25,0)" xlink:href="#Y"/><use transform="matrix(0.05,0,0,0.05,26.25,0)" xlink:href="#ae"/><use transform="matrix(0.05,0,0,0.05,36.25,0)" xlink:href="#ai"/><use transform="matrix(0.05,0,0,0.05,45.25,0)" xlink:href="#ah"/><use transform="matrix(0.05,0,0,0.05,60.2,0)" xlink:href="#ad"/><use transform="matrix(0.05,0,0,0.05,64.15,0)" xlink:href="#ai"/><use transform="matrix(0.05,0,0,0.05,73.15,0)" xlink:href="#ai"/><use transform="matrix(0.05,0,0,0.05,82.15,0)" xlink:href="#ad"/><use transform="matrix(0.05,0,0,0.05,86.10000000000001,0)" xlink:href="#al"/><use transform="matrix(0.05,0,0,0.05,96.10000000000001,0)" xlink:href="#ae"/><use transform="matrix(0.05,0,0,0.05,106.10000000000001,0)" xlink:href="#au"/><use transform="matrix(0.05,0,0,0.05,116.05000000000001,0)" xlink:href="#av"/><use transform="matrix(0.05,0,0,0.05,125.05000000000001,0)" xlink:href="#aw"/><use transform="matrix(0.05,0,0,0.05,135.05,0)" xlink:href="#aa"/></g><path fill="#333" d="M30 0v-248h33v221h125V0H30" id="aF"/><g id="s"><use transform="matrix(0.05,0,0,0.05,0,0)" xlink:href="#aF"/><use transform="matrix(0.05,0,0,0.05,10,0)" xlink:href="#al"/><use transform="matrix(0.05,0,0,0.05,20,0)" xlink:href="#ae"/><use transform="matrix(0.05,0,0,0.05,30,0)" xlink:href="#ak"/><use transform="matrix(0.05,0,0,0.05,40,0)" xlink:href="#ad"/><use transform="matrix(0.05,0,0,0.05,43.95,0)" xlink:href="#af"/><use transform="matrix(0.05,0,0,0.05,48.95,0)" xlink:href="#ao"/><use transform="matrix(0.05,0,0,0.05,58.95,0)" xlink:href="#ac"/><use transform="matrix(0.05,0,0,0.05,68.95,0)" xlink:href="#aa"/></g><g id="t"><use transform="matrix(0.05,0,0,0.05,0,0)" xlink:href="#ac"/><use transform="matrix(0.05,0,0,0.05,10,0)" xlink:href="#aa"/><use transform="matrix(0.05,0,0,0.05,20,0)" xlink:href="#aC"/><use transform="matrix(0.05,0,0,0.05,29,0)" xlink:href="#ad"/><use transform="matrix(0.05,0,0,0.05,32.95,0)" xlink:href="#ah"/><use transform="matrix(0.05,0,0,0.05,47.900000000000006,0)" xlink:href="#Y"/><use transform="matrix(0.05,0,0,0.05,57.900000000000006,0)" xlink:href="#am"/></g><g id="u"><use transform="matrix(0.05,0,0,0.05,0,0)" xlink:href="#aF"/><use transform="matrix(0.05,0,0,0.05,10,0)" xlink:href="#Y"/><use transform="matrix(0.05,0,0,0.05,20,0)" xlink:href="#af"/><use transform="matrix(0.05,0,0,0.05,25,0)" xlink:href="#ad"/><use transform="matrix(0.05,0,0,0.05,28.950000000000003,0)" xlink:href="#af"/><use transform="matrix(0.05,0,0,0.05,33.95,0)" xlink:href="#ao"/><use transform="matrix(0.05,0,0,0.05,43.95,0)" xlink:href="#ac"/><use transform="matrix(0.05,0,0,0.05,53.95,0)" xlink:href="#aa"/></g><g id="v"><use transform="matrix(0.05,0,0,0.05,0,0)" xlink:href="#an"/><use transform="matrix(0.05,0,0,0.05,12,0)" xlink:href="#af"/><use transform="matrix(0.05,0,0,0.05,17,0)" xlink:href="#Y"/><use transform="matrix(0.05,0,0,0.05,27,0)" xlink:href="#af"/><use transform="matrix(0.05,0,0,0.05,32,0)" xlink:href="#ao"/><use transform="matrix(0.05,0,0,0.05,42,0)" xlink:href="#ai"/></g><path fill="#333" d="M233-177c-1 41-23 64-60 70L243 0h-38l-65-103H63V0H30v-248c88 3 205-21 203 71zM63-129c60-2 137 13 137-47 0-61-80-42-137-45v92" id="aG"/><g id="w"><use transform="matrix(0.05,0,0,0.05,0,0)" xlink:href="#aG"/><use transform="matrix(0.05,0,0,0.05,12.950000000000001,0)" xlink:href="#aa"/><use transform="matrix(0.05,0,0,0.05,22.950000000000003,0)" xlink:href="#ae"/><use transform="matrix(0.05,0,0,0.05,32.95,0)" xlink:href="#af"/><use transform="matrix(0.05,0,0,0.05,37.95,0)" xlink:href="#Y"/><use transform="matrix(0.05,0,0,0.05,47.95,0)" xlink:href="#am"/><use transform="matrix(0.05,0,0,0.05,51.900000000000006,0)" xlink:href="#aG"/><use transform="matrix(0.05,0,0,0.05,64.85000000000001,0)" xlink:href="#aa"/><use transform="matrix(0.05,0,0,0.05,74.85000000000001,0)" xlink:href="#af"/><use transform="matrix(0.05,0,0,0.05,79.85000000000001,0)" xlink:href="#ao"/><use transform="matrix(0.05,0,0,0.05,89.85000000000001,0)" xlink:href="#aj"/><use transform="matrix(0.05,0,0,0.05,95.80000000000001,0)" xlink:href="#ae"/></g><g id="x"><use transform="matrix(0.05,0,0,0.05,0,0)" xlink:href="#aG"/><use transform="matrix(0.05,0,0,0.05,12.950000000000001,0)" xlink:href="#aa"/><use transform="matrix(0.05,0,0,0.05,22.950000000000003,0)" xlink:href="#ae"/><use transform="matrix(0.05,0,0,0.05,32.95,0)" xlink:href="#af"/><use transform="matrix(0.05,0,0,0.05,37.95,0)" xlink:href="#Y"/><use transform="matrix(0.05,0,0,0.05,47.95,0)" xlink:href="#am"/><use transform="matrix(0.05,0,0,0.05,51.900000000000006,0)" xlink:href="#ab"/><use transform="matrix(0.05,0,0,0.05,56.900000000000006,0)" xlink:href="#ac"/></g><path fill="#333" d="M205 0l-28-72H64L36 0H1l101-248h38L239 0h-34zm-38-99l-47-123c-12 45-31 82-46 123h93" id="aH"/><g id="y"><use transform="matrix(0.05,0,0,0.05,0,0)" xlink:href="#aG"/><use transform="matrix(0.05,0,0,0.05,12.950000000000001,0)" xlink:href="#aa"/><use transform="matrix(0.05,0,0,0.05,22.950000000000003,0)" xlink:href="#af"/><use transform="matrix(0.05,0,0,0.05,27.950000000000003,0)" xlink:href="#ao"/><use transform="matrix(0.05,0,0,0.05,37.95,0)" xlink:href="#aj"/><use transform="matrix(0.05,0,0,0.05,43.900000000000006,0)" xlink:href="#ae"/><use transform="matrix(0.05,0,0,0.05,53.900000000000006,0)" xlink:href="#aa"/><use transform="matrix(0.05,0,0,0.05,63.900000000000006,0)" xlink:href="#ac"/><use transform="matrix(0.05,0,0,0.05,73.9,0)" xlink:href="#aH"/><use transform="matrix(0.05,0,0,0.05,85.9,0)" xlink:href="#af"/></g><g id="z"><use transform="matrix(0.05,0,0,0.05,0,0)" xlink:href="#as"/><use transform="matrix(0.05,0,0,0.05,12.950000000000001,0)" xlink:href="#Y"/><use transform="matrix(0.05,0,0,0.05,22.950000000000003,0)" xlink:href="#af"/><use transform="matrix(0.05,0,0,0.05,27.950000000000003,0)" xlink:href="#aa"/><use transform="matrix(0.05,0,0,0.05,37.95,0)" xlink:href="#au"/><use transform="matrix(0.05,0,0,0.05,48.25000000000001,0)" xlink:href="#ad"/><use transform="matrix(0.05,0,0,0.05,52.20000000000002,0)" xlink:href="#ah"/><use transform="matrix(0.05,0,0,0.05,67.15,0)" xlink:href="#aa"/></g><g id="A"><use transform="matrix(0.05,0,0,0.05,0,0)" xlink:href="#as"/><use transform="matrix(0.05,0,0,0.05,12.950000000000001,0)" xlink:href="#aa"/><use transform="matrix(0.05,0,0,0.05,22.950000000000003,0)" xlink:href="#ai"/><use transform="matrix(0.05,0,0,0.05,31.950000000000003,0)" xlink:href="#aC"/><use transform="matrix(0.05,0,0,0.05,40.95,0)" xlink:href="#aj"/><use transform="matrix(0.05,0,0,0.05,46.900000000000006,0)" xlink:href="#ad"/><use transform="matrix(0.05,0,0,0.05,50.85000000000001,0)" xlink:href="#aw"/><use transform="matrix(0.05,0,0,0.05,60.85,0)" xlink:href="#af"/><use transform="matrix(0.05,0,0,0.05,65.85000000000001,0)" xlink:href="#ad"/><use transform="matrix(0.05,0,0,0.05,69.80000000000001,0)" xlink:href="#al"/><use transform="matrix(0.05,0,0,0.05,79.80000000000001,0)" xlink:href="#ae"/></g><path fill="#333" d="M103-251c84 0 111 97 45 133-19 10-37 24-39 52H78c0-63 77-55 77-114 0-30-21-42-52-43-32 0-53 17-56 46l-32-2c7-45 34-72 88-72zM77 0v-35h34V0H77" id="aI"/><g id="B"><use transform="matrix(0.05,0,0,0.05,0,0)" xlink:href="#ai"/><use transform="matrix(0.05,0,0,0.05,9,0)" xlink:href="#af"/><use transform="matrix(0.05,0,0,0.05,14,0)" xlink:href="#aj"/><use transform="matrix(0.05,0,0,0.05,19.95,0)" xlink:href="#ad"/><use transform="matrix(0.05,0,0,0.05,23.9,0)" xlink:href="#ae"/><use transform="matrix(0.05,0,0,0.05,33.9,0)" xlink:href="#ak"/><use transform="matrix(0.05,0,0,0.05,43.9,0)" xlink:href="#aI"/></g><g id="C"><use transform="matrix(0.05,0,0,0.05,0,0)" xlink:href="#ab"/><use transform="matrix(0.05,0,0,0.05,5,0)" xlink:href="#ah"/><use transform="matrix(0.05,0,0,0.05,19.950000000000003,0)" xlink:href="#Y"/><use transform="matrix(0.05,0,0,0.05,29.950000000000003,0)" xlink:href="#ak"/><use transform="matrix(0.05,0,0,0.05,39.95,0)" xlink:href="#aa"/></g><g id="D"><use transform="matrix(0.05,0,0,0.05,0,0)" xlink:href="#ac"/><use transform="matrix(0.05,0,0,0.05,10,0)" xlink:href="#aa"/><use transform="matrix(0.05,0,0,0.05,20,0)" xlink:href="#aC"/><use transform="matrix(0.05,0,0,0.05,29,0)" xlink:href="#ad"/><use transform="matrix(0.05,0,0,0.05,32.95,0)" xlink:href="#Y"/><use transform="matrix(0.05,0,0,0.05,42.95,0)" xlink:href="#ah"/><use transform="matrix(0.05,0,0,0.05,57.900000000000006,0)" xlink:href="#am"/></g><g id="E"><use transform="matrix(0.05,0,0,0.05,0,0)" xlink:href="#aq"/><use transform="matrix(0.05,0,0,0.05,14,0)" xlink:href="#ar"/><use transform="matrix(0.05,0,0,0.05,18.65,0)" xlink:href="#ar"/><use transform="matrix(0.05,0,0,0.05,23.65,0)" xlink:href="#aa"/><use transform="matrix(0.05,0,0,0.05,33.65,0)" xlink:href="#aj"/></g><g id="F"><use transform="matrix(0.05,0,0,0.05,0,0)" xlink:href="#aA"/><use transform="matrix(0.05,0,0,0.05,12.950000000000001,0)" xlink:href="#Y"/><use transform="matrix(0.05,0,0,0.05,22.950000000000003,0)" xlink:href="#aj"/><use transform="matrix(0.05,0,0,0.05,28.900000000000002,0)" xlink:href="#ab"/><use transform="matrix(0.05,0,0,0.05,33.900000000000006,0)" xlink:href="#ac"/></g><path fill="#333" d="M143 4C61 4 22-44 18-125c-5-107 100-154 193-111 17 8 29 25 37 43l-32 9c-13-25-37-40-76-40-61 0-88 39-88 99 0 61 29 100 91 101 35 0 62-11 79-27v-45h-74v-28h105v86C228-13 192 4 143 4" id="aJ"/><g id="G"><use transform="matrix(0.05,0,0,0.05,0,0)" xlink:href="#aJ"/><use transform="matrix(0.05,0,0,0.05,14,0)" xlink:href="#aa"/><use transform="matrix(0.05,0,0,0.05,24,0)" xlink:href="#ae"/><use transform="matrix(0.05,0,0,0.05,34,0)" xlink:href="#aa"/><use transform="matrix(0.05,0,0,0.05,44,0)" xlink:href="#aj"/><use transform="matrix(0.05,0,0,0.05,49.95,0)" xlink:href="#Y"/><use transform="matrix(0.05,0,0,0.05,59.95,0)" xlink:href="#af"/><use transform="matrix(0.05,0,0,0.05,64.95,0)" xlink:href="#aa"/><use transform="matrix(0.05,0,0,0.05,74.95,0)" xlink:href="#ac"/><use transform="matrix(0.05,0,0,0.05,84.95,0)" xlink:href="#aH"/><use transform="matrix(0.05,0,0,0.05,96.95,0)" xlink:href="#af"/></g><path fill="#333" d="M141 0L90-78 38 0H4l68-98-65-92h35l48 74 47-74h35l-64 92 68 98h-35" id="aK"/><g id="H"><use transform="matrix(0.05,0,0,0.05,0,0)" xlink:href="#at"/><use transform="matrix(0.05,0,0,0.05,12,0)" xlink:href="#aK"/><use transform="matrix(0.05,0,0,0.05,21,0)" xlink:href="#aw"/><use transform="matrix(0.05,0,0,0.05,31,0)" xlink:href="#ad"/><use transform="matrix(0.05,0,0,0.05,34.95,0)" xlink:href="#aj"/><use transform="matrix(0.05,0,0,0.05,40.900000000000006,0)" xlink:href="#aa"/><use transform="matrix(0.05,0,0,0.05,50.900000000000006,0)" xlink:href="#ai"/><use transform="matrix(0.05,0,0,0.05,59.900000000000006,0)" xlink:href="#aH"/><use transform="matrix(0.05,0,0,0.05,71.9,0)" xlink:href="#af"/></g><g id="I"><use transform="matrix(0.05,0,0,0.05,0,0)" xlink:href="#aG"/><use transform="matrix(0.05,0,0,0.05,12.950000000000001,0)" xlink:href="#aa"/><use transform="matrix(0.05,0,0,0.05,22.950000000000003,0)" xlink:href="#ae"/><use transform="matrix(0.05,0,0,0.05,32.95,0)" xlink:href="#af"/><use transform="matrix(0.05,0,0,0.05,37.95,0)" xlink:href="#Y"/><use transform="matrix(0.05,0,0,0.05,47.95,0)" xlink:href="#am"/><use transform="matrix(0.05,0,0,0.05,51.900000000000006,0)" xlink:href="#aB"/><use transform="matrix(0.05,0,0,0.05,63.900000000000006,0)" xlink:href="#aj"/><use transform="matrix(0.05,0,0,0.05,69.85000000000001,0)" xlink:href="#ad"/><use transform="matrix(0.05,0,0,0.05,73.80000000000001,0)" xlink:href="#aC"/><use transform="matrix(0.05,0,0,0.05,82.80000000000001,0)" xlink:href="#aa"/><use transform="matrix(0.05,0,0,0.05,92.80000000000001,0)" xlink:href="#aB"/><use transform="matrix(0.05,0,0,0.05,104.80000000000001,0)" xlink:href="#aa"/><use transform="matrix(0.05,0,0,0.05,114.80000000000001,0)" xlink:href="#aj"/><use transform="matrix(0.05,0,0,0.05,120.75,0)" xlink:href="#as"/><use transform="matrix(0.05,0,0,0.05,133.70000000000002,0)" xlink:href="#Y"/><use transform="matrix(0.05,0,0,0.05,143.70000000000002,0)" xlink:href="#av"/></g><g id="J"><use transform="matrix(0.05,0,0,0.05,0,0)" xlink:href="#ab"/><use transform="matrix(0.05,0,0,0.05,5,0)" xlink:href="#ae"/><use transform="matrix(0.05,0,0,0.05,15,0)" xlink:href="#ai"/><use transform="matrix(0.05,0,0,0.05,24,0)" xlink:href="#ao"/><use transform="matrix(0.05,0,0,0.05,34,0)" xlink:href="#aj"/><use transform="matrix(0.05,0,0,0.05,39.95,0)" xlink:href="#Y"/><use transform="matrix(0.05,0,0,0.05,49.95,0)" xlink:href="#ae"/><use transform="matrix(0.05,0,0,0.05,59.95,0)" xlink:href="#aC"/><use transform="matrix(0.05,0,0,0.05,68.95,0)" xlink:href="#aa"/><use transform="matrix(0.05,0,0,0.05,78.95,0)" xlink:href="#aB"/><use transform="matrix(0.05,0,0,0.05,90.95,0)" xlink:href="#aj"/><use transform="matrix(0.05,0,0,0.05,96.9,0)" xlink:href="#ad"/><use transform="matrix(0.05,0,0,0.05,100.85000000000001,0)" xlink:href="#aC"/><use transform="matrix(0.05,0,0,0.05,109.85000000000001,0)" xlink:href="#aa"/><use transform="matrix(0.05,0,0,0.05,119.85000000000001,0)" xlink:href="#aB"/><use transform="matrix(0.05,0,0,0.05,131.85000000000002,0)" xlink:href="#aa"/><use transform="matrix(0.05,0,0,0.05,141.85000000000002,0)" xlink:href="#aj"/><use transform="matrix(0.05,0,0,0.05,147.8,0)" xlink:href="#as"/><use transform="matrix(0.05,0,0,0.05,160.75,0)" xlink:href="#Y"/><use transform="matrix(0.05,0,0,0.05,170.75,0)" xlink:href="#av"/></g><path fill="#333" d="M194 0L95-120 63-95V0H30v-248h33v124l119-124h40L117-140 236 0h-42" id="aL"/><g id="K"><use transform="matrix(0.05,0,0,0.05,0,0)" xlink:href="#aL"/><use transform="matrix(0.05,0,0,0.05,12,0)" xlink:href="#aa"/><use transform="matrix(0.05,0,0,0.05,22,0)" xlink:href="#av"/></g><path fill="#333" d="M160-131c35 5 61 23 61 61C221 17 115-2 30 0v-248c76 3 177-17 177 60 0 33-19 50-47 57zm-97-11c50-1 110 9 110-42 0-47-63-36-110-37v79zm0 115c55-2 124 14 124-45 0-56-70-42-124-44v89" id="aM"/><g id="L"><use transform="matrix(0.05,0,0,0.05,0,0)" xlink:href="#aJ"/><use transform="matrix(0.05,0,0,0.05,14,0)" xlink:href="#aa"/><use transform="matrix(0.05,0,0,0.05,24,0)" xlink:href="#ae"/><use transform="matrix(0.05,0,0,0.05,34,0)" xlink:href="#aa"/><use transform="matrix(0.05,0,0,0.05,44,0)" xlink:href="#aj"/><use transform="matrix(0.05,0,0,0.05,49.95,0)" xlink:href="#Y"/><use transform="matrix(0.05,0,0,0.05,59.95,0)" xlink:href="#af"/><use transform="matrix(0.05,0,0,0.05,64.95,0)" xlink:href="#aa"/><use transform="matrix(0.05,0,0,0.05,74.95,0)" xlink:href="#ac"/><use transform="matrix(0.05,0,0,0.05,84.95,0)" xlink:href="#aM"/><use transform="matrix(0.05,0,0,0.05,96.95,0)" xlink:href="#av"/></g><g id="M"><use transform="matrix(0.05,0,0,0.05,0,0)" xlink:href="#an"/><use transform="matrix(0.05,0,0,0.05,12,0)" xlink:href="#aa"/><use transform="matrix(0.05,0,0,0.05,22,0)" xlink:href="#ak"/><use transform="matrix(0.05,0,0,0.05,32,0)" xlink:href="#ah"/><use transform="matrix(0.05,0,0,0.05,46.95,0)" xlink:href="#aa"/><use transform="matrix(0.05,0,0,0.05,56.95,0)" xlink:href="#ae"/><use transform="matrix(0.05,0,0,0.05,66.95,0)" xlink:href="#af"/></g><g id="N"><use transform="matrix(0.05,0,0,0.05,0,0)" xlink:href="#aB"/><use transform="matrix(0.05,0,0,0.05,12,0)" xlink:href="#aj"/><use transform="matrix(0.05,0,0,0.05,17.95,0)" xlink:href="#ad"/><use transform="matrix(0.05,0,0,0.05,21.9,0)" xlink:href="#aC"/><use transform="matrix(0.05,0,0,0.05,30.899999999999995,0)" xlink:href="#aa"/><use transform="matrix(0.05,0,0,0.05,40.9,0)" xlink:href="#aB"/><use transform="matrix(0.05,0,0,0.05,52.900000000000006,0)" xlink:href="#aa"/><use transform="matrix(0.05,0,0,0.05,62.900000000000006,0)" xlink:href="#aj"/><use transform="matrix(0.05,0,0,0.05,68.85,0)" xlink:href="#as"/><use transform="matrix(0.05,0,0,0.05,81.8,0)" xlink:href="#Y"/><use transform="matrix(0.05,0,0,0.05,91.8,0)" xlink:href="#av"/></g><g id="O"><use transform="matrix(0.05,0,0,0.05,0,0)" xlink:href="#ab"/><use transform="matrix(0.05,0,0,0.05,5,0)" xlink:href="#ae"/><use transform="matrix(0.05,0,0,0.05,15,0)" xlink:href="#ai"/><use transform="matrix(0.05,0,0,0.05,24,0)" xlink:href="#ao"/><use transform="matrix(0.05,0,0,0.05,34,0)" xlink:href="#aj"/><use transform="matrix(0.05,0,0,0.05,39.95,0)" xlink:href="#Y"/><use transform="matrix(0.05,0,0,0.05,49.95,0)" xlink:href="#ae"/><use transform="matrix(0.05,0,0,0.05,59.95,0)" xlink:href="#aC"/><use transform="matrix(0.05,0,0,0.05,68.95,0)" xlink:href="#aa"/><use transform="matrix(0.05,0,0,0.05,78.95,0)" xlink:href="#ab"/><use transform="matrix(0.05,0,0,0.05,83.95,0)" xlink:href="#ac"/></g><g id="P"><use transform="matrix(0.05,0,0,0.05,0,0)" xlink:href="#ab"/><use transform="matrix(0.05,0,0,0.05,5,0)" xlink:href="#ae"/><use transform="matrix(0.05,0,0,0.05,15,0)" xlink:href="#ai"/><use transform="matrix(0.05,0,0,0.05,24,0)" xlink:href="#ao"/><use transform="matrix(0.05,0,0,0.05,34,0)" xlink:href="#aj"/><use transform="matrix(0.05,0,0,0.05,39.95,0)" xlink:href="#Y"/><use transform="matrix(0.05,0,0,0.05,49.95,0)" xlink:href="#ae"/><use transform="matrix(0.05,0,0,0.05,59.95,0)" xlink:href="#aC"/><use transform="matrix(0.05,0,0,0.05,68.95,0)" xlink:href="#aa"/></g><g id="Q"><use transform="matrix(0.05,0,0,0.05,0,0)" xlink:href="#aG"/><use transform="matrix(0.05,0,0,0.05,12.950000000000001,0)" xlink:href="#aa"/><use transform="matrix(0.05,0,0,0.05,22.950000000000003,0)" xlink:href="#ae"/><use transform="matrix(0.05,0,0,0.05,32.95,0)" xlink:href="#af"/><use transform="matrix(0.05,0,0,0.05,37.95,0)" xlink:href="#Y"/><use transform="matrix(0.05,0,0,0.05,47.95,0)" xlink:href="#am"/></g><g id="R"><use transform="matrix(0.05,0,0,0.05,0,0)" xlink:href="#aq"/><use transform="matrix(0.05,0,0,0.05,14,0)" xlink:href="#ar"/><use transform="matrix(0.05,0,0,0.05,18.65,0)" xlink:href="#ar"/><use transform="matrix(0.05,0,0,0.05,23.65,0)" xlink:href="#aa"/><use transform="matrix(0.05,0,0,0.05,33.65,0)" xlink:href="#aj"/><use transform="matrix(0.05,0,0,0.05,39.6,0)" xlink:href="#ab"/><use transform="matrix(0.05,0,0,0.05,44.6,0)" xlink:href="#ac"/></g><g id="S"><use transform="matrix(0.05,0,0,0.05,0,0)" xlink:href="#aA"/><use transform="matrix(0.05,0,0,0.05,12.950000000000001,0)" xlink:href="#ao"/><use transform="matrix(0.05,0,0,0.05,22.950000000000003,0)" xlink:href="#ai"/><use transform="matrix(0.05,0,0,0.05,31.950000000000003,0)" xlink:href="#af"/><use transform="matrix(0.05,0,0,0.05,36.95,0)" xlink:href="#al"/><use transform="matrix(0.05,0,0,0.05,46.95,0)" xlink:href="#ah"/><use transform="matrix(0.05,0,0,0.05,61.900000000000006,0)" xlink:href="#aa"/><use transform="matrix(0.05,0,0,0.05,71.9,0)" xlink:href="#aj"/><use transform="matrix(0.05,0,0,0.05,77.85000000000001,0)" xlink:href="#ab"/><use transform="matrix(0.05,0,0,0.05,82.85000000000001,0)" xlink:href="#ac"/></g><g id="T"><use transform="matrix(0.05,0,0,0.05,0,0)" xlink:href="#aA"/><use transform="matrix(0.05,0,0,0.05,12.950000000000001,0)" xlink:href="#ao"/><use transform="matrix(0.05,0,0,0.05,22.950000000000003,0)" xlink:href="#ai"/><use transform="matrix(0.05,0,0,0.05,31.950000000000003,0)" xlink:href="#af"/><use transform="matrix(0.05,0,0,0.05,36.95,0)" xlink:href="#al"/><use transform="matrix(0.05,0,0,0.05,46.95,0)" xlink:href="#ah"/><use transform="matrix(0.05,0,0,0.05,61.900000000000006,0)" xlink:href="#aa"/><use transform="matrix(0.05,0,0,0.05,71.9,0)" xlink:href="#aj"/></g><g id="U"><use transform="matrix(0.05,0,0,0.05,0,0)" xlink:href="#at"/><use transform="matrix(0.05,0,0,0.05,12,0)" xlink:href="#ah"/><use transform="matrix(0.05,0,0,0.05,26.950000000000003,0)" xlink:href="#Y"/><use transform="matrix(0.05,0,0,0.05,36.95,0)" xlink:href="#ad"/><use transform="matrix(0.05,0,0,0.05,40.900000000000006,0)" xlink:href="#am"/><use transform="matrix(0.05,0,0,0.05,44.85000000000001,0)" xlink:href="#aH"/><use transform="matrix(0.05,0,0,0.05,56.85,0)" xlink:href="#ac"/><use transform="matrix(0.05,0,0,0.05,66.85000000000001,0)" xlink:href="#ac"/><use transform="matrix(0.05,0,0,0.05,76.85000000000001,0)" xlink:href="#aj"/><use transform="matrix(0.05,0,0,0.05,82.80000000000001,0)" xlink:href="#aa"/><use transform="matrix(0.05,0,0,0.05,92.80000000000001,0)" xlink:href="#ai"/><use transform="matrix(0.05,0,0,0.05,101.80000000000001,0)" xlink:href="#ai"/></g><g id="V"><use transform="matrix(0.05,0,0,0.05,0,0)" xlink:href="#aE"/><use transform="matrix(0.05,0,0,0.05,10.950000000000001,0)" xlink:href="#ad"/><use transform="matrix(0.05,0,0,0.05,14.9,0)" xlink:href="#aj"/><use transform="matrix(0.05,0,0,0.05,20.85,0)" xlink:href="#ai"/><use transform="matrix(0.05,0,0,0.05,29.85,0)" xlink:href="#af"/><use transform="matrix(0.05,0,0,0.05,34.85,0)" xlink:href="#ag"/><use transform="matrix(0.05,0,0,0.05,47.800000000000004,0)" xlink:href="#Y"/><use transform="matrix(0.05,0,0,0.05,57.800000000000004,0)" xlink:href="#ah"/><use transform="matrix(0.05,0,0,0.05,72.75,0)" xlink:href="#aa"/></g><g id="W"><use transform="matrix(0.05,0,0,0.05,0,0)" xlink:href="#aF"/><use transform="matrix(0.05,0,0,0.05,10,0)" xlink:href="#Y"/><use transform="matrix(0.05,0,0,0.05,20,0)" xlink:href="#ai"/><use transform="matrix(0.05,0,0,0.05,29,0)" xlink:href="#af"/><use transform="matrix(0.05,0,0,0.05,34,0)" xlink:href="#ag"/><use transform="matrix(0.05,0,0,0.05,46.95,0)" xlink:href="#Y"/><use transform="matrix(0.05,0,0,0.05,56.95,0)" xlink:href="#ah"/><use transform="matrix(0.05,0,0,0.05,71.9,0)" xlink:href="#aa"/></g></defs></g></svg>